<?xml version="1.0" encoding="utf-8"?>
<!-- Generator: Adobe Illustrator 24.2.0, SVG Export Plug-In . SVG Version: 6.00 Build 0)  -->
<svg version="1.1" id="Layer_1" xmlns="http://www.w3.org/2000/svg" xmlns:xlink="http://www.w3.org/1999/xlink" x="0px" y="0px"
	 viewBox="0 0 404 206" style="enable-background:new 0 0 404 206;" xml:space="preserve">
<style type="text/css">
	.st0{fill:#101820;}
	.st1{fill:#98989A;}
	.st2{fill:#BBBBBB;}
</style>
<polygon class="st0" points="20.6,18.4 32,18.4 32,60.4 57.1,60.4 57.1,69.9 20.6,69.9 "/>
<path class="st0" d="M78.6,63.2c7,0,9.1-6,9.1-11.9c0-6-2.1-12-9.1-12c-6.9,0-9,6-9,12C69.6,57.2,71.7,63.2,78.6,63.2 M78.6,31.6
	c11.8,0,19.3,7.8,19.3,19.7C98,63.2,90.4,71,78.6,71C67,71,59.4,63.2,59.4,51.3C59.4,39.4,67,31.6,78.6,31.6"/>
<path class="st0" d="M121.4,39.4c-6.1,0-8.7,5.7-8.7,12c0,6.2,2.7,11.9,8.7,11.9c6.1,0,8.7-5.7,8.7-11.9
	C130.1,45.1,127.5,39.4,121.4,39.4 M102.8,18.4H113v18.8h0.1c2.5-3.8,7.1-5.6,11.8-5.6c7.4,0,15.4,6,15.4,19.6
	c0,13.7-8,19.7-15.4,19.7c-5.5,0-10-1.7-12.3-5.8h-0.1v4.8h-9.7V18.4z"/>
<rect x="145.4" y="18.4" class="st0" width="10.2" height="51.5"/>
<path class="st0" d="M185.1,51.7c-1.7,1.5-5.3,1.6-8.5,2.2c-3.2,0.7-6.1,1.7-6.1,5.5c0,3.8,3,4.8,6.3,4.8c8,0,8.3-6.3,8.3-8.6V51.7z
	 M161.4,44.1c0.6-9.6,9.2-12.5,17.5-12.5c7.4,0,16.4,1.7,16.4,10.6v19.4c0,3.4,0.4,6.8,1.3,8.3h-10.4c-0.4-1.2-0.6-2.4-0.7-3.6
	c-3.2,3.4-8,4.6-12.6,4.6c-7.1,0-12.7-3.5-12.7-11.2c0-8.4,6.3-10.5,12.7-11.3c6.3-0.9,12.1-0.7,12.1-4.9c0-4.4-3-5.1-6.6-5.1
	c-3.9,0-6.4,1.6-6.8,5.6H161.4z"/>
<polygon class="st0" points="244.1,69.9 233.6,69.9 226.9,44.9 226.8,44.9 220.4,69.9 209.8,69.9 198,32.6 208.8,32.6 215.7,58 
	215.8,58 222,32.6 232,32.6 238.3,57.9 238.5,57.9 245.3,32.6 255.9,32.6 "/>
<path class="st1" d="M55,95.8c-0.7-5.1-5.6-9-11.3-9c-10.2,0-14,8.7-14,17.7c0,8.6,3.8,17.2,14,17.2c6.9,0,10.8-4.8,11.7-11.5h11
	c-1.2,12.8-10,21.1-22.7,21.1c-15.9,0-25.3-11.9-25.3-26.8c0-15.3,9.4-27.2,25.3-27.2c11.3,0,20.8,6.6,22.2,18.5H55z"/>
<path class="st1" d="M89.3,123.3c7,0,9.1-6,9.1-11.9c0-6-2.1-12-9.1-12c-6.9,0-9,6-9,12C80.3,117.3,82.4,123.3,89.3,123.3
	 M89.3,91.7c11.8,0,19.3,7.8,19.3,19.7c0,11.8-7.6,19.6-19.3,19.6c-11.7,0-19.3-7.8-19.3-19.6C70.1,99.5,77.6,91.7,89.3,91.7"/>
<path class="st1" d="M113.8,92.7h9.7v5h0.1c2.7-3.8,6.6-6.1,11.4-6.1c4.7,0,8.9,1.7,10.9,6.2c2.2-3.2,6.1-6.2,11.3-6.2
	c7.9,0,13.6,3.7,13.6,13.3v25h-10.2v-21.1c0-5-0.4-9.1-6.3-9.1c-5.8,0-6.9,4.8-6.9,9.5V130h-10.2v-20.9c0-4.3,0.3-9.3-6.2-9.3
	c-2,0-6.9,1.3-6.9,8.6V130h-10.2V92.7z"/>
<path class="st1" d="M204.7,111.4c0-5.9-2.4-12-8.9-12c-6.7,0-8.9,6-8.9,12c0,6.1,2.3,11.8,8.9,11.8
	C202.6,123.3,204.7,117.5,204.7,111.4 M177,92.7h9.7v4.8h0.1c2.5-4,6.5-5.8,11.1-5.8c11.7,0,17,9.5,17,20.1c0,10-5.5,19.3-16.4,19.3
	c-4.5,0-8.7-1.9-11.2-5.6h-0.1v17.7H177V92.7z"/>
<path class="st1" d="M242.5,111.7c-1.7,1.5-5.3,1.6-8.5,2.2c-3.2,0.6-6.1,1.7-6.1,5.5c0,3.8,3,4.8,6.3,4.8c8,0,8.3-6.3,8.3-8.6
	V111.7z M218.9,104.2c0.6-9.6,9.2-12.5,17.5-12.5c7.4,0,16.4,1.7,16.4,10.6v19.4c0,3.4,0.4,6.8,1.3,8.3h-10.4
	c-0.4-1.2-0.6-2.4-0.7-3.6c-3.2,3.4-8,4.6-12.6,4.6c-7.1,0-12.7-3.5-12.7-11.2c0-8.4,6.3-10.5,12.7-11.3c6.3-0.9,12.1-0.7,12.1-4.9
	c0-4.4-3-5.1-6.6-5.1c-3.9,0-6.4,1.6-6.8,5.6H218.9z"/>
<path class="st1" d="M258.9,92.7h9.7v5.2h0.2c2.6-4.2,7.1-6.2,11.4-6.2c10.9,0,13.6,6.1,13.6,15.4V130h-10.2v-21.1
	c0-6.1-1.8-9.2-6.6-9.2c-5.6,0-7.9,3.1-7.9,10.7V130h-10.2V92.7z"/>
<path class="st1" d="M300.2,92.7h10.2V130h-10.2V92.7z M310.4,86.9h-10.2v-8.4h10.2V86.9z"/>
<path class="st1" d="M341.8,107.3c-0.9-5.2-3.2-7.9-8.2-7.9c-6.5,0-8.4,5-8.5,7.9H341.8z M325.1,113.8c0.3,6.5,3.5,9.5,9.2,9.5
	c4.1,0,7.4-2.5,8.1-4.8h9c-2.9,8.8-9,12.6-17.5,12.6c-11.8,0-19-8.1-19-19.6c0-11.2,7.7-19.7,19-19.7c12.7,0,18.8,10.7,18.1,22.1
	H325.1z"/>
<path class="st1" d="M364.2,117.9c0.1,4.5,3.8,6.3,7.9,6.3c3,0,6.7-1.2,6.7-4.8c0-3.1-4.3-4.2-11.6-5.8c-5.9-1.3-11.8-3.4-11.8-10
	c0-9.5,8.2-12,16.2-12c8.2,0,15.7,2.7,16.4,11.9h-9.7c-0.3-4-3.3-5.1-7-5.1c-2.3,0-5.7,0.4-5.7,3.5c0,3.7,5.8,4.2,11.6,5.6
	c6,1.4,11.8,3.5,11.8,10.5c0,9.8-8.5,13-17,13c-8.7,0-17.1-3.2-17.5-13.1H364.2z"/>
<polygon class="st2" points="20.6,139.7 32,139.7 32,181.7 57.1,181.7 57.1,191.2 20.6,191.2 "/>
<path class="st2" d="M60.8,153.9h10.2v37.3H60.8V153.9z M71.1,148.1H60.8v-8.4h10.2V148.1z"/>
<path class="st2" d="M77.6,153.9h9.7v5h0.1c2.7-3.8,6.6-6.1,11.4-6.1c4.7,0,8.9,1.7,10.9,6.2c2.2-3.2,6.1-6.2,11.3-6.2
	c7.9,0,13.6,3.7,13.6,13.3v25h-10.2V170c0-5-0.4-9.1-6.3-9.1c-5.8,0-6.9,4.8-6.9,9.5v20.8H101v-20.9c0-4.3,0.3-9.3-6.2-9.3
	c-2,0-6.9,1.3-6.9,8.6v21.6H77.6V153.9z"/>
<path class="st2" d="M141.2,153.9h10.2v37.3h-10.2V153.9z M151.4,148.1h-10.2v-8.4h10.2V148.1z"/>
<path class="st2" d="M170.7,153.9h7.5v6.9h-7.5v18.5c0,3.5,0.9,4.3,4.3,4.3c1.1,0,2.1-0.1,3.2-0.3v8c-1.7,0.3-4,0.4-6,0.4
	c-6.3,0-11.8-1.4-11.8-8.9v-22h-6.2v-6.9h6.2v-11.2h10.2V153.9z"/>
<path class="st2" d="M206.4,168.5c-0.9-5.2-3.2-7.9-8.2-7.9c-6.5,0-8.4,5-8.5,7.9H206.4z M189.7,175c0.3,6.5,3.5,9.5,9.2,9.5
	c4.1,0,7.4-2.5,8.1-4.8h9c-2.9,8.8-9,12.6-17.5,12.6c-11.8,0-19-8.1-19-19.6c0-11.2,7.7-19.7,19-19.7c12.7,0,18.8,10.7,18.1,22.1
	H189.7z"/>
<path class="st2" d="M238.6,160.6c-6.7,0-9,5.8-9,11.9c0,5.8,2.7,12,9,12c6.8,0,8.8-5.9,8.8-12C247.4,166.4,245.2,160.6,238.6,160.6
	 M247.5,186.4h-0.1c-2.4,4-6.6,5.8-11.3,5.8c-11.3,0-16.7-9.7-16.7-20c0-10,5.6-19.3,16.5-19.3c4.4,0,8.7,1.9,11.1,5.6h-0.1h0.1
	v-18.8h10.2v51.5h-9.7V186.4z"/>
</svg>
