<?xml version="1.0" encoding="utf-8"?>
<!-- Generator: Adobe Illustrator 24.2.0, SVG Export Plug-In . SVG Version: 6.00 Build 0)  -->
<svg version="1.1" id="Layer_1" xmlns="http://www.w3.org/2000/svg" xmlns:xlink="http://www.w3.org/1999/xlink" x="0px" y="0px"
	 viewBox="0 0 510.2 180" style="enable-background:new 0 0 510.2 180;" xml:space="preserve">
<style type="text/css">
	.st0{fill:#BBBBBB;}
	.st1{fill:#101820;}
	.st2{fill:#98989A;}
</style>
<polygon class="st0" points="13.7,11.7 13.7,58.6 46.9,58.6 46.9,50.2 23.5,50.2 23.5,11.7 "/>
<path class="st0" d="M74.1,24.6c2.4,1.1,4.4,2.8,6,5.1c1.4,2.1,2.3,4.5,2.8,7.2c0.2,1.6,0.3,3.9,0.3,6.9H57.9
	c0.1,3.5,1.4,5.9,3.6,7.3c1.4,0.9,3.1,1.3,5,1.3c2.1,0,3.7-0.5,5-1.6c0.7-0.6,1.3-1.4,1.9-2.4h9.3c-0.2,2.1-1.4,4.2-3.4,6.3
	c-3.1,3.4-7.5,5.1-13.1,5.1c-4.6,0-8.7-1.4-12.2-4.3c-3.5-2.8-5.3-7.5-5.3-13.9c0-6,1.6-10.6,4.8-13.8c3.2-3.2,7.3-4.8,12.4-4.8
	C69,23,71.7,23.5,74.1,24.6 M60.5,32.5c-1.3,1.3-2.1,3.1-2.4,5.4h15.6c-0.2-2.4-1-4.2-2.4-5.5c-1.4-1.2-3.2-1.9-5.4-1.9
	C63.6,30.5,61.8,31.1,60.5,32.5"/>
<path class="st0" d="M93.5,47.6c0.2,1.6,0.6,2.8,1.2,3.4c1.1,1.2,3.2,1.8,6.3,1.8c1.8,0,3.2-0.3,4.3-0.8c1.1-0.5,1.6-1.3,1.6-2.4
	c0-1-0.4-1.8-1.3-2.3c-0.8-0.5-4-1.4-9.5-2.7c-3.9-1-6.7-2.2-8.3-3.7c-1.6-1.4-2.4-3.5-2.4-6.2c0-3.2,1.3-6,3.8-8.3
	c2.5-2.3,6.1-3.5,10.6-3.5c4.3,0,7.9,0.9,10.6,2.6c2.7,1.7,4.3,4.7,4.7,9H106c-0.1-1.2-0.5-2.1-1-2.8c-1-1.2-2.7-1.8-5.1-1.8
	c-2,0-3.4,0.3-4.2,0.9c-0.8,0.6-1.3,1.3-1.3,2.2c0,1,0.4,1.8,1.3,2.3c0.9,0.5,4.1,1.3,9.5,2.5c3.6,0.9,6.3,2.1,8.1,3.9
	c1.8,1.7,2.7,3.9,2.7,6.5c0,3.4-1.3,6.2-3.8,8.4c-2.6,2.2-6.5,3.3-11.9,3.3c-5.5,0-9.5-1.2-12.1-3.5c-2.6-2.3-3.9-5.2-3.9-8.8H93.5z
	"/>
<path class="st0" d="M138.9,16.2c3.8-3.9,8.6-5.8,14.4-5.8c7.8,0,13.5,2.6,17.1,7.8c2,2.9,3.1,5.8,3.2,8.8h-9.8
	c-0.6-2.2-1.4-3.9-2.4-5.1c-1.7-2-4.3-3.1-7.8-3.1c-3.5,0-6.2,1.4-8.3,4.3c-2,2.9-3,6.9-3,12.2c0,5.3,1.1,9.2,3.2,11.8
	c2.1,2.6,4.8,3.9,8.1,3.9c3.4,0,5.9-1.1,7.7-3.4c1-1.2,1.8-3,2.4-5.4h9.7c-0.8,5.1-3,9.3-6.4,12.5c-3.5,3.2-7.9,4.8-13.3,4.8
	c-6.7,0-11.9-2.2-15.8-6.5c-3.8-4.4-5.7-10.3-5.7-17.9C132.4,26.9,134.6,20.6,138.9,16.2"/>
<path class="st0" d="M207.2,53.9c-2.9,3.6-7.4,5.4-13.3,5.4s-10.4-1.8-13.3-5.4c-2.9-3.6-4.4-8-4.4-13.1c0-5,1.5-9.3,4.4-13
	c2.9-3.7,7.4-5.5,13.3-5.5s10.4,1.8,13.3,5.5c2.9,3.7,4.4,8,4.4,13C211.5,46,210.1,50.3,207.2,53.9 M199.9,48.9
	c1.4-1.9,2.1-4.6,2.1-8c0-3.5-0.7-6.2-2.1-8c-1.4-1.9-3.5-2.8-6.1-2.8c-2.7,0-4.7,0.9-6.1,2.8c-1.4,1.9-2.1,4.6-2.1,8
	c0,3.5,0.7,6.2,2.1,8c1.4,1.9,3.5,2.8,6.1,2.8C196.4,51.8,198.5,50.8,199.9,48.9"/>
<path class="st0" d="M258.7,23.6c1.5,0.6,2.8,1.6,4,3.1c1,1.2,1.6,2.7,2,4.5c0.2,1.2,0.3,2.9,0.3,5.1L265,58.2h-9.3V36.1
	c0-1.3-0.2-2.4-0.6-3.2c-0.8-1.6-2.3-2.4-4.5-2.4c-2.5,0-4.2,1-5.2,3.1c-0.5,1.1-0.7,2.4-0.7,4v20.7h-9.1V37.5
	c0-2.1-0.2-3.6-0.6-4.5c-0.8-1.7-2.3-2.5-4.5-2.5c-2.6,0-4.3,0.8-5.2,2.5c-0.5,1-0.7,2.4-0.7,4.3v20.9h-9.2V23.5h8.8v5.1
	c1.1-1.8,2.2-3.1,3.2-3.9c1.8-1.4,4-2,6.8-2c2.7,0,4.8,0.6,6.4,1.8c1.3,1.1,2.3,2.5,3,4.2c1.2-2,2.7-3.5,4.4-4.5
	c1.9-1,3.9-1.4,6.2-1.4C255.8,22.7,257.3,23,258.7,23.6"/>
<path class="st0" d="M300,27.2c2.8,3,4.2,7.4,4.2,13.2c0,6.1-1.4,10.8-4.2,14c-2.8,3.2-6.3,4.8-10.7,4.8c-2.8,0-5.1-0.7-6.9-2.1
	c-1-0.8-2-1.9-2.9-3.3v18.1h-9V23.5h8.7v5.1c1-1.5,2-2.7,3.1-3.6c2-1.5,4.4-2.3,7.2-2.3C293.7,22.7,297.2,24.2,300,27.2 M293,33.7
	c-1.2-2.1-3.2-3.1-6-3.1c-3.3,0-5.6,1.6-6.9,4.7c-0.6,1.7-1,3.8-1,6.3c0,4,1.1,6.9,3.2,8.5c1.3,1,2.8,1.4,4.6,1.4
	c2.6,0,4.5-1,5.8-2.9c1.3-2,2-4.6,2-7.8C294.9,38.2,294.3,35.8,293,33.7"/>
<path class="st0" d="M323.1,37.1c1.7-0.2,2.9-0.5,3.6-0.8c1.3-0.6,2-1.4,2-2.6c0-1.4-0.5-2.4-1.5-2.9c-1-0.5-2.5-0.8-4.4-0.8
	c-2.2,0-3.7,0.5-4.6,1.6c-0.6,0.8-1.1,1.8-1.3,3.2h-8.8c0.2-3,1-5.5,2.6-7.5c2.4-3.1,6.5-4.6,12.4-4.6c3.8,0,7.2,0.8,10.2,2.3
	c3,1.5,4.4,4.4,4.4,8.5v15.9c0,1.1,0,2.4,0.1,4c0.1,1.2,0.2,2,0.5,2.4c0.3,0.4,0.7,0.8,1.3,1.1v1.3h-9.9c-0.3-0.7-0.5-1.4-0.6-2
	c-0.1-0.6-0.2-1.3-0.3-2.1c-1.3,1.4-2.7,2.5-4.4,3.5c-2,1.1-4.2,1.7-6.7,1.7c-3.2,0-5.8-0.9-7.8-2.7c-2.1-1.8-3.1-4.3-3.1-7.6
	c0-4.3,1.7-7.4,5-9.3c1.8-1,4.5-1.8,8-2.2L323.1,37.1z M328.6,41.3c-0.6,0.4-1.2,0.7-1.8,0.9c-0.6,0.2-1.4,0.4-2.4,0.6l-2.1,0.4
	c-1.9,0.3-3.3,0.8-4.2,1.2c-1.4,0.8-2.1,2.1-2.1,3.9c0,1.5,0.4,2.7,1.3,3.4c0.9,0.7,1.9,1,3.2,1c2,0,3.8-0.6,5.5-1.7
	c1.7-1.1,2.5-3.2,2.6-6.3V41.3z"/>
<path class="st0" d="M361.5,23.4c2.2,0.9,4,2.6,5.3,5v-5h8.9v32.9c0,4.5-0.8,7.9-2.3,10.1c-2.6,3.9-7.6,5.9-14.9,5.9
	c-4.4,0-8.1-0.9-10.9-2.6c-2.8-1.7-4.4-4.3-4.6-7.8h9.9c0.3,1.1,0.7,1.8,1.2,2.3c1,0.8,2.6,1.2,4.9,1.2c3.3,0,5.5-1.1,6.6-3.3
	c0.7-1.4,1.1-3.8,1.1-7.1v-2.2c-0.9,1.5-1.8,2.6-2.8,3.3c-1.8,1.4-4.2,2.1-7,2.1c-4.5,0-8-1.6-10.7-4.7c-2.7-3.1-4-7.4-4-12.7
	c0-5.2,1.3-9.5,3.8-13c2.6-3.5,6.2-5.3,10.9-5.3C358.7,22.7,360.2,22.9,361.5,23.4 M364.6,48.3c1.5-1.6,2.2-4.2,2.2-7.7
	c0-3.3-0.7-5.8-2.1-7.5c-1.4-1.7-3.2-2.6-5.6-2.6c-3.2,0-5.4,1.5-6.6,4.5c-0.6,1.6-1,3.6-1,5.9c0,2,0.3,3.8,1,5.4
	c1.2,2.9,3.4,4.4,6.6,4.4C361.3,50.7,363.1,49.9,364.6,48.3"/>
<path class="st0" d="M409.5,25.5c2.3,1.9,3.4,5,3.4,9.3v23.4h-9.3V37.1c0-1.8-0.2-3.2-0.7-4.2c-0.9-1.8-2.6-2.7-5.1-2.7
	c-3.1,0-5.2,1.3-6.3,3.9c-0.6,1.4-0.9,3.1-0.9,5.3v18.8h-9.1V23.5h8.8v5.1c1.2-1.8,2.3-3.1,3.3-3.9c1.9-1.4,4.2-2.1,7.1-2.1
	C404.3,22.7,407.3,23.6,409.5,25.5"/>
<path class="st0" d="M418.9,19.3h9.2V11h-9.2V19.3z M418.9,58.2h9.2V23.5h-9.2V58.2z"/>
<path class="st0" d="M458.2,24.2c2.4,1.1,4.4,2.8,6,5.1c1.4,2.1,2.3,4.5,2.8,7.2c0.2,1.6,0.3,3.9,0.3,6.9H442
	c0.1,3.5,1.4,5.9,3.6,7.3c1.4,0.9,3.1,1.3,5,1.3c2.1,0,3.7-0.5,5-1.6c0.7-0.6,1.3-1.4,1.9-2.4h9.3c-0.2,2.1-1.4,4.2-3.4,6.3
	c-3.1,3.4-7.5,5.1-13.1,5.1c-4.6,0-8.7-1.4-12.2-4.3c-3.5-2.8-5.3-7.5-5.3-13.9c0-6,1.6-10.6,4.8-13.8c3.2-3.2,7.3-4.8,12.4-4.8
	C453.1,22.6,455.8,23.1,458.2,24.2 M444.6,32c-1.3,1.3-2.1,3.1-2.4,5.4h15.6c-0.2-2.4-1-4.2-2.4-5.5c-1.4-1.2-3.2-1.9-5.4-1.9
	C447.7,30,445.9,30.7,444.6,32"/>
<path class="st0" d="M477.6,47.1c0.2,1.6,0.6,2.8,1.2,3.4c1.1,1.2,3.2,1.8,6.3,1.8c1.8,0,3.2-0.3,4.3-0.8c1.1-0.5,1.6-1.3,1.6-2.4
	c0-1-0.4-1.8-1.3-2.3c-0.8-0.5-4-1.4-9.5-2.7c-3.9-1-6.7-2.2-8.3-3.7c-1.6-1.4-2.4-3.5-2.4-6.2c0-3.2,1.3-6,3.8-8.3
	c2.5-2.3,6.1-3.5,10.6-3.5c4.3,0,7.9,0.9,10.6,2.6c2.7,1.7,4.3,4.7,4.7,9h-9.1c-0.1-1.2-0.5-2.1-1-2.8c-1-1.2-2.7-1.8-5.1-1.8
	c-2,0-3.4,0.3-4.2,0.9c-0.8,0.6-1.3,1.3-1.3,2.2c0,1,0.4,1.8,1.3,2.3c0.9,0.5,4.1,1.3,9.5,2.5c3.6,0.9,6.3,2.1,8.1,3.9
	c1.8,1.7,2.7,3.9,2.7,6.5c0,3.4-1.3,6.2-3.8,8.4c-2.6,2.2-6.5,3.3-11.9,3.3c-5.5,0-9.5-1.2-12.1-3.5c-2.6-2.3-3.9-5.2-3.9-8.8H477.6
	z"/>
<polygon class="st1" points="13.7,68.7 13.7,115.6 46.9,115.6 46.9,107.2 23.5,107.2 23.5,68.7 "/>
<path class="st1" d="M80.4,111.4c-2.9,3.6-7.4,5.4-13.3,5.4s-10.4-1.8-13.3-5.4c-2.9-3.6-4.4-8-4.4-13.1c0-5,1.5-9.3,4.4-13
	c2.9-3.7,7.4-5.5,13.3-5.5s10.4,1.8,13.3,5.5c2.9,3.7,4.4,8,4.4,13C84.8,103.4,83.4,107.8,80.4,111.4 M73.2,106.4
	c1.4-1.9,2.1-4.6,2.1-8c0-3.5-0.7-6.2-2.1-8c-1.4-1.9-3.5-2.8-6.1-2.8c-2.7,0-4.7,0.9-6.1,2.8c-1.4,1.9-2.1,4.6-2.1,8
	c0,3.5,0.7,6.2,2.1,8c1.4,1.9,3.5,2.8,6.1,2.8C69.7,109.2,71.8,108.3,73.2,106.4"/>
<path class="st1" d="M118.4,85.1c2.6,3.3,3.9,7.5,3.9,12.7c0,5.4-1.3,9.9-3.8,13.4c-2.6,3.5-6.1,5.3-10.7,5.3
	c-2.9,0-5.2-0.6-6.9-1.7c-1-0.7-2.2-1.9-3.4-3.6v4.4h-8.9V68.8h9.1v16.7c1.2-1.6,2.4-2.8,3.8-3.7c1.6-1.1,3.7-1.6,6.3-1.6
	C112.2,80.2,115.8,81.8,118.4,85.1 M110.8,106.2c1.3-1.9,2-4.4,2-7.5c0-2.5-0.3-4.5-1-6.1c-1.2-3.1-3.5-4.6-6.7-4.6
	c-3.3,0-5.6,1.5-6.8,4.5c-0.6,1.6-1,3.7-1,6.2c0,3,0.7,5.4,2,7.4c1.3,2,3.3,2.9,6.1,2.9C107.6,109.1,109.5,108.1,110.8,106.2"/>
<rect x="127.4" y="68.7" class="st1" width="9.1" height="46.9"/>
<path class="st1" d="M157.8,94.5c1.7-0.2,2.9-0.5,3.6-0.8c1.3-0.6,2-1.4,2-2.6c0-1.4-0.5-2.4-1.5-2.9c-1-0.5-2.5-0.8-4.4-0.8
	c-2.2,0-3.7,0.5-4.6,1.6c-0.6,0.8-1.1,1.8-1.3,3.2h-8.8c0.2-3,1-5.5,2.6-7.5c2.4-3.1,6.5-4.6,12.4-4.6c3.8,0,7.2,0.8,10.2,2.3
	c3,1.5,4.4,4.4,4.4,8.5v15.9c0,1.1,0,2.4,0.1,4c0.1,1.2,0.2,2,0.5,2.4c0.3,0.4,0.7,0.8,1.3,1.1v1.3h-9.9c-0.3-0.7-0.5-1.4-0.6-2
	c-0.1-0.6-0.2-1.3-0.3-2.1c-1.3,1.4-2.7,2.5-4.4,3.5c-2,1.1-4.2,1.7-6.7,1.7c-3.2,0-5.8-0.9-7.8-2.7c-2.1-1.8-3.1-4.3-3.1-7.6
	c0-4.3,1.7-7.4,5-9.3c1.8-1,4.5-1.8,8-2.2L157.8,94.5z M163.4,98.8c-0.6,0.4-1.2,0.7-1.8,0.9c-0.6,0.2-1.4,0.4-2.4,0.6l-2.1,0.4
	c-1.9,0.3-3.3,0.8-4.2,1.2c-1.4,0.8-2.1,2.1-2.1,3.9c0,1.5,0.4,2.7,1.3,3.4c0.9,0.7,1.9,1,3.2,1c2,0,3.8-0.6,5.5-1.7
	c1.7-1.1,2.5-3.2,2.6-6.3V98.8z"/>
<polygon class="st1" points="195.4,80.9 204.6,80.9 209.9,105.9 215.3,80.9 224.8,80.9 214.7,115.6 205.4,115.6 199.9,90.3 
	194.4,115.6 185,115.6 175.2,80.9 185,80.9 190.4,105.8 "/>
<polygon class="st2" points="13.7,126.1 13.7,173.1 46.9,173.1 46.9,164.6 23.5,164.6 23.5,126.1 "/>
<path class="st2" d="M60.8,134.2h-9.2v-8.4h9.2V134.2z M51.6,138.4h9.2v34.7h-9.2V138.4z"/>
<path class="st2" d="M111.6,138.5c1.5,0.6,2.8,1.6,4,3.1c1,1.2,1.6,2.7,2,4.5c0.2,1.2,0.3,2.9,0.3,5.1l-0.1,21.9h-9.3V151
	c0-1.3-0.2-2.4-0.6-3.2c-0.8-1.6-2.3-2.4-4.5-2.4c-2.5,0-4.2,1-5.2,3.1c-0.5,1.1-0.7,2.4-0.7,4v20.7h-9.1v-20.7
	c0-2.1-0.2-3.6-0.6-4.5c-0.8-1.7-2.3-2.5-4.5-2.5c-2.6,0-4.3,0.8-5.2,2.5c-0.5,1-0.7,2.4-0.7,4.3v20.9h-9.2v-34.6H77v5.1
	c1.1-1.8,2.2-3.1,3.2-3.9c1.8-1.4,4-2,6.8-2c2.7,0,4.8,0.6,6.4,1.8c1.3,1.1,2.3,2.5,3,4.2c1.2-2,2.7-3.5,4.4-4.5
	c1.9-1,3.9-1.4,6.2-1.4C108.6,137.6,110.1,137.9,111.6,138.5"/>
<path class="st2" d="M134.3,134.2h-9.2v-8.4h9.2V134.2z M125.1,138.4h9.2v34.7h-9.2V138.4z"/>
<path class="st2" d="M138.2,145.2v-6.5h4.8V129h9v9.7h5.6v6.5h-5.6v18.3c0,1.4,0.2,2.3,0.5,2.7c0.4,0.4,1.5,0.5,3.3,0.5
	c0.3,0,0.6,0,0.9,0c0.3,0,0.6,0,0.9,0v6.8l-4.3,0.2c-4.3,0.1-7.2-0.6-8.8-2.2c-1-1-1.5-2.6-1.5-4.8v-21.4H138.2z"/>
<path class="st2" d="M184.8,139.1c2.4,1.1,4.4,2.8,6,5.1c1.4,2.1,2.3,4.5,2.8,7.2c0.2,1.6,0.3,3.9,0.3,6.9h-25.3
	c0.1,3.5,1.4,5.9,3.6,7.3c1.4,0.9,3.1,1.3,5,1.3c2.1,0,3.7-0.5,5-1.6c0.7-0.6,1.3-1.4,1.9-2.4h9.3c-0.2,2.1-1.4,4.2-3.4,6.3
	c-3.1,3.4-7.5,5.1-13.1,5.1c-4.6,0-8.7-1.4-12.2-4.3c-3.5-2.8-5.3-7.5-5.3-13.9c0-6,1.6-10.6,4.8-13.8c3.2-3.2,7.3-4.8,12.4-4.8
	C179.7,137.5,182.4,138,184.8,139.1 M171.3,146.9c-1.3,1.3-2.1,3.1-2.4,5.4h15.6c-0.2-2.4-1-4.2-2.4-5.5c-1.4-1.2-3.2-1.9-5.4-1.9
	C174.3,144.9,172.5,145.6,171.3,146.9 M187.4,124.2l-9.7,9.5h-6.6l6.1-9.5H187.4z"/>
<path class="st2" d="M222.4,139.1c2.4,1.1,4.4,2.8,6,5.1c1.4,2.1,2.3,4.5,2.8,7.2c0.2,1.6,0.3,3.9,0.3,6.9h-25.3
	c0.1,3.5,1.4,5.9,3.6,7.3c1.4,0.9,3.1,1.3,5,1.3c2.1,0,3.7-0.5,5-1.6c0.7-0.6,1.3-1.4,1.9-2.4h9.3c-0.2,2.1-1.4,4.2-3.4,6.3
	c-3.1,3.4-7.5,5.1-13.1,5.1c-4.6,0-8.7-1.4-12.2-4.3c-3.5-2.8-5.3-7.5-5.3-13.9c0-6,1.6-10.6,4.8-13.8c3.2-3.2,7.3-4.8,12.4-4.8
	C217.3,137.5,220,138,222.4,139.1 M208.8,146.9c-1.3,1.3-2.1,3.1-2.4,5.4h15.6c-0.2-2.4-1-4.2-2.4-5.5c-1.4-1.2-3.2-1.9-5.4-1.9
	C211.9,144.9,210.1,145.6,208.8,146.9"/>
</svg>
