<?xml version="1.0" encoding="utf-8"?>
<!-- Generator: Adobe Illustrator 24.2.0, SVG Export Plug-In . SVG Version: 6.00 Build 0)  -->
<svg version="1.1" id="Layer_1" xmlns="http://www.w3.org/2000/svg" xmlns:xlink="http://www.w3.org/1999/xlink" x="0px" y="0px"
	 viewBox="0 0 1155 532.5" style="enable-background:new 0 0 1155 532.5;" xml:space="preserve">
<style type="text/css">
	.st0{fill:#FFFFFF;}
	.st1{fill:#1C3DA8;}
	.st2{fill:#1C3DA8;stroke:#FFFFFF;stroke-width:2;stroke-miterlimit:10;}
</style>
<g>
	<path class="st0" d="M190.8,438.9c-0.7-0.2-1.4-0.3-2-0.7c-2.3-1.6-4.3-3.5-5.7-6c-0.5-0.9-1.4-1.5-2.1-2.2
		c-0.7-0.7-1.4-1.4-2.1-2.1c-1.8-1.7-3.6-3.4-5.5-5.1c-2.3-2.1-4.5-4.3-7-6.1c-2.2-1.6-4.7-2.7-7.1-4.1c-0.8-0.5-1.4-1.2-2.2-1.6
		c-1.3-0.7-2.6-1.2-3.9-1.6c-3.6-1.1-7-2.7-10.2-4.7c-0.7-0.4-1.2-1.1-1.6-1.7c-0.8-1.3-2.1-1.7-3.4-1.9c-3-0.3-5.4-1.9-7.7-3.6
		c-2.1-1.5-4.1-3.2-6.4-4.3c-2.9-1.4-6-1.1-9,0.2c-2.5,1.1-5.1,0.9-7.6,0.4c-2.6-0.5-5.3-1.2-7.9-1.5c-1-0.1-2.2,0.5-3,1.1
		c-2.8,2-5.2,4.4-6.9,7.5c-0.8,1.4-2,2.5-3.8,2.9c-2.1,0.4-4,1.6-6.2,1.4c-1.9-0.2-3.8-0.2-5.6-0.3c-4-0.1-7.7,1.2-11.4,2.6
		c-2.1,2.4-5.6,2.8-7.6,5.4c-1.6,2.2-3.4,4.4-4.3,7.1c-0.2,0.6-0.7,1.3-1.3,1.5c-1.5,0.7-3.1,1.3-4.9,1c-0.8-0.2-1.8-0.1-2.6-0.1
		c-0.9,0-1.4,1.7-1.2,2.7c0.4,2.2,1.3,4.2,2.6,6.1c0.5,0.7,0.8,1.7,1.4,2.3c0.7,0.8,1.5,1.5,2.3,2.1c1.4,0.9,1.7,2.4,1.8,3.8
		c0.3,2.6,1.4,4.7,3.4,6.4c1.6,1.4,3.2,3,5.5,3.5c1.3,0.3,2.7,0.7,4,1c1.9,0.4,2.3,0.9,2.5,2.9c0.1,1.6,0.5,3.3,1,4.9
		c0.2,0.7,1.1,1.4,1.8,1.7c1.6,0.5,2.6,1.6,3.5,2.8c0.4,0.5,0.4,1.3,0.5,1.9c0.9,2.9,1.2,5.9,1.3,8.9c0,0.8-0.1,1.6,0,2.4
		c0.2,1.6,1.4,2.1,2.7,1.1c0.7-0.5,1.3-1.2,1.9-1.9c1.1-1.3,2.4-2.3,4.1-2.6c2.2-0.4,3-2,3.5-3.9c0.3-1.1,0.9-2.1,1.5-3
		c0.4-0.7,1-0.3,1.3,0.2c1.4,2.7,1.7,5.4,0.6,8.3c-0.3,0.9-0.6,1.8-0.8,2.7c-0.8,3.3-2.9,5.8-4.6,8.7c-1,1.8-1.8,3.7-2.7,5.5
		c-0.1,0.3-0.2,0.6-0.3,0.9c-0.8,2.1-1.2,2.5-3.5,2.4c-2.6,0-5.1-0.2-7.7-0.2c-5,0-10.1,0-15.1,0c-6.8,0-13.5,0-20.3,0
		c-1.5,0-1.8-0.3-1.8-1.7c0-3.7,0-7.5,0-11.2c0.1-7.4,0.1-14.7,0.2-22.1c0.1-5.2-0.2-10.3,0.3-15.5c0.8-9,0.2-17.9,0.4-26.9
		c0.2-11.1,0.2-22.1,0.3-33.2c0-2.1,0.2-4.3,0.2-6.4c0-5-0.2-10-0.2-15c0-3,0-6.1,0-9.1c0-3.4,0.2-6.8,0.2-10.2
		c0.1-6.8,0.2-13.7,0.3-20.6c0.1-4.7,0.2-9.4,0.2-14.1c0-5.5,0-11.1,0-16.6c0-1.4,0-2.8,0-4.3c0.1-2.6,0.2-5.3,0.2-7.9
		c0-7.5,0-14.9,0-22.4c0-3.2,0.2-6.4,0.2-9.6c0-1.4,0-2.8,0-4.3c0.1-6.4,0.2-12.7,0.2-19.1c0.1-11.8,0.2-23.7,0.2-35.5
		c0-1.9,0-3.9,0-5.8c0.1-14.4,0.1-28.7,0.3-43.1c0-2.3,0.4-4.6,0.4-6.9c0-1.4-0.2-2.9-0.2-4.3c0.1-9.1,0.1-18.1,0.2-27.2
		c0.1-7.3,0.2-14.7,0.2-22c0-3.2,0.1-6.4,0.1-9.6c0-9.6,0.1-19.2,0.1-28.8c0-5.3,0.2-10.7,0.2-16c0-1.5,0.6-2.1,2.1-2.1
		c3.1,0,6.1,0,9.2,0c6.2,0.1,12.4,0.2,18.6,0.2c3.1,0,6.2,0,9.3,0c3.3,0,6.5,0.2,9.8,0.2c1.2,0,2.5-0.2,3.7-0.2s2.3,0.2,3.5,0.2
		c2.4,0,4.8,0,7.1,0c10.6,0,21.1,0,31.7,0c7.4,0,14.7,0.2,22.1,0.2c11.8,0.1,23.5,0.2,35.3,0.3c3.9,0,7.7,0.2,11.6,0.2
		c4.3,0,8.6,0,12.9,0c2.7,0,5.3,0.2,8,0.2c2.9,0,5.8,0,8.7,0c2.5,0,4.9-0.2,7.4-0.2c3.7,0,7.3,0.1,11,0.2c2,0,4.1,0,6.1,0
		c0.8,0,1.6,0,2.2,0.3c0.4,0.2,0.9,0.9,0.9,1.4c0,1.8-0.3,3.6-0.5,5.4c-0.1,1.4-0.3,2.8-0.5,4.1c-0.3,2.7-0.6,5.4-0.9,8.2
		c-0.3,2.5-0.5,5-0.8,7.5c-0.3,2.4-0.6,4.8-0.9,7.1c-0.2,1.9-0.4,3.7-0.6,5.6c-0.4,3.2-0.7,6.4-1.2,9.6c-0.3,2.2,0.2,2.9,2.4,3.3
		c3.2,0.6,6.4,1.3,9.5,1.9c3.3,0.7,6.6,1.3,9.9,1.9c2,0.4,3.9,0.8,5.9,1.2c2.8,0.5,5.6,1,8.4,1.5c1.2,0.2,2.5,0.4,3.7,0.7
		c1.4,0.4,1.8,1,1.5,2.4c0,0.2,0,0.3,0,0.5c-0.1,2.7-0.1,5.5-0.3,8.2c-0.2,3.9-0.6,7.8-0.9,11.7c-0.1,1.8-0.2,3.5-0.3,5.3
		c-0.2,5.6-0.5,11.3-0.7,16.9c-0.1,1.2-0.1,2.4-0.2,3.6c-0.1,1.1,0.3,1.7,1.4,2c3.3,0.8,6.6,1.8,10,2.6c3.7,0.9,7.5,1.8,11.3,2.7
		c3,0.7,6.1,1.4,9.1,2.1c4.3,1.1,8.6,2.2,13,3.2c3.4,0.8,6.9,1.4,10.3,2.4c1.6,0.5,3.1,1.6,4.5,2.5c4.1,2.7,8.3,5.3,12.4,8.1
		c3.1,2.1,6.2,4.2,9.3,6.3c0.8,0.5,1.7,0.9,2.5,1.4c0.9,0.6,1,1.4,0.2,2.2c-2.4,2.2-4.9,4.3-7.4,6.5c-1.1,1-2.1,1.9-3.2,2.9
		c-3.5,3.1-7,6.2-10.5,9.3c-2.1,1.9-4.2,3.8-6.4,5.6c-3.7,3.1-7.4,6.2-11,9.4c-1.4,1.2-2.6,2.6-3.9,3.9c-1.3,1.2-2.6,2.4-4,3.6
		c-1.7,1.5-3.5,3-5.2,4.5c-4.4,3.8-8.9,7.5-13.3,11.4c-1.4,1.2-2.7,2.6-4.1,3.9c-3.3,2.9-6.7,5.8-10.1,8.7c-1.4,1.2-2.7,2.4-4.1,3.6
		c-1.9,1.7-3.8,3.5-5.7,5.2c-4.6,4-9.2,8.1-13.8,12.1c-2,1.7-3.9,3.5-5.9,5.2c-3.2,2.7-6.4,5.5-9.7,8.2c-1.1,1-2.3,2-3.4,2.9
		c-3.7,3.3-7.5,6.5-11.2,9.8c-1.6,1.4-3.1,2.8-4.7,4.1c-2.3,2-4.6,3.9-6.9,5.9c-4.2,3.7-8.3,7.4-12.5,11c-1.5,1.3-2.5,2.6-2.3,4.8
		c0.2,2.3,0.1,4.7,0,7c0,2.3-0.2,4.6-0.2,6.9c-0.1,5.3-0.1,10.6-0.2,16c0,5.2-0.1,10.4-0.1,15.7c0,1.1,0,2.2,0,3.3
		c-0.1,2.5-0.2,5.1-0.2,7.6c0,5.7,0,11.5,0,17.2c0,2.1-0.2,4.2-0.2,6.3c-0.1,3.2-0.3,6.4-0.1,9.6c0.2,4.1,0.1,8.1,0.1,12.2
		c0.1,4.1,0,8.1,0,12.2c0,2.1,0,4.3,0,6.4c-0.1,5.6-0.2,11.3-0.2,16.9c-0.1,4.4-0.2,8.8-0.2,13.3c-0.1,10.3-0.2,20.6-0.3,31
		c0,0.9-0.1,1.9-0.3,2.8c-0.1,0.4-0.6,1-0.9,1c-1.2,0.1-2.4,0.1-3.5,0.1c-0.3,0-0.6,0-1,0c-8.4,0-16.9,0-25.3,0
		c-0.9,0-1.7,0.1-2.6,0c-1.4-0.1-1.8-1-1.1-2.2c1.3-2,2.2-4.1,1.2-6.6c-0.3-0.6-0.4-1.3-0.5-2c-0.4-2.6-0.1-5.1,0.7-7.6
		c0.8-2.3,1.8-4.5,2.6-6.8c0.6-1.7,1.3-3.3,1.6-5.1c0.3-1.6-0.7-2.9-2-3.5c-1.6-0.8-3.3-1.2-5.1-1.5c-1.3-0.2-2-0.8-2.2-2
		c-0.4-2.4-0.4-4.8,0.5-7.1c0.4-1,0.5-2.2,0.6-3.4c0.2-2.9,1.9-3.4,4-2.6c1.3,0.5,2.4,1.6,3.7,2.1c1.9,0.8,3.8,1.4,5.8,2
		c1,0.3,2.1,0.6,3.1,0.5c1.8-0.2,3.8-0.2,5.3-1.1c2-1.1,4.3-2.3,5.4-4.6c0.9-1.8,2-3.5,2.6-5.4c0.8-2.4,0.5-4.9-1-7.1
		c-1-1.5-1.8-3-3-4.3c-1.1-1.1-2.4-2.1-3.8-2.8c-1.9-1.1-6.9,0.9-7.6,3c-0.4,1.3-0.5,2.8-0.7,4.1c-0.1,0.7-0.1,1.3-0.2,2
		c-0.1,1.4-0.2,2.7,0.7,3.9c0.3,0.4,0.5,0.9,0.7,1.3C190.9,438.6,190.9,438.8,190.8,438.9z M86.5,159.3c0.2,0,0.4,0,0.6,0
		c0.1,0.5,0.4,0.9,0.4,1.4c0,1.4-0.2,2.8-0.2,4.2c-0.1,9-0.2,18-0.3,27c-0.1,8.4-0.1,16.8-0.3,25.2c-0.1,3.4-0.3,6.7-0.5,10.1
		c-0.1,2.4-1.1,3.7-3.3,4.2c-0.8,0.2-1.6,0.2-2.4,0.3c-1,0.1-1.7,0.6-1.6,1.7c0.2,1.1,1.1,1.1,1.9,1.1c3.7,0,7.3,0,11,0
		c2.8,0,5.5,0,8.3,0c3.9,0,7.8,0,11.7,0c0.4,0,1.2-0.6,1.2-0.9c0-0.5-0.5-1.2-0.9-1.4c-0.5-0.3-1.2-0.3-1.8-0.4
		c-2.2-0.1-4-1.5-4.4-3.7c-0.3-1.5-0.5-3.1-0.5-4.6c0-12.5,0-25,0-37.5c0-2,0.2-4.1,0.2-6.1c0.1-6.9,0.1-13.8,0.3-20.7
		c0.1-3.3,0.1-6.7,0.5-9.9c0.3-2.2,1.1-3.6,3.4-4c1.2-0.2,2.6-0.1,3.7-0.6c1.3-0.5,2.4-0.5,3.8,0c1.1,0.5,2.5,0.3,3.7,0.6
		c1.4,0.4,2.6,1,2.9,2.6c0.3,1.7,0.7,3.4,0.8,5.1c0.1,3.8,0,7.5,0,11.3c0,8.4,0,16.8,0,25.2c0,2-0.2,4-0.2,6
		c-0.1,8.4-0.1,16.7-0.3,25.1c0,2.2-0.2,4.5-0.5,6.7c-0.2,1.6-0.8,3.1-2.4,3.7c-1.3,0.5-2.8,0.8-4.3,1c-0.9,0.1-1.5,0.3-1.5,1.3
		s0.8,1.3,1.7,1.3c11.2,0,22.3,0,33.5,0c0.4,0,1.2-0.6,1.2-0.8c-0.1-0.5-0.4-1.2-0.8-1.4c-0.9-0.3-1.9-0.5-2.9-0.5
		c-2.3-0.2-3.6-1-4.2-3.3c-0.5-1.9-0.9-3.8-0.9-5.7c-0.1-4.6,0.1-9.3,0.2-13.9c0-4.7,0-9.5,0-14.2c0-1.7,0-3.5,0-5.2
		c0-0.8,0.3-1.8,1.1-1.7c1.5,0.2,3.1,0.4,4.2,1.3c1.4,1.1,2.7,2.7,3.4,4.3c0.9,2,1.2,4.3,1.8,6.5c0.8,2.7,0.9,5.4,0.9,8.2
		c0,0.2-0.1,0.5,0,0.7c0.2,0.3,0.5,0.7,0.9,0.8c0.2,0.1,0.7-0.3,0.8-0.5c0.2-0.5,0.3-1.1,0.3-1.6c0.1-10.9,0.2-21.8,0.3-32.7
		c0-3,0.2-6,0.2-9c0-0.6-0.7-1.2-1-1.8c-0.4,0.5-0.9,1-1.2,1.6c-0.2,0.3,0,0.8,0,1.2c-0.1,1.3-0.1,2.6-0.3,3.8
		c-0.6,3.4-1.4,6.7-2.7,9.9c-1.2,2.9-3.9,4.9-6.9,4.8c-1.3,0-1.8-0.5-1.8-1.8c0-2.3,0.2-4.6,0.2-7c0-4.2,0-8.4,0-12.6
		c0-1.8,0.2-3.5,0.2-5.3c0-3.8,0-7.6,0-11.4c0-0.9,0.1-1.8,1.4-1.7c1.7,0.1,3.4,0,5.1,0.3c4.2,0.8,7,3.3,8.5,7.4
		c0.4,1.1,1.1,2.1,1.8,3c0.3,0.5,0.8,0.9,1,1.4c0.8,1.9,1.7,3.7,2.4,5.6c0.6,1.6,1.2,3.3,1.7,4.9c0.5,1.5,0.9,3,1.3,4.4
		c0.4,1.3,0.8,2.6,1.1,4c0.6,2.1,1.1,4.3,1.8,6.4c0.1,0.3,0.6,0.8,0.8,0.7c0.4,0,0.8-0.4,1-0.7s0.2-0.8,0.2-1.1
		c0-12.5,0-24.9,0-37.4c0-1.1-0.4-1.5-1.5-1.4c-2.5,0.1-4.9,0-7.4,0c-1.1,0-1.7-0.4-1.9-1.5c-0.2-1.2-0.5-2.3-0.6-3.5
		c-0.2-3.9-0.4-7.8-0.5-11.8c-0.1-2.7-0.5-5.5,0.3-8.2c0.2-0.7,0.6-1.5,1.2-1.9c0.2-0.1,1.2,0.4,1.6,0.9c1.1,1.1,2.1,2.3,3.1,3.5
		c1,1.4,2.2,2.5,3.8,3.2c0.4,0.2,1.2,0.2,1.5,0c1.1-0.7,2.3-0.9,3.5-0.6c1.9,0.4,3.6-0.1,5.2-0.7c1.9-0.7,3.7-1.8,5.5-2.7
		c2.3-1.2,4.6-2.3,7.2-2.7c0.4-0.1,1.1-0.4,1.2-0.8c0.1-0.4-0.3-1-0.6-1.3c-0.9-0.6-2-1.1-3-1.6c-1.5-0.7-3-1.3-4.7-2
		c0.4-0.6,0.7-1.1,1-1.4c1.7-1.5,3.4-3,5.2-4.4c2.5-2,5-3.9,7.5-5.9c1.1-0.9,1-1.8-0.2-2.4c-0.8-0.4-0.8-0.8-0.4-1.5
		c0.5-1,1-2,1.4-3c1.3-2.8,2.6-5.6,4.1-8.3c1.1-2,1.2-2-0.9-2.5c-1.1-0.2-1.1-0.7-0.7-1.5c0.3-0.7,0.7-1.4,1-2.2
		c0.6-1.4,1.4-2.8,0.7-4.3c-0.2-0.5-0.8-1.2-1.2-1.2c-3.7,0.1-7.4-0.5-11,0.6c-0.2,0.1-0.5,0-0.7,0c-2.2,0.2-4.4,0.5-6.6,0.8
		c-0.8,0.1-1.5-0.4-1.4-1.1c0.1-0.6,0.2-1.2,0.4-1.8c0.6-1.8,0.9-3.5,0.8-5.4c-0.1-0.8-0.2-1.4-1.2-1.4c-1.4,0-1.7-0.3-1.7-1.7
		c0-1.2,0.1-2.5,0.3-3.7c0.1-1,0.2-2.1,0.3-3.1c0.2-2.1,0.5-4.1,0.6-6.2c0-0.4-0.3-0.9-0.6-1.2c-0.2-0.1-0.8,0.2-1.1,0.4
		c-1.2,1.2-2.4,2.4-3.7,3.6c-0.9,0.9-1.5,0.8-2-0.3c-0.6-1.3-1-2.7-1.6-4c-1.3-2.8-2.6-5.5-4-8.2c-0.2-0.3-1.1-0.6-1.3-0.5
		c-1.1,0.9-1.4,0-1.7-0.7c-0.2-0.5-0.3-1.2-0.5-1.7c-0.5-1.2-1-2.5-1.7-3.6c-0.9-1.5-2-2.9-2.8-4.4c-0.6-1.1-1-2.3-1.5-3.4
		c-0.2-0.3-0.6-0.6-0.9-0.8c-0.2,0.3-0.4,0.6-0.5,1c-0.5,2-0.4,4.1-1.5,6c-0.8,1.4-1.2,3-1.7,4.5c-0.5,1.7-0.9,3.3-1.4,5
		c-0.4,1.2-0.9,1.4-1.9,0.9c-0.7-0.4-1.4-0.9-2.1-1.3c-0.7-0.5-1.4-0.7-1.5,0.4c-0.5,2.9-1.1,5.8-1.4,8.8c-0.5,3.7-0.8,3.5-3.8,2.4
		c-1.3-0.5-2.6-1-3.8-1.6c-0.8-0.3-1.3,0-1.3,0.8c-0.2,2.1-0.3,4.1-0.5,6.2c-0.1,1.3,0,2.7-0.3,4c-0.7,2.6-0.8,5.3-0.2,7.9
		c0.2,0.8,0.2,1.6,0.2,2.4c0,1.2-0.4,1.4-1.6,1.1c-2.4-0.6-4.9-1.1-7.3-1.7c-2.4-0.6-5-0.1-7.2-1.4c-0.6-0.4-1.3-0.7-2-0.8
		c-0.9-0.2-2-0.6-2.6,0.6c-0.2,0.3-0.6,0.6-1,0.6c-2.1,0.1-4.2,0.2-6.3,0.3c-0.3,0-0.7,0.5-0.7,0.8c0,0.4,0.4,0.8,0.6,1.3
		c0.8,1.7,1.9,3.4,2.5,5.2c1.2,4,2.2,8.1,3.4,12.3c-0.4,0.3-0.9,0.7-1.4,1c-0.9,0.3-1.1,0.9-0.8,1.7c0.7,1.5,1.4,3,2.4,4.3
		c2.4,3.1,4.4,6.4,7.3,9.1c1.1,1.1,0.9,1.7-0.2,2.7c-1,0.9-2.1,1.9-2.9,3s-0.6,3.4,1.4,3.6c1.1,0.1,2.2,0.1,3.2,0.4
		c3.3,0.9,6.6,2,10,3c1,0.3,2.1,0.5,3.1,0.7c1.2,0.2,2.5,0.1,3.6,0.6c1.7,0.8,3.4,0.1,4.8-0.3c2.3-0.6,4.4-2.1,6.5-3.4
		c1.6-0.9,2.6-0.8,2.7,1.3c0.2,3.9,0.3,7.8,0.5,11.6c0.2,3.6,0.3,7.2,0.5,10.8c0.1,1.8-0.4,2.4-2.2,2.4c-2.6,0-5.2-0.2-7.8-0.2
		c-1.7,0-3.4,0-5.1,0c-3.5,0-7.1,0.1-10.6,0.1c-4.3,0-8.6-0.3-12.9-0.3c-0.7,0-1.5,0.9-2.2,0.8c-0.7-0.1-1.3-1-2.3-0.9
		c-2,0.2-3.9,0.2-5.9,0.3c-1.2,0-2.5-0.2-3.7-0.2c-1.4,0-2.8,0.2-4.2,0.2c-3.3,0-6.7-0.1-10-0.2c-0.8,0-1.4,0.3-1.6,1.1
		c-0.3,1.6-0.6,3.3-1,4.9c-0.8,3.7-1.7,7.5-2.5,11.2c-0.6,2.8-1.2,5.5-1.8,8.3c-0.5,2.4-0.9,4.9-1.5,7.3c-0.5,2.3-1.1,4.6-1.6,6.9
		c-0.7,3.4-1.4,6.8-2.2,10.2c-0.1,0.5-0.4,0.9-0.7,1.3c-0.4-0.4-0.9-0.8-1.1-1.3c-0.7-2.9-1.4-5.8-2-8.8c-0.6-2.8-1.1-5.6-1.7-8.4
		c-0.7-3.3-1.5-6.5-2.2-9.8c-0.4-1.7-0.8-3.5-1.1-5.2c-0.6-2.7-1.2-5.4-1.8-8.1c-0.6-2.9-1.3-5.7-2-8.5c-0.1-0.5-0.7-1.2-1.1-1.3
		c-1-0.2-2.1-0.1-3.2-0.1c-2.6,0-5.2,0-7.8,0c-3.5,0-7,0-10.5,0c-1.3,0-2.6,0.2-3.9-0.1c-0.9-0.2-1.4,0.1-1.5,0.8s0.3,1.3,1.3,1.3
		c1.4,0.1,2.9,0.3,4.2,0.8c0.8,0.3,1.7,1.1,2.2,1.9c1.3,2.5,2.1,5.2,1.9,8.1c-0.1,1.7-0.2,3.4-0.2,5c-0.1,4.7-0.2,9.3-0.2,14
		c-0.1,6.9-0.2,13.8-0.2,20.7c0,2.8,0,5.5,0,8.3c0,5.3-0.1,10.6,0,15.8c0,3-0.3,6-1,8.9c-0.3,1.5-2.4,3.3-3.9,3.5
		c-1.3,0.2-2.6,0.2-3.9,0.5c-0.4,0.1-1,0.8-1,1.2c-0.1,0.5,0.2,1.1,1.1,1.1c1.5-0.1,3.1-0.1,4.6,0c1.6,0,3.3,0.2,4.9,0.2
		c3.1,0,6.2,0.1,9.3,0c0.5,0,1.4-0.5,1.5-0.9c0.3-0.9-0.4-1.6-1.2-1.7c-1-0.2-2.1-0.2-3.1-0.3c-1.7-0.1-3-0.8-3.9-2.4
		c-1.4-2.6-1.1-5.5-1.4-8.3c-0.3-2.4,0.1-4.8,0.2-7.2c0.1-7.1,0.2-14.3,0.2-21.4c0-9.6,0-19.3,0-28.9c0-0.8,0.2-1.5,0.3-2.3
		c0.2,0,0.3,0,0.5,0c0.1,0.6,0.2,1.1,0.4,1.7c0.6,2.2,1.3,4.5,1.8,6.7c0.5,2.3,0.9,4.7,1.4,7c0.8,3.4,1.7,6.7,2.5,10.1
		c0.5,2.2,0.8,4.4,1.3,6.5c0.8,3.5,1.6,6.9,2.4,10.4c1.2,5.1,2.4,10.2,3.6,15.4c0.9,4.1,1.9,8.3,2.7,12.4c0.7,3.3,0.8,3.4,4.1,3.4
		c1.5,0,2-0.3,2.3-1.8c0.7-3.5,1.3-6.9,2-10.4c0.7-3.8,1.5-7.5,2.3-11.3c0.4-2,0.9-4.1,1.3-6.1c0.6-2.7,1-5.4,1.6-8.1
		c0.8-3.7,1.7-7.3,2.5-11c1-4.7,1.9-9.4,2.9-14.1c0.7-3.3,1.3-6.6,2-9.9C86.1,160.8,86.3,160,86.5,159.3z M227.4,145.8
		c3.3-0.3,4.6,1,5.5,3.6c0.7,2,1.2,4,1.7,6c0.8,3.4,1.6,6.8,2.3,10.2c0.9,4.2,1.6,8.4,2.4,12.6c0.3,1.7,0.9,3.3,1.2,4.9
		c0.5,2.5,0.8,5.1,1.3,7.6c0.8,4,1.8,8,2.6,12c0.3,1.2,0.4,2.5,0.7,3.7c0.4,1.9,0.9,3.8,1.3,5.7c0.9,4.5,1.8,9,2.7,13.5
		c0.6,2.9,1.1,5.9,1.7,8.9c0.2,0.9,0.6,1.4,1.6,1.4c0.9,0,1.9,0,2.8,0c2,0,2.6-0.6,3-2.5c0.7-3.5,1.4-7.1,2.2-10.6
		c0.5-2.4,1.2-4.7,1.7-7c0.5-2.4,1-4.8,1.5-7.2c0.4-1.8,0.7-3.6,1.1-5.3c0.6-2.5,1.2-4.9,1.8-7.3c0.4-1.8,0.9-3.6,1.3-5.4
		c0.5-2.5,1-5,1.5-7.5c0.5-2.3,1-4.6,1.6-6.9c0.2-0.8,0.6-1.6,0.9-2.4c0.2,0,0.4,0,0.6,0.1c0.1,0.8,0.2,1.6,0.3,2.5
		c0.6,3.2,1.3,6.4,1.9,9.5c1.1,5.3,2.1,10.5,3.2,15.8c0.8,4,1.6,8.1,2.4,12.1s1.6,8.1,2.4,12.1c0.6,3.1,1.3,6.3,1.9,9.4
		c0.1,0.3,0.4,0.7,0.7,0.7c1.2,0.2,2.4,0.2,3.6,0.3c1.8,0,2.1-0.2,2.6-2c0.8-3.3,1.6-6.5,2.4-9.8c0.8-3.5,1.5-7,2.2-10.4
		c0.5-2.3,1.2-4.5,1.7-6.8c0.8-3.5,1.5-7,2.3-10.5c0.8-3.6,1.8-7.2,2.6-10.8c1.1-4.6,2.1-9.2,3.1-13.9c0.2-0.8,0.5-1.5,0.7-2.3
		c0.5-2.5,1-5,1.5-7.4c0.4-1.7,0.9-3.4,1.4-5.1c0.7-2.3,1.4-4.7,2.2-7c0.3-0.8,0.8-1.7,1.5-2.1c1.6-0.9,3.3-1.5,5-2.1
		c0.8-0.3,1.3-0.5,1.2-1.4c-0.1-1-0.9-1-1.6-1c-1.8,0.1-3.7,0.2-5.5,0.2c-1.4,0-2.8-0.2-4.2-0.2c-0.7,0-1.5,0.2-2.2,0.2
		c-1.6,0-3.2-0.2-4.8-0.2c-0.7,0-1.2,0.6-1,1.3c0.1,0.4,0.7,0.8,1.1,0.9c0.8,0.3,1.6,0.3,2.4,0.5c2.9,0.7,4.4,3,3.9,5.9
		c-0.2,1.4-0.3,2.9-0.5,4.4c-0.1,1-0.1,2-0.3,3c-0.7,3.3-1.6,6.5-2.3,9.8c-0.9,3.9-1.7,7.8-2.6,11.7c-0.7,3.3-1.5,6.6-2.3,9.9
		c-0.5,2.1-1,4.2-1.5,6.2c-0.1,0.3-0.3,0.6-0.5,0.7c-0.2,0.1-0.6-0.2-0.8-0.4c-0.2-0.3-0.4-0.8-0.5-1.2c-0.2-0.8-0.3-1.6-0.4-2.3
		c-0.5-2.4-1-4.9-1.5-7.3c-0.4-2-0.8-4-1.2-6.1c-0.6-2.8-1.2-5.6-1.7-8.5c-0.8-4.1-1.7-8.2-2.3-12.4c-0.5-3.2-0.8-6.4-1-9.6
		c-0.1-2.4,0.6-3.3,2.4-3.8c0.9-0.3,1.8-0.4,2.7-0.5c0.9-0.1,1.3-0.6,1.2-1.5c-0.1-0.8-0.7-1.2-1.6-1.1c-0.7,0.1-1.3,0.2-2,0.2
		c-6.5,0-13,0-19.5,0c-2.9,0-5.9-0.2-8.8-0.2c-0.4,0-0.9,0.5-1.1,0.9c-0.1,0.3,0.2,1,0.5,1.2c0.6,0.3,1.3,0.3,1.9,0.7
		c0.9,0.5,2.1,1,2.5,1.8c0.9,1.7,1.4,3.5,1.9,5.4c0.9,3.5,1.7,7,2.4,10.5c0.3,1.5,0.7,3.1,0.4,4.5c-1.1,5.2-2.4,10.3-3.6,15.4
		c-1,4-1.9,8.1-2.8,12.1c-0.1,0.5-0.5,1-0.7,1.5c-0.1,0-0.2,0-0.3-0.1c-0.3-0.8-0.7-1.7-0.9-2.5c-1-4.7-2-9.4-2.9-14.2
		c-0.8-3.8-1.4-7.7-2.2-11.5c-0.8-3.9-1.7-7.7-2.4-11.6c-0.4-2.3-0.8-4.7-0.9-7.1c-0.1-2.3,0.5-3.8,2.7-4.2c0.6-0.1,1.1-0.3,1.7-0.5
		c0.7-0.2,1.2-0.4,1.1-1.3c-0.1-0.8-0.5-1-1.2-1c-0.4,0-0.8,0-1.2,0c-8.7,0-17.5,0-26.2,0c-1.3,0-2.5-0.5-3.8-0.8
		c-0.9-0.3-1.6-0.1-1.8,0.9c-0.2,1.1-0.3,2.2-0.5,3.3c-0.3,1.4-0.6,2.9-1,4.2c-0.4,1.2-1.8,1.6-2.8,0.9c-1-0.7-1.9-1.5-2.7-2.4
		c-3-3.5-6.2-6.4-10.9-7.3c-3.2-0.6-6.3-0.5-9.3,0.3c-2.9,0.8-5.6,1.8-7.8,3.8c-2.1,2-4.2,4.1-6,6.3c-1.4,1.8-2.2,3.9-3.4,5.8
		c-2.1,3.5-3,7.4-4.1,11.2c-0.6,2.2-0.9,4.6-1.2,6.9c-0.4,3.1-0.8,6.2-0.9,9.4c-0.2,3.9-0.3,7.9,0,11.8c0.4,4.7,1.3,9.3,2.8,13.8
		c0.8,2.6,1.8,5.2,3.1,7.6c1.5,2.9,3.2,5.7,5.1,8.3c1.5,2,3.5,3.8,5.5,5.3c1.5,1.2,3.4,1.9,5.1,2.7c1,0.4,2.1,0.7,3.2,0.8
		c2.5,0.2,5,0.3,7.6,0.2c1.7-0.1,3.4-0.6,5-1.3c3.4-1.4,5.9-4.1,7.9-7.1c3.1-4.6,4.9-9.8,6.2-15.2c0.7-3,1-6,1.5-9
		c0.1-0.6,0.1-1.1,0-1.7c-0.1-0.4-0.5-0.7-0.7-1c-0.3,0.2-0.7,0.4-0.8,0.8c-0.2,0.7-0.3,1.5-0.5,2.3c-0.6,3.3-1.1,6.6-1.9,9.8
		c-1.1,4-2.5,7.8-4.7,11.3s-5,5.7-9.2,5.7c-2.4,0-4.5-1-6.1-2.9c-2.1-2.5-3.4-5.5-4.2-8.5c-1-3.5-1.7-7.1-2.5-10.7
		c-0.3-1.7-0.4-3.6-0.5-5.3c-0.3-2.8-0.8-5.6-0.9-8.4c-0.1-4.3,0.1-8.5,0.2-12.8c0.1-2.9,0.1-5.8,0.5-8.6c0.6-4.6,1.3-9.2,2.2-13.7
		c0.7-3.6,1.9-7.1,4-10.2c1.1-1.6,2.4-3.1,4.4-3.4c2.8-0.5,5.3,0.4,7.3,2.4c2.7,2.8,4.4,6.1,5.6,9.7c1,3,1.6,6.1,2.3,9.2
		c1,4.3,1.9,8.5,2.8,12.8c0.2,0.9,0.4,2,1.4,1.9s1-1.3,1-2.1c0.1-10.9,0.2-21.8,0.3-32.7C227.2,146.9,227.3,146.3,227.4,145.8z
		 M143.7,339.9c-0.4-0.6-0.6-0.9-0.8-1.3c-1.4-3.7-2.7-7.5-4.1-11.2c-0.9-2.3-1.9-4.4-3.9-6c-2.4-1.8-6.6-1.2-8,1.1
		c-1.3,2.2-1.9,4.6-2,7.2c-0.1,11.6-0.1,23.2-0.1,34.8c0,1.1,0.1,2.2,0.1,3.3c0,1.3-0.2,2.6-0.2,3.8c0,0.8,0.4,1.3,1.2,1.3
		c3.1,0,6.3,0,9.4,0c0.4,0,1.2-0.6,1.2-1c0.2-2.4,0.2-4.8,0.3-7.2c0-2.9,0-5.9,0.1-8.8c0-0.3,0.3-0.7,0.5-1c0.3,0.3,0.6,0.6,0.8,1
		c0.7,1.6,1.3,3.3,1.9,5c0.5,1.3,0.8,2.5,1.3,3.8c0.6,1.6,1.1,3.3,2,4.8c1.1,1.9,2.2,3.9,4.7,4.4c2.1,0.4,4,0.1,5.4-1.4
		c1.8-1.8,2.5-4.2,2.7-6.7c0.2-3.1,0.2-6.2,0.3-9.3c0-3,0-6,0-9.1c0-5.1,0-10.3,0-15.4c0-1.8,0-3.5,0-5.3c0-0.2,0-0.5,0-0.7
		c0.1-1,0.2-2.1,0.1-3.1c0-0.4-0.5-1.2-0.8-1.2c-1.4-0.2-2.8-0.1-4.3-0.1c-1.1,0-2.3,0-3.4,0c-0.8,0-1.5-0.3-2.3-0.1
		c-0.5,0.1-1.3,0.5-1.4,0.9c-0.2,1.3-0.2,2.7-0.2,4c0,2.6,0.1,5.2,0.1,7.8c0,0.6,0,1.2,0,1.8C144.6,337.1,144.6,338.4,143.7,339.9z
		 M120.9,270.3c-0.1,0-0.3,0.1-0.4,0.1c-0.4-0.8-1-1.6-1.3-2.5c-1.4-3.7-2.6-7.5-4.1-11.1c-0.8-2.1-1.9-4.1-4.1-5.2
		c-2.7-1.4-5.6-0.6-7.2,1.5c-1.4,1.8-2,4.1-2.1,6.5c-0.1,9.2-0.2,18.4-0.3,27.7c0,4.5-0.2,9-0.2,13.5c0,2.4,0.4,2.4,2.3,2.3
		c2.5-0.1,4.9-0.1,7.4,0c2.2,0.1,2.4,0,2.4-2.3c0-4.4,0-8.7,0-13.1c0-0.9,0-1.9,1.1-2.6c0.3,0.8,0.7,1.6,0.9,2.3
		c1,2.8,1.9,5.5,3,8.3c0.8,2,1.6,4,2.7,5.9c1.2,2,3.2,2.9,5.4,2.7c2.2-0.2,4.4-1.2,5.1-3.5c0.7-2.1,1.3-4.3,1.3-6.5
		c0.2-6.8,0-13.6,0.1-20.4c0-3.3,0.2-6.5,0.2-9.7c0-3.4,0-6.8,0-10.2c0-1.9-0.2-2-2.1-2c-1.5,0-3,0.2-4.5,0.2
		c-1.4,0-2.7-0.2-4.1-0.2c-0.7,0-1.3,0.2-1.3,1.2c0,1.3,0,2.7,0,4c0,3.4,0,6.9,0,10.3C121.3,268.2,121,269.3,120.9,270.3z
		 M50.1,295.4L50.1,295.4c0.1,1.9,0.1,3.8,0.1,5.7c0,0.9,0.3,1.5,1.4,1.4c1.3-0.2,2.7-0.2,3.9-0.7c3.6-1.5,6.4-4,8.4-7.4
		c1.9-3.2,3.2-6.7,4-10.5c0.8-4,0.6-8,0.2-11.9c-0.4-4.3-1.7-8.4-4.1-12.1c-2.4-3.6-5.5-6.3-9.5-7.6c-2.4-0.8-5.1-0.8-7.7-1
		c-1.4-0.1-2.9,0.2-4.3,0.2c-1.3,0-2.6-0.2-3.8-0.2c-1.4,0-1.8,0.4-1.8,1.8c0,2.2,0.2,4.3,0.2,6.5c0,1.8-0.2,3.6-0.2,5.4
		c0,9.6,0,19.2,0,28.8c0,0.4,0,0.7,0,1.1c-0.1,2-0.2,4-0.2,6c0,1.1,0.4,1.6,1.7,1.6c2.9-0.1,5.7,0,8.6,0c1.5,0,1.9-0.4,2-2
		c0-3.6,0-7.2,0-10.8c0-1.4-0.2-2.9-0.2-4.3c0.1-3,0.3-6.1,0.4-9.1c0.1-2.9,0-5.7,0.1-8.6c0-0.7,0.3-1.6,1.2-1.4s1.8,0.5,2.4,1.1
		c2.1,2,3.4,4.5,3.4,7.5c0,1.9,0,3.8-0.3,5.8c-0.3,2.9-1.6,5.3-4.3,6.8c-0.5,0.3-1.1,0.9-1.2,1.4C50.2,291,50.2,293.2,50.1,295.4z
		 M120,346.1c0-2.5,0.1-5.1,0-7.6c-0.1-1.7,0-3.5-0.6-5.1c-1.2-3.4-2.3-6.9-5.1-9.4c-1.7-1.5-3.2-3-5.5-3.5
		c-3.6-0.8-7.1-0.3-10.2,1.6c-1.3,0.8-2.5,2-3.4,3.3c-2.7,3.4-4.1,7.5-4.3,11.8c-0.3,11.2-0.2,22.3-0.3,33.5c0,1.4,0.5,1.9,1.9,1.9
		c2.8,0,5.6,0,8.5,0c1.4,0,1.9-0.4,1.9-1.8c0-1.8-0.2-3.6-0.2-5.4c0-2,0.2-4,0.2-6c0-4,0-8,0-12c0-0.8,0-1.6,0.1-2.3
		c0.2-2.9,0.3-5.7,0.5-8.6c0.1-1,0.9-1.3,1.8-1.3c1,0,1.9,0.1,2.1,1.2c0.4,1.8,0.7,3.6,0.8,5.4c0.1,1.6-0.6,2-1.9,2
		c-1.4,0-1.9,0.5-1.9,1.7c0,3.3,0,6.6,0,9.9c0,0.8,0.4,1.3,1.3,1.3c1.8,0,2.3,0.6,2.3,2.4s-0.2,3.6-0.2,5.4c0,2.1,0,4.1,0,6.2
		c0,2,0,2,1.9,2c2,0,4,0,6.1,0c1.1,0,2.1,0.1,3.1,0c0.3,0,0.8-0.6,0.8-1c0.1-1.3,0.1-2.6,0.1-3.9c0-2.4,0-4.8,0-7.2
		c0-2.3,0.2-4.7,0.2-7C120,351.1,120,348.6,120,346.1z M190.6,285.3c0-4.2-0.1-8.3,0-12.5c0.1-4.3-0.3-8.6-2.2-12.5
		c-2-4.1-4.7-7.5-9.4-8.6c-3.6-0.9-6.9-0.1-9.8,1.9c-2.6,1.9-4.7,4.3-5.7,7.5c-0.7,2.3-1.8,4.6-1.8,6.9c-0.3,8.5-0.2,17.1-0.3,25.6
		c0,2.6-0.1,5.1-0.2,7.7c0,1.5,0.6,2.1,2.2,2.1c2.6,0,5.2,0,7.9,0c1.7,0,2.1-0.4,2.1-2.1c0-6.1,0-12.3,0-18.4c0-2.5,0.2-4.9,0.2-7.4
		c0-2.3-0.1-4.5,0-6.8c0.1-1.5,0.9-2.3,2-2.5c1.3-0.1,2.3,0.5,2.6,1.9c0.3,1.5,0.5,3.1,0.5,4.6s-0.5,1.8-2,1.8
		c-1.1,0-1.6,0.5-1.6,1.6c0,2.6,0,5.1,0,7.7c0,0.4,0,0.7-0.1,1.1c-0.4,1.7,0.2,2.5,1.9,2.6c1.2,0,1.7,0.7,1.8,1.7
		c0.1,1.2,0.1,2.3,0,3.5c-0.1,3.1-0.3,6.2-0.4,9.3c0,0.7,0.3,1.4,1.2,1.5c3.2,0.1,6.4,0.2,9.5,0.2c0.4,0,0.9-0.5,1.2-0.9
		c0.2-0.4,0.2-1,0.2-1.5C190.6,295.9,190.6,290.6,190.6,285.3z M36.2,347.4c-0.1,0-0.2,0-0.2,0c0,3.7,0,7.4,0,11.1
		c0,4.1,0,8.1,0,12.2c0,1.1,0.4,1.5,1.5,1.5c3,0,6-0.1,8.9,0c1.1,0,1.6-0.4,1.6-1.5c-0.1-3.1,0-6.1,0-9.2c0-0.8,0.2-1.6,0.2-2.4
		c0-1.4-0.2-2.9-0.2-4.3c0-3.6,0.1-7.2,0.2-10.7c0.1-2.5,0.1-5.1,0.3-7.6c0.1-0.8,1.6-1.7,2.3-1.6c2.2,0.2,3.4,4.3,1.9,6
		c-0.6,0.7-1.5,1-2.2,1.6c-0.4,0.3-0.9,0.8-0.9,1.2c-0.2,3.9-0.2,7.7-0.3,11.6c0,0.9,0.4,1.6,1.5,1.5c2.8-0.2,5.5-0.8,7.8-2.7
		c2.1-1.8,3.4-4,4.3-6.5c0.5-1.6,0.9-3.3,1.2-4.9c0.3-1.6,0.7-3.3,0.5-4.8c-0.3-2.6-0.6-5.3-1.6-7.9c-1-2.7-2.8-4.8-4.7-6.8
		c-2.2-2.2-5-3.3-8.1-3.2c-4,0.1-7.2,1.8-9.6,5c-1.5,2-2.5,4.1-3.1,6.5c-0.7,2.9-1.2,5.8-1.3,8.8C36.1,342.5,36.2,345,36.2,347.4z
		 M97.5,276.9c0-1.6,0-3.1,0-4.7c0-1.7-0.1-1.8-1.9-1.8c-2.8,0-5.6,0-8.3,0c-1.3,0-1.7-0.7-1-1.7c0.4-0.7,0.9-1.3,1.5-1.8
		c2.4-2,5.2-1.8,8-1.5c0.8,0.1,1.6,0.1,1.7-0.8c0.2-2.2,0.2-4.5,0.3-6.7c0-1.4-0.1-2.7,0-4.1c0.1-1.4-0.4-2.1-1.9-2
		c-0.2,0-0.3,0-0.5,0c-2.3,0-4.7-0.1-7,0.2c-3.2,0.5-5.8,2.3-8.4,4.2c-2.7,2-4.1,5-5.6,7.9c-1.8,3.4-2,7.2-2.3,10.9
		c-0.2,3.3,0.3,6.7,0.6,10c0.3,2.9,1.5,5.5,2.8,8c1.5,2.8,3.4,5.2,6.2,6.9c1,0.6,2,1.4,3,1.9c3.5,1.5,7.3,1.3,11,1.2
		c0.7,0,1.5-0.3,1.5-1.2c0.1-3.8,0.2-7.5,0.2-11.3c0-1-0.6-1.7-1.5-1.6c-1.8,0.2-3.5,0-5.2-0.2c-2.1-0.3-3.5-1.4-4.4-3.2
		c-0.6-1.2-0.2-1.8,1.1-1.8c2.8,0,5.6,0,8.5,0c1.1,0,1.6-0.5,1.6-1.6C97.5,280.3,97.5,278.6,97.5,276.9z M153.6,274.5
		c0.1,0,0.2,0,0.2,0c0-2.1,0-4.2,0-6.3c0-1.1,0.5-1.6,1.6-1.6s2.2,0,3.3,0c1.4,0,1.6-0.2,1.6-1.6c0-2,0-4,0-6c0-1.8,0.2-3.5,0.2-5.3
		c0-1.5-0.3-1.8-1.8-1.8c-3.1,0.1-6.2,0.2-9.3,0.2c-1.7,0-3.5-0.1-5.2-0.2c-2.3-0.1-4.6-0.2-6.8-0.2c-0.5,0-1.2,0.6-1.3,1.1
		c-0.2,1.1-0.1,2.2-0.1,3.3c0,2.9,0,5.8,0,8.8c0,1,0.3,1.5,1.4,1.4c0.9-0.1,1.9,0,2.8,0c1.3,0,1.9,0.5,1.9,1.9c0,1.8,0,3.6,0,5.5
		c0,2.2-0.2,4.5-0.2,6.7c0,3.6,0,7.3,0,10.9c0,3.4-0.2,6.7-0.2,10.1c0,1.2,0.4,1.7,1.6,1.7c1.4,0,2.7,0,4.1,0c1.7,0,3.5,0.1,5.2,0
		c0.4,0,0.9-0.5,1-0.9c0.2-0.6,0-1.3,0-2c0.1-3,0.2-6.1,0.2-9.1c0-2.1-0.2-4.3-0.2-6.4C153.6,281.3,153.6,277.9,153.6,274.5z
		 M67.1,333.6c-0.1,0-0.2,0-0.2,0c0,5.2,0,10.4,0,15.6c0,2.7,0,5.3,0,8c0,3,0.4,6.1,1.7,8.8c1.3,2.7,3.2,5,6.2,5.8
		c4.1,1.2,8.4,0.6,12.7,0.8c0.8,0,1.4-0.5,1.4-1.5c0-4,0-8-0.1-12c0-0.5-0.7-1.2-1.2-1.3c-1.5-0.2-3.1-0.3-4.7-0.3
		c-2.5,0-4.1-1.3-4-4.1c0-1.6,0.2-3.1,0.2-4.7c0-6.4,0-12.8,0-19.1c0-2.4,0-4.8,0-7.3c0-1.2-0.6-1.6-1.6-1.6c-2.9,0-5.8-0.1-8.7,0
		c-1.6,0-1.7,0.2-1.7,1.9C67.1,326.2,67.1,329.9,67.1,333.6z M217.2,293.5c0-1.2-0.1-2.3,0-3.5c0.1-1.1-0.4-1.5-1.5-1.5
		c-1.9,0-3.8-0.1-5.6-0.2c-1.1-0.1-1.9-0.6-2.3-1.8c-0.5-1.3-0.4-2.6-0.3-4c0.2-4.3,0.1-8.7,0.1-13c0-3.8,0-7.7,0-11.5
		c0-1.2,0.2-2.3,0.2-3.5c0.1-1.7-0.5-2.3-2.3-2.3c-1,0-2.1,0.2-3.1,0.2c-1.8,0-3.5-0.2-5.3-0.2c-1,0-1.6,0.5-1.6,1.5
		c0,0.9,0,1.9,0,2.8c-0.1,5.4-0.2,10.8-0.2,16.2c0,1.6,0.2,3.1,0.2,4.7s-0.2,3.3-0.2,4.9c0,2.7,0.2,5.4,0.2,8.1
		c0.1,3.8,1.2,7.2,3.9,10.1c1.9,2,4,3.2,6.8,3.2c2.7,0,5.4,0.1,8.1,0.3c2.3,0.1,3-0.5,2.9-2.7C217.2,298.6,217.2,296,217.2,293.5z"
		/>
	<path class="st0" d="M141.6,485.2c0.4-0.6,0.6-1,0.9-1.2c2.3-1.4,3.5-3.7,5.3-5.6c2.3-2.3,3.8-5.1,5.5-7.8c0.4-0.6,0.9-1.2,1.4-1.8
		c1.4-1.7,1-3.5,0.1-5c-1.3-2.1-2.5-4.2-3.7-6.4c-0.8-1.3-1.8-2.5-2.4-3.9c-0.6-1.4-1.1-3-1.1-4.5c0-3.7,0.3-7.4,0.4-11
		c0-1.4-0.1-2.9-0.3-4.3c-0.1-0.6-0.5-1.3-1-1.5c-1.4-0.6-2.9-1.1-4.4-1.3c-1.6-0.2-2.3,0.9-1.4,2.2c0.6,0.9,1.6,1.7,2.5,2.4
		c1.3,1,1.9,2,1.7,3.8c-0.4,3.2-0.7,6.5-0.5,9.7c0.2,2.5-1.1,3.8-2.8,5c-2.1,1.6-4.2,3.1-6.7,3.6c-2.4,0.5-4.8,1.2-7.3,0.7
		c-1.6-0.3-1.8-0.7-1.3-2.2c0.7-1.8,1.5-3.5,2.2-5.2c0.4-1.1,0.6-2.2,0.8-3.3c0.2-1.2-0.6-1.9-1.8-1.8c-0.6,0-1.1-0.2-1.1-0.9
		c0-0.3-0.1-0.7,0-1c1.2-3.8,0.8-7.6,0.5-11.4c-0.2-2.5-0.4-4.9-0.8-7.4c-0.1-0.9-0.6-1.8-1-2.6c-1.6-3.1-1-4,0.7-5.6
		c1.2-1.1,2.2-2.4,3.3-3.5c1.5-1.6,3.2-2.3,5.6-2.3c4.4,0.2,8.7,0.9,13.1,1.6c2,0.3,3.8,0.9,5.6,1.9c0.9,0.5,1.9,0.6,2.8,1
		c2.2,0.8,4.3,2,6.5,2.5c3.4,0.9,5.6,3.3,8.1,5.5c2,1.8,3.7,4,5.8,5.7c2.9,2.4,5.3,5.1,7.3,8.3c1,1.7,2.6,2.6,4.2,3.6
		c1.5,1,3.2,1.8,4.9,1.8c1.2,0,2.5-0.7,3.6-1.4c2.6-1.5,4.1-6.2,2.5-8.5c-0.8-1.1-1.5-1.8-3-1.8c-0.6,0-1.7-0.5-1.8-0.9
		c-0.3-0.9-0.4-2.1,0-3c0.4-1.1,3.7-0.7,4.1,0.6c0.6,2.1,2.2,3.3,3.6,4.8c1.2,1.3,1.2,2.9,1,4.5c-0.4,2.7-1.4,5.2-3.6,6.9
		c-1.2,0.9-2.7,1.6-4.1,1.9c-3.1,0.7-6.3-0.1-9.2-1.3c-3-1.1-5.5-3.1-6.8-6.3c-0.6-1.6-2.1-2.3-3.4-3c-0.7-0.4-2.2,0.6-2.8,1.9
		c-0.4,0.9-0.6,1.9-0.7,2.8c-0.2,2.3-0.2,4.6-0.6,6.8c-0.3,1.5-1.2,2.8-1.8,4.2c-0.2,0.5-0.3,1-0.6,1.4c-0.4,0.7-1,1.3-1.5,1.9
		c-1.4,1.5-2.8,2.9-4.1,4.4c-2.6,2.9-1.9,6.1-0.6,9.3c0.3,0.7,0.1,1.1-0.6,1.3c-2,0.6-3.4,1.9-4.8,3.3c-1.6,1.7-3.4,3.3-5.1,5
		c-1.4,1.3-2.6,2.8-4,4.1c-1.7,1.6-3.5,3-5.9,3.3C142.6,485.3,142.2,485.2,141.6,485.2z M156,439.5c0.1,0,0.2-0.1,0.3-0.1
		c-0.4-1.5-0.6-3.2-1.2-4.6c-0.4-1-1.5-0.9-1.9,0.2c-0.2,0.5-0.1,1.2,0,1.8c0.3,1.2,0.6,2.4,0.1,3.7c-0.8,1.9-1.3,3.9-1.8,6
		c-0.2,0.9-0.4,2.3,0,2.9c0.9,1.3,2.3,2.3,3.5,3.4c0.3,0.2,1.1,0.3,1.4,0.1c0.4-0.4,0.6-1,0.6-1.6s-0.4-1.1-0.4-1.7
		C156.3,446.2,156.2,442.9,156,439.5z M169.8,442.2c0-1.8-0.5-2.4-1.5-2.4s-1.5,0.6-1.5,1.8c0,0.8,0,1.7-0.3,2.3
		c-1.4,2.9-2.9,5.7-4.3,8.5c-0.6,1.2-1.3,2.4-1.8,3.7c-0.1,0.4,0.2,1,0.5,1.4c0.1,0.1,1,0,1.2-0.3c1.1-1.5,2.3-2.9,3.2-4.6
		c1.4-2.5,2.5-5.2,3.7-7.8C169.3,443.8,169.6,442.7,169.8,442.2z"/>
	<path class="st0" d="M125.7,407.8c-0.7-0.3-1.2-0.6-1.7-0.8c-0.5-0.2-1.2-0.4-1.4-0.2c-0.4,0.4-0.6,1.1-0.5,1.6
		c0.1,0.8,0.6,1.5,0.9,2.2c-0.1,0.1-0.2,0.2-0.3,0.3c-0.4-0.2-0.9-0.3-1.3-0.5c-1.3-0.7-2.2-0.7-2.6,0.1c-0.2,0.3-0.2,0.7-0.1,1.1
		c0.3,1.3,0.7,2.6,1,3.9c0.2,0.7-0.1,1.2-0.8,1.4c-0.2,0-0.3,0-0.5,0.1c-0.6,0.3-1.2,0.7-1.8,1.1c0.4,0.7,0.8,1.5,1.4,2.1
		c0.9,0.9,2.1,1.6,2.9,2.6c1,1.2,0.8,1.6-0.7,2c-0.4,0.1-0.9,0.5-1.1,0.8c-0.1,0.3,0.1,0.8,0.4,1.1c0.9,1,2,1.8,2.9,2.8
		c0.8,0.8,1.1,1.8,0.8,3c-0.3-0.1-0.5-0.1-0.7-0.1c-1.3-0.3-2.3,0.5-2,1.8c0.2,1,0.7,1.8,1,2.8c0.4,1.2,0.8,2.3,1.1,3.5
		c-0.1,0.1-0.3,0.2-0.4,0.2c-0.6-0.3-1.1-0.7-1.7-0.8c-0.5-0.1-1.2-0.1-1.6,0.1c-0.2,0.1-0.3,0.9-0.2,1.3c0.6,2,1.3,4,1.8,6
		c0.2,0.6,0,1.4,0,2c-0.1,0-0.3,0.1-0.4,0.1c-0.7-0.9-1.3-1.9-2-2.8c-0.3-0.4-0.9-0.7-1.3-0.7c-0.7,0.1-1.2,0.7-1,1.5
		c0.4,1.7,0.8,3.3,1.2,4.9c0.1,0.6,0.2,1.2,0.2,1.8c0,0.3-0.3,0.5-0.4,0.8c-0.2-0.2-0.5-0.3-0.7-0.5s-0.2-0.6-0.5-0.8
		c-0.5-0.4-1-0.9-1.5-0.9c-0.8,0.1-1.1,0.8-1,1.6c0.1,0.5,0.4,1.1,0.4,1.6c-0.1,1-0.1,2.1-0.5,3c-0.4,1.1-1.3,1-1.9,0.1
		c-0.3-0.5-0.8-0.9-1.3-1.2c-0.7-0.3-1.2,0-1.3,0.7c-0.1,0.7-0.2,1.3-0.3,2c-0.1,1-0.5,1.3-1.5,0.9c-0.7-0.3-1.3-0.7-1.9,0
		s-0.5,1.4-0.1,2.2c0.3,0.5,0.3,1.2,0.5,2c-0.8-0.1-1.4-0.2-2-0.2c-1.2,0-1.6,0.5-1.1,1.6c0.5,1,1.2,1.9,1.6,2.9
		c0.2,0.5,0.3,1.2,0,1.6c-0.4,0.6-1,0.3-1.6,0c-0.9-0.5-1.5-0.2-1.4,0.9c0,0.8,0.4,1.7,0.5,2.5c0.1,0.4-0.1,0.9-0.2,1.3
		c-0.4-0.1-0.9-0.2-1.3-0.4c-0.3-0.2-0.5-0.7-0.8-0.9c-0.4-0.3-1-0.6-1.5-0.5c-0.3,0.1-0.6,0.7-0.7,1.1c-0.1,0.6,0,1.3,0,1.9
		c0,0.8-0.3,1.2-1.2,0.7c-0.9-0.6-1.6,0-2.2,0.6c0.2,0.6,0.4,1.2,0.6,1.7c0.3,0.7-0.1,1.3-0.7,1.3c-0.8,0-1.8-0.2-2.4-0.7
		c-0.3-0.2-0.3-1.3-0.1-1.9c0.8-3,1.7-5.9,2.6-8.9c0.9-3.2,1.3-6.5,1.1-9.8c-0.1-1.2-0.3-2.4-0.6-3.6c-0.2-1.1-0.8-1.3-1.7-0.7
		c-0.7,0.5-1.3,0.5-2.1,0.1c-1.3-0.7-1.6-0.5-2.3,0.7c-0.7,1.3-1.4,2.6-2.8,3.3c-0.2,0.1-0.4,0.3-0.6,0.3c-1.7,0.3-1.9,0.4-2,2.1
		c0,0.2,0.1,0.5,0,0.7c-0.2,0.5-0.4,0.9-0.7,1.4c-0.4-0.3-0.7-0.5-1.1-0.8c-0.2-0.2-0.4-0.5-0.6-0.9c-0.8,0.8-1.3,1.5-2.4,1
		c-0.2-0.1-0.8,0.6-1,1c-0.4,0.9-0.6,1.8-1,2.7c-0.1,0.3-0.5,0.4-0.7,0.7c-0.9-2-1.5-3.9-1.3-6c0.1-0.8-0.4-1.6-0.6-2.5
		c-0.2-0.8-0.3-1.7-0.5-2.5c0-0.2,0.2-0.4,0.2-0.6c-0.1-0.7-0.3-1.4-0.4-2.1c-0.5,0.3-1,0.7-1.6,0.9c-0.9,0.4-1.7,0.9-2.6,1.2
		c-0.7,0.2-1.2-0.4-1.2-1.1c0-1.8,0-3.6,0-5.4c0-1.2,0.8-1.9,1.9-2.2c1.7-0.6,2.9-1.8,3.9-3.2c0.8-1.2,1.2-1.3,2.5-0.6
		c1.5,0.8,2.3,0.5,3.3-0.8c1.7-2.3,3.4-4.6,5.1-6.9c0.2-0.2,0.4-0.5,0.6-0.6c2.5-1.2,3.5-3.6,4.5-6c1.7-4.2,1.8-8.5,1.1-12.9
		c-0.1-0.6-0.6-1.2-0.8-1.8c-0.6-1.3-1.1-2.7-1.7-4.1c-0.3-0.8-0.1-1.3,0.6-1.8c0.6-0.5,1.1-1.2,1.6-1.9c1.4-2,2.8-4,4.2-6
		c1-1.4,2-2.8,3-4.3c1.1-1.6,2.6-1.6,4.3-1.3c2.3,0.5,4.6,0.9,6.9,1.1c1.4,0.1,2.8-0.3,4.2-0.6c2.2-0.5,4.3-1.1,6.4-1.6
		c1-0.2,2.2-0.2,3.2,0.1c3.1,0.9,5.8,2.7,8.2,4.8c2,1.7,3.9,3.4,6.6,3.7c0.8,0.1,1.7,0.8,2.4,1.4s1.3,1.3,1.8,2
		c0.2,0.2,0.3,0.5,0.3,0.8c0,0.1-0.4,0.3-0.7,0.3c-1.4,0.2-2.8,0.4-4.1,0.5c-1.3,0-2.2-0.9-2.8-1.9c-0.4-0.6-0.6-1.4-0.8-2.1
		c-0.5-1.8-1.6-2.2-3-1c-0.3,0.3-1.1,0.3-1.4,0.1c-1.5-0.7-2.4-0.3-2.5,1.4c0,0.4,0,0.8,0,1.2C125.7,406.8,125.7,407.2,125.7,407.8z
		 M110.4,440.4c-0.1,0.1-0.2,0.1-0.3,0.2c-0.3-0.1-0.7-0.3-1-0.4s-0.6-0.4-0.9-0.5c-1.1-0.4-1.9,0.3-1.7,1.4c0.1,0.7,0.4,1.4,0.6,2
		c0.7,1.7,0.2,2.5-1.6,2.6c-1.3,0.1-2.6,1.1-2.8,2.5c-0.4,2.6-0.7,5.2-0.9,7.8c0,0.4,0.3,1,0.7,1.2c0.3,0.2,0.9,0,1.2-0.2
		c2-1.2,2.9-3.4,4.2-5.2c1-1.4,1.9-2.8,3.1-4c1.8-1.6,3.4-3.3,3.8-5.8c0.1-0.7,0.3-1.5,0.3-2.2c0-2.1,0.3-4.3-0.2-6.2
		c-0.8-2.8-2.2-5.3-3.3-8c-0.4-0.9-0.7-1.8-0.8-2.7c-0.2-1.7,1-2.9,1.7-4.2c1.4-2.5,1.6-5.2,0.8-7.9c-0.6-2.1-1.5-4.1-2.3-6.1
		c-0.4-1-1.2-1.8-2.2-1.7c-1.3,0.1-2.5,0.5-3.7,0.9c-0.3,0.1-0.7,0.7-0.6,1c0.1,0.4,0.6,1,1,1c1.2,0.1,1.8,0.8,2.4,1.6
		c0.2,0.2,0.3,0.7,0.2,0.9c-0.1,0.2-0.5,0.2-0.8,0.3c-0.5,0.2-1.3,0.4-1.4,0.8c-0.1,0.5,0.2,1.2,0.5,1.7c0.4,0.7,1.2,1.2,1.6,1.9
		c0.2,0.4,0.2,1,0,1.4c-0.1,0.2-0.8,0.2-1.2,0.3c-0.6,0.2-1.3,0.2-1.8,0.6c-0.2,0.2,0.2,1,0.4,1.6c0.1,0.3,0.3,0.5,0.5,0.8
		c1,1.3,0.8,2-0.9,2.3c-1,0.2-1.3,0.9-0.7,1.7c0.7,0.8,1.5,1.6,2.2,2.3c0.4,0.4,0.8,0.8,1.1,1.2c0.6,0.8,0.2,1.4-0.6,1.5
		c-0.8,0.1-1.6,0.4-1.5,1.3c0.1,0.6,0.7,1.1,1.2,1.6c0.9,0.9,2,1.6,2.9,2.5c0.2,0.2,0.2,0.6,0.2,1c-0.4,0.1-0.7,0.2-1.1,0.2
		c-0.2,0-0.4-0.2-0.5-0.2c-0.5,0-1.2,0-1.4,0.3c-0.2,0.4-0.1,1.1,0.2,1.4c0.7,1.1,1.6,2,2.3,3.1C109.8,438.7,110,439.6,110.4,440.4z
		 M87,442.3c-0.4,0.6-0.8,0.9-0.9,1.4c-0.2,0.8-0.3,1.7-0.5,2.5c-0.1,0.4-0.5,0.8-0.8,1.2c-0.3-0.3-0.8-0.5-1-0.9
		c-0.6-0.9-1-1.8-1.6-2.6c-0.2-0.3-1-0.6-1.2-0.5c-0.4,0.2-0.7,0.8-0.8,1.3c-0.1,0.3,0.2,0.7,0.3,1.1c0,0.6,0.1,1.3-0.1,1.9
		c-0.3,0.7-0.9,0.6-1.6,0.5c-0.9-0.2-1.5,0.6-1.1,1.5c0.1,0.4,0.3,0.7,0.6,1c1.2,1.7,0.7,3-1.3,3.5c-0.5,0.1-1.1,0.6-1.2,1.1
		c-0.3,1.3,0.3,2.5,1.2,3.3c0.4,0.4,1.5,0.3,2.1,0c0.7-0.3,1.4-0.9,1.9-1.5c0.8-1,1.7-1.8,3.1-2.2c2.3-0.6,4.5-1.5,6.7-2.3
		c0.8-0.3,1.3-0.3,2,0.2c0.4,0.3,1.1,0.6,1.3,0.5c0.5-0.4,0.9-1,1-1.6c0.4-1.8,0.6-3.7,0.9-5.5c0.3-2,0.7-4,1-5.9s0.7-2.4,2.5-2.5
		c1-0.1,1.5-0.8,1-1.8c-0.3-0.6-0.7-1.1-1.2-1.4c-0.9-0.5-1.3-1-1.4-2.1c-0.2-2.4-1.7-3.8-3.8-2.4c-0.9,0.6-1.2,1.3-0.6,2.1
		c1.2,1.4,1.1,3.1,1,4.7c-0.1,1.1-0.2,2.1-0.5,3.2c-0.3,0.9-1,1.1-1.7,0.5c-1-0.8-1.6-0.7-2,0.5c-0.3,0.9-0.4,2-0.6,3
		c-0.1,0.4-0.4,0.7-0.6,1c-0.2-0.3-0.5-0.5-0.7-0.8C87.7,443.7,87.4,443.1,87,442.3z"/>
	<path class="st0" d="M125.4,494.5c-1.7-0.1-3.5-0.3-5.2-0.3c-1.5,0-2.9,0.2-4.4,0.2c-4.7,0-9.4-0.2-14.1-0.2c-3,0-6,0-9,0
		c-1.5,0-1.7-0.3-1.2-1.7c0.6-1.5,1.2-3.1,2-4.5c0.3-0.6,0.9-1,1.5-1.3c4.5-2.5,8.5-5.7,11.1-10.3c1.8-3.2,3.3-6.5,5-9.8
		c1.3-2.4,3.1-3.9,6.1-4c2.3-0.1,4.7,0,7-0.8c1.4-0.5,3-0.2,4.5-0.4c2-0.2,4-0.5,6-0.7c1.4-0.2,2.7-0.5,4.1-0.7c2.2-0.2,4.1-1,6-1.9
		c1.8-0.9,2.1-0.9,2.8,1.1c0.6,2,1.9,3.4,3.3,4.7c0.4,0.4,0.7,0.8,1.1,1.1c0.7,0.6,0.8,1.3,0.4,2.1c-1.2,2.6-2.9,4.9-4.6,7.2
		c-0.5,0.7-0.9,1.5-1.5,2.2c-1,1.2-2,2.6-3.2,3.6c-3,2.5-6.2,4.8-9,7.4c-1.2,1.1-1.7,3-2.5,4.5c-0.2,0.3-0.3,0.6-0.4,1
		c-0.4,1.1-1.1,1.6-2.3,1.5C127.9,494.3,126.6,494.4,125.4,494.5C125.4,494.4,125.4,494.5,125.4,494.5z"/>
	<path class="st0" d="M79.7,431.6c0.3-2.4,0.8-4.8,0.8-7.2c-0.1-2.1-0.6-4.3-1.2-6.4c-0.7-2-1.6-4-2.7-5.9c-0.5-0.9-1.5-1.4-2.4-2
		c-0.3-0.2-1.1,0.2-1.3,0.5c-0.3,0.7-0.5,1.6-0.4,2.3c0.9,4.1,0,7.9-1,11.8c-0.2,0.9-0.6,1.8-1.6,2.3c-0.5,0.3-0.7,1-1.2,1.3
		c-0.4,0.3-1,0.6-1.4,0.5c-1-0.3-1.6-0.1-1.9,0.9c-0.2,0.5-0.5,0.9-0.8,1.4c-1.3-0.8-2.3-0.8-3.1,0.7c-0.1,0.1-0.9,0-1.3-0.2
		c-0.3-0.2-0.4-0.7-0.6-1c-0.5-0.7-1-0.8-1.6,0c-1,1.3-1.8,1.2-2.8-0.1c-0.2-0.3-0.4-0.6-0.6-0.9c-0.3-0.4-0.6-0.8-1-1.3
		c-0.3,0.5-0.5,0.7-0.5,0.9c-0.4,1.7-0.5,3.3,0.2,4.9c0.3,0.6,0.9,1.3,1.5,1.5c2.3,0.9,4.6,1.8,7.2,1.5c1.1-0.1,2.1-0.5,3.1-1
		c1-0.4,1.9-1,2.7-1.6c0.6-0.5,1.2-1,1.7-1.7c1-1.4,1.8-1.5,3.3-0.6c1,0.6,2.1,1,3.2,1.4c0.7,0.2,1.1,0.5,1.1,1.3s0.2,1.7,0.2,2.5
		c-0.1,0.8-0.3,1.7-0.6,2.5c-0.1,0.3-0.7,0.5-1,0.5c-0.9-0.2-1.7-0.5-2.5-0.8c-0.6-0.2-1.1-0.3-1.5,0.5c-0.7,1.4-1.6,2.6-3.3,2.9
		c-0.7,0.1-1.1,0.1-1.7-0.4c-1.3-1.3-1.6-1.2-3.1-0.1c-1.5,1.2-3.1,2.7-5.2,2.4c-1.1-0.1-2.4-0.6-3.2-1.4c-1.4-1.4-2.9-3-3.7-4.8
		c-0.8-1.7-0.8-3.8-0.9-5.7c0-1.7,0.4-3.5,0.7-5.2c0.3-1.8,0.7-3.6,1.2-5.4c0.4-1.4,0.6-3,1.3-4.3c1.3-2.7,3.2-5,5.9-6.5
		c2.9-1.7,6.2-2.2,9.3-3.3c0.4-0.1,1,0,1.4-0.1c1.4-0.1,2.8-0.2,4.2-0.2c1.4-0.1,2.7-0.1,3.9,0.7c0.6,0.4,1.3,0.6,2,0.7
		c1,0.1,1.1,0.8,0.8,1.4c-0.6,1.1,0.1,1.8,0.7,2.5s1.4,1.2,2,1.9c0.5,0.5,1,1-0.1,1.5c-1.2,0.6-1.1,2,0,2.9c0.6,0.6,1.2,1.3,1.5,2.1
		c0.4,1-0.3,1.7-1.4,1.6c-0.5,0-1.1,0.2-1.6,0.3c0.1,0.5,0.2,1,0.4,1.4c0.6,1.6,1.4,3.2,1.6,4.9c0.3,1.6-0.9,2.2-2.5,1.6
		C81.3,431.7,80.5,431.7,79.7,431.6z"/>
	<path class="st0" d="M166,466.5c2.9-0.1,4.7,2.6,4.1,4.8c-0.3,1-0.5,2-0.6,3c-0.2,1.6,0.4,3,1.1,4.4c1.9,3.6,2.1,7.2-0.3,10.8
		c-0.8,1.2-1.7,2.5-2.5,3.7c-0.1,0.2-0.2,0.4-0.2,0.6c-0.2,1.1-0.8,1.5-1.9,1.4c-2.3-0.1-4.6-0.2-6.8-0.2c-2,0-3.9,0.2-5.9,0.2
		c-2.4,0-4.7-0.2-7.1-0.2c-1,0-2,0.1-3,0.2c-1.3,0.1-2.3-1.3-1.5-2.4c1.4-2.1,2.7-4.4,5-5.6c2.6-1.3,4.3-3.3,6-5.5
		c1.4-1.8,3.2-3.2,5-4.6c1.3-0.9,2.3-2.3,3.3-3.5c0.7-0.7,1.4-1.1,2.4-1c3.6,0.2,4.5-3,3.3-5.2C166.3,467.2,166.2,466.9,166,466.5z"
		/>
	<path class="st0" d="M176.3,487.2c-0.1,1-0.2,2.1-0.4,3.2c-0.2,1-1,1.3-2,1.1c-0.9-0.2-0.9-0.9-0.7-1.7c0.1-0.4,0-0.8,0.2-1.1
		c1.6-2.2,1.2-4.7,0.6-7.1c-0.4-1.6-1-3.2-1.6-4.8c-0.6-1.4-0.7-2.8-0.3-4.3c1.6-4.9-0.5-6.7-4.4-8.5c-1.9-0.9-2.4-1.9-1.1-3.6
		c0.9-1.2,2.1-2.3,3.2-3.3c0.8-0.7,1.5-0.4,1.8,0.6c0.3,0.9,0.4,1.8,0.6,2.6c0.2,0.7,0.2,1.5,0.5,2.2c0.6,1.3,1,2.6,0.8,4.2
		c-0.3,1.7,1.5,2.9,3.1,2.3c0.9-0.3,1.3-1.2,1-2.7c-0.1-0.6-0.4-1.1,0.4-1.3c0.9-0.1,1.1,0.6,1.1,1.2c0,0.9-0.2,1.8-0.5,2.7
		c-0.4,1.2-0.9,2.3-1.3,3.4c-0.3,0.9-0.6,1.9-0.6,2.9c0,1.9-0.3,3.8-0.9,5.6c-0.3,1-0.1,2.1,0,3.1C176.1,485,176.2,486,176.3,487.2z
		"/>
	<path class="st0" d="M75.5,417c1.3,0,1.8,0.5,2,1.9c0.2,1.5,0.7,3,0.6,4.4c-0.1,1.9-0.6,3.8-1.2,5.6c-0.2,0.8-2.1,1.1-3,0.6
		s-0.9-1.4-0.9-2.3c0-2.1,1.3-3.8,1.8-5.7C75.2,420,75.3,418.5,75.5,417z"/>
	<path class="st0" d="M88.2,483.8c0.9,0.5,1.8,0.9,2.5,1.4c0.3,0.2,0.5,0.9,0.4,1.1c-1,1.6-1.8,3.7-3.8,4.4c-1,0.4-2.3,0.3-3.4,0.1
		c-0.9-0.1-1-1-0.5-1.8c1-1.3,1.9-2.7,2.9-4C86.8,484.5,87.5,484.3,88.2,483.8z"/>
	<path class="st0" d="M48.5,429.4c0,0.1,0,0.3,0,0.4c-0.2,0.6-0.5,1.1-0.7,1.6c-0.4-0.3-1-0.6-1.3-1.1c-0.4-0.6-0.7-1.3-1.1-1.9
		c-0.4-0.8-0.3-1.5,0.6-1.8c0.8-0.3,2,0.3,2.2,1.1C48.4,428.3,48.5,428.9,48.5,429.4L48.5,429.4z"/>
	<path class="st1" d="M119.1,510.5c-29.9,0-59.9-0.4-89.8-0.5c-2.5,0-5.1-0.2-7.6-0.2c-2.3-0.3-7.5,1-7.3-1.3
		c-0.2-31.8,0.5-63.5,0.7-95.3c0.7-66.2,1.5-132.3,1.5-198.5c0.8-59.4,1-118.8,1.7-178.2c0-1.9,0.4-2.3,2.2-2.2
		c14.6,0.5,9.8,1.8,10.6-13.7c0-1.9,0.4-2.3,2.3-2.3c22.2,0.1,44.3,0.4,66.5,0.2c51.5,0.6,102.9,0.7,154.4,1.2
		c1.7,0.4,7.1-1.1,6.7,1.3c-0.4,4.1-0.9,8.1-1.5,12.2c-1.4,11.6-2.8,23.2-3.9,34.8c0.1,1.3-0.9,3.8,0.7,4.6c2.6,0.7,5.2,1.2,7.7,1.7
		c10.5,1.5,20.8,3.6,31.2,5.6c0.9,0.2,1.6,0.5,1.5,1.7c-0.4,4.8-0.6,9.6-1,14.3c-0.6,9.6-1.3,19.2-1.9,28.8c0.2,1.8-0.9,4.9,1,5.9
		c13.9,3.4,27.8,6.7,41.7,10c3.1,0.8,6.3,1.5,9.4,2.4c4.6,1.7,8.3,5.3,12.4,7.8c7.2,4.7,14.4,9.4,21.5,14.3c1.3,0.9,1.2,1.3,0,2.3
		c-6.7,5.8-13.4,11.5-19.9,17.5c-43.2,38.1-86.7,75.8-130,113.7c-17.4,15.2-10.5,7.5-12.2,31.3c0.3,18.9-0.2,37.8-0.2,56.6
		c-0.2,30.3-0.9,60.7-1,91.1c-1.4,24.8,5.3,19.8-14.7,20.1c-1.4,0-1.7,0.3-1.7,1.7c0,3.1,0,6.3,0,9.4c-0.4,2-0.3,2-2.1,2
		c-26.4,0.1-52.7-0.4-79.1-0.2C119.1,510.6,119.1,510.6,119.1,510.5z M190.8,438.9c0.1-0.1,0.1-0.2,0.2-0.3
		c-2.4-3.4-1.3-7.6-0.6-11.4c5.3-7,11.3-1.7,14.5,4.1c3,4.1,0.5,8.7-1.7,12.6c-2.7,4.6-8.8,6.7-13.9,5.3c-1.9-0.6-3.9-1.2-5.8-2
		c-2.5-1.5-7.3-4.9-7.7,0.5c-0.1,1.1-0.2,2.3-0.6,3.4c-1,2.4-1,4.7-0.5,7.1c0.6,3.9,9.8,1,9.3,7c-1.4,6.6-6.2,12.5-5,19.5
		c1,3,1.4,6-0.7,8.6c-1.6,2.5,2.1,2.3,3.6,2.2c8.4,0,16.9,0,25.3,0c3.6-0.1,6,1.1,5.7-3.9c0.1-14.7,0.2-29.5,0.5-44.2
		c0.3-35.8,0.3-71.5,0.8-107.3c0.1-7.6,0.1-15.2,0.4-22.8c0.6-4-1.5-9.1,2.3-11.8c16-14.1,32-28.3,48.3-42.1
		c33.6-29.7,67.6-59.1,101.1-89c12.4-10.9,9.5-5.5-4.6-16.4c-5.6-3.5-10.9-7.8-16.9-10.6c-14.5-3.5-29.1-6.9-43.6-10.5
		c-3.3-0.8-6.6-1.8-10-2.6c-1.1-0.3-1.5-0.9-1.4-2c0.6-8.6,0.7-17.2,1.2-25.8c0.6-6.8,1.1-13.5,1.2-20.3c0.8-3.1-3.3-2.6-5.2-3.2
		c-2.8-0.5-5.6-0.9-8.4-1.5c-8.5-1.7-16.9-3.4-25.4-5c-2.2-0.4-2.8-1.2-2.4-3.3c1.3-9.9,2.4-19.8,3.4-29.8c0.1-4.4,3.2-18.2,1-19.1
		c-60.3-1.1-120.8-0.9-181.1-1.5c-9.3,0-18.6-0.1-27.9-0.2c-3.1,0-6.1,0-9.2,0c-1.5,0-2.1,0.6-2.1,2.1c-0.6,38.3-0.3,76.7-1.2,114.9
		c-0.8,113.9-1.5,227.8-3.2,341.6c0,3.7,0,7.5,0,11.2c0,1.5,0.3,1.7,1.8,1.7c14.4,0.1,28.8-0.2,43.2,0.2c2.3,0,2.7-0.3,3.5-2.4
		c0.7-2.2,1.9-4.4,3-6.4c2.4-3.5,4.5-7.2,5.4-11.4c1.1-2.9,0.8-5.6-0.6-8.3c-0.3-0.6-0.9-0.9-1.3-0.2c-1.9,2.4-1.4,6.3-5,6.9
		c-2.7,0.4-4.1,2.9-6,4.5c-2.6,1.8-3-1.7-2.7-3.6c-0.7-19.4-7.4-8.1-8.2-20.1c0.1-4.7-7.2-1.8-11.9-7.4c-1.9-1.7-3.1-3.8-3.4-6.4
		c-0.1-1.4-0.4-2.9-1.8-3.8c-3.2-1.8-11.1-15.1-2.5-13.1c2.2,0.3,5.3-0.3,6.2-2.5c0.9-2.7,2.7-4.8,4.3-7.1c1.9-2.6,5.5-3,7.6-5.4
		c3.7-1.4,7.4-2.7,11.4-2.6c4.1,0.3,8.1,0.5,11.8-1.2c1.8-0.4,3-1.5,3.8-2.9c10.5-15.9,13.2-3.9,25.5-7.5c9.3-4.9,14.8,6.7,23.2,7.8
		c2.5-0.2,3.3,2.3,5,3.6c4.3,2.9,9.4,4.1,14.1,6.3c2.8,2.3,6.3,3.6,9.3,5.7c5.8,4.8,11.5,10,16.7,15.5
		C184.9,435.1,187.4,438,190.8,438.9z M141.6,485.2c7.3,0.8,14.3-13.5,21.1-15.7c0.7-0.2,0.9-0.6,0.6-1.3
		c-3.8-7.3,2.3-10.5,6.3-15.6c0.7-1.9,1.9-3.7,2.4-5.6c0.9-3.4-0.8-11.2,4.1-11.5c5,2.2,3.3,6.9,10.2,9.3c4.2,1.7,9.5,2.4,13.3-0.6
		c3.1-2.5,5.1-8,2.6-11.4c-1.4-1.5-2.9-2.7-3.6-4.8c-0.4-1.3-3.7-1.7-4.1-0.6c-0.4,0.9-0.3,2.1,0,3c1.2,1.6,3.7,0.4,4.8,2.8
		c3.1,6.4-5.4,12.9-11,8.1c-5-2.7-6.7-8.7-11.5-11.9c-4.6-3.8-7.9-9.3-13.9-11.2c-5-1.5-9.7-4.3-14.9-5.4c-4.3-0.7-8.6-1.5-13.1-1.6
		c-4.2-0.3-6.3,3.2-8.9,5.8c-1.7,1.6-2.3,2.5-0.7,5.6c1.6,3.1,1.3,6.7,1.7,10c0.6,4.2,0.3,8.3-0.5,12.4c0,0.8,0.5,1,1.1,0.9
		c4.5,0.3-0.7,8.1-1.2,10.4c-1.5,4,6.6,1.9,8.5,1.5c2.6-0.5,4.7-2.1,6.7-3.6c1.7-1.3,2.9-2.5,2.8-5c-0.2-3.2,0.1-6.5,0.5-9.7
		c0.6-3.3-2.8-4-4.2-6.3c-0.9-1.3-0.2-2.4,1.4-2.2c1.5,0.2,3,0.7,4.4,1.3c3.5,4.1-1.1,15.8,2,21.4c1.4,3.8,9.4,11.9,6.1,15.3
		c-2.6,3-4,6.8-6.9,9.6c-1.8,1.8-3.1,4.2-5.3,5.6C142.2,484.2,142,484.6,141.6,485.2z M125.7,407.8c0-1.9-0.4-5.5,2.5-4
		c2,0.5,3.3-2.7,4.4,0.9c0.9,4.9,4.6,4.5,8.4,3.2c-0.6-1.8-2.7-3.7-4.5-4.2c-5.9-1.1-8.9-7.4-14.9-8.6c-8-0.6-10.5,4-20.7,1
		c-3.9-1.4-5.3,3.1-7.3,5.5c-2,2.6-3.6,5.6-5.8,7.9c-0.7,0.5-0.9,1.1-0.6,1.8c3.1,5.8,3.9,12.6,1.4,18.8c-0.9,2.8-2.6,4.9-5.1,6.6
		c-1.7,2.3-3.5,4.6-5.1,6.9c-2,3.4-4.2-1.5-5.8,1.4c-1.4,3-5.7,2.9-5.7,5.4c0.1,5.5-1.3,9,5.4,4.5c0.1,0.9,0.6,1.8,0.3,2.7
		c0.1,1.7,0.9,3.4,1.1,5c-0.2,2.1,0.4,4,1.3,6c1.6-0.9,1.1-3.8,2.8-4.4c1.1,0.5,1.6-0.2,2.4-1c0.4,0.8,1,1.2,1.7,1.7
		c0.3-0.7,0.8-1.3,0.7-2.1c0-3.5,3-0.4,5.5-5.8c1.1-2.7,2.7,0.5,4.4-0.8c2.3-1.4,2,3,2.3,4.4c0.5,6.5-2,12.5-3.6,18.7
		c-0.2,0.6-0.2,1.6,0.1,1.9c2.8,1.3,3.9,0.8,2.5-2.3c1.6-2.1,3.2,1.1,3.4-1.3c-0.2-1.6,0.1-4.1,2.2-2.6c0.5,0.7,1.1,1.2,2,1.3
		c0.8-1.3-1.8-5.8,1.1-4.7c0.6,0.3,1.2,0.6,1.6,0c0.9-2.8-5.6-7.2,1.4-5.9c-0.1-1.7-1.5-2.9-0.4-4.2c0.7-0.7,1.3-0.3,1.9,0
		c3,1.5,0.1-7.1,4.3-2.5c0.6,0.9,1.5,1,1.9-0.1c1.3-2.3-1-6,1.1-6.2c0.5,0,1,0.5,1.5,0.9c0.3,0.5,0.5,1.1,1.2,1.4c1.8-2.1-3-8.1,0-9
		c1.6,0.2,2.3,2.4,3.3,3.5c0.1,0,0.3-0.1,0.4-0.1c1-2.9-5.6-12.6,1.6-8.6c0.1-0.1,0.3-0.2,0.4-0.2c-0.3-2.4-4.9-9.3,0.6-8
		c1-3.3-3.7-4.2-4.1-6.9c0.2-0.4,0.7-0.7,1.1-0.8c4.2-0.8-3.4-4.5-3.6-6.7c0.6-0.4,1.2-0.7,1.8-1.1c0.8,0,1.5-0.5,1.3-1.4
		c-0.9-3.5-2.5-7.5,3-4.6c0.1-0.1,0.2-0.2,0.3-0.3C121.1,407.3,122,405.6,125.7,407.8z M125.4,494.5
		C125.4,494.5,125.4,494.4,125.4,494.5c1.2-0.1,2.4-0.2,3.6-0.1c3.2,0.3,3-5.4,5.2-7c2.8-2.7,6.1-4.9,9-7.4
		c3.6-3.8,6.8-8.3,9.3-12.9c1.2-2.3-4.4-4.7-4.8-8c-0.6-2-1-2-2.8-1.1c-6.3,3.1-13.8,2.7-20.6,3.7c-4.6,1.5-10.9-0.7-13.1,4.8
		c-3.8,7.9-7.8,16.1-16.1,20.1c-2.2,1.1-2.5,3.8-3.5,5.8c-0.6,1.4-0.3,1.7,1.2,1.7C103.6,494.3,114.5,494.1,125.4,494.5z
		 M79.7,431.6c8.2,2.2,3.7-3.1,2.8-7.5c1.2-0.5,3.7,0,3-2c-0.5-1.7-4-3.6-1.5-5.1c2.6-1.3-4.3-3.4-2.6-5.9c0.8-1.6-2-1.3-2.8-2.1
		c-2.5-1.4-5.4-0.4-8.1-0.5c-6.4,0.8-13.9,3.5-16.7,9.9c-1.9,6.5-4.4,14-2.2,20.6c8.2,13.9,12-0.5,15.2,3.8c1.9,1.5,4.3-0.8,5-2.5
		c0.4-0.7,0.8-0.7,1.5-0.5c1.1,0.2,2.6,1.4,3.5,0.3c0.8-1.6,0.6-3.3,0.5-5c-0.1-1.9-3.1-1.6-4.3-2.7c-2.4-1.7-3.3,1.1-5,2.3
		c-3.7,3.1-8.8,3.3-13,1.1c-2.5-1.4-2.5-5.1-1.2-7.4c4.6,6.9,3.6-0.1,6,2.2c0.4,0.9,1.2,1.4,1.9,1.2c0.7-1.5,1.8-1.4,3.1-0.7
		c2-4.3,1.4-1.3,4.1-2.8c0.9-1.2,2.5-2,2.8-3.6c1-3.9,1.9-7.8,1-11.8c-0.2-1,0.2-3.1,1.6-2.8c3,1.5,4,5,5.1,7.9
		C80.9,422.5,80.5,427,79.7,431.6z M166,466.5c1.6,2.5,1.4,6.3-2.9,6.2c-1,0-1.8,0.3-2.4,1c-2.3,3.3-5.9,5-8.4,8.1
		c-1.7,2.1-3.4,4.2-6,5.5c-2.3,1.1-3.7,3.5-5,5.6c-1.2,3.1,2.8,2.3,4.5,2.2c2.4,0,4.7,0.2,7.1,0.2c2,0,3.9-0.2,5.9-0.2
		c2.2-0.5,8.2,1.6,8.7-1.2c3.1-5,6.6-9.1,3.1-15.1c-1.5-2.3-1.3-4.9-0.5-7.4C170.7,469.2,168.9,466.5,166,466.5z M176.3,487.2
		c-0.2-2.1-0.7-4.3-0.3-6.3c1.1-2.8,0.6-5.7,1.5-8.5c0.4-1.6,3.4-7,0.6-7.3c-0.9,0.1-0.6,0.7-0.4,1.3c1.2,3.9-4.6,3.6-4.1,0.4
		c0.4-2.4-1.1-4.1-1.3-6.4c-0.4-1.2-0.5-4.7-2.5-3.2c-1.8,1.7-6.3,5-2.1,6.8c8.6,4,2.7,6.5,4.6,12.8c0.6,1.6,1.2,3.2,1.6,4.8
		c1.2,3.8,0.3,4.8-0.8,8.2c-0.2,0.8-0.1,1.4,0.7,1.7C176.5,492.1,176,488.7,176.3,487.2z M75.5,417c0,3.7-1.8,6.7-2.4,10.2
		c-0.5,2.6,2.7,3.4,3.9,1.7C78,426.6,79.3,416.8,75.5,417z M88.2,483.8c-2.4,1.1-3.2,3.3-4.7,5.3c-0.5,0.7-0.4,1.7,0.5,1.8
		c3.7,0.9,5.8-1.5,7.2-4.5C91.3,484.9,89.3,484.6,88.2,483.8z M48.5,429.4L48.5,429.4c0-1.4-0.7-3.3-2.4-2.8
		c-2.2,0.8,0.5,4.1,1.7,4.8C48,430.8,48.5,430.2,48.5,429.4z M87.1,159.3c0.2,22.5,0,45.3-0.8,67.8c-0.1,6.5-7.4,2.7-7.2,6.2
		c0.2,1.1,1.1,1.1,1.9,1.1c3.7,0,7.3,0,11,0c6.6,0,13.3,0.1,20,0c0.4,0,1.2-0.6,1.2-0.9c-0.7-3.4-6.1-0.1-7.1-5.5
		c-1.3-14-0.2-28.1-0.5-42.1c0.6-12.2-0.1-24.5,1-36.7c0.2-4.3,4-3.8,7.2-4.5c2.5-1,4.9,0.6,7.5,0.6c5.7,0.9,3.3,14.6,3.8,19.1
		c0.1,18.8-0.3,37.6-0.5,56.3c-0.4,6,0.7,11.1-7.1,11.4c-0.9,0.1-1.5,0.3-1.5,1.3s0.8,1.3,1.7,1.3c11.2,0,22.3,0,33.5,0
		c0.4,0,1.2-0.6,1.2-0.8c-0.8-3.6-7,0-7.9-5.3c-1.7-6.4-0.6-13.1-0.7-19.6c0-6.5,0-12.9,0-19.4c0-0.8,0.3-1.8,1.1-1.7
		c6.4,0.2,8.4,6.8,9.5,12c0.8,2.7,0.9,5.4,0.9,8.2c-0.2,0.7,0.3,1.3,0.9,1.5c1,0,1.2-1.4,1.2-2.2c0.1-10.9,0.2-21.8,0.3-32.7
		c-0.4-3.3,1.3-8.3-0.9-10.8c-1.9,1.7-1,4.4-1.5,6.6c-1.1,5.6-2.3,14.7-9.6,14.8c-3.3,0.4-1.1-6.7-1.6-8.8
		c-0.1-9.8,0.4-19.5,0.3-29.3c0-0.9,0.1-1.8,1.4-1.7c1.7,0.1,3.4,0,5.1,0.3c4.2,0.8,7,3.3,8.5,7.4c3.9,5.9,6.5,12.5,8.2,19.4
		c8,34.3,4-21.3,4.9-28.1c0-1.1-0.4-1.5-1.5-1.4c-2.5,0.1-4.9,0-7.4,0c-2.6,0.1-2.1-3.2-2.5-5c0.3-5.2-2.4-18.7,1-21.9
		c3.5,1.2,4.8,6.3,8.5,7.6c1.7,0.5,3.3-1.4,5-0.6c6.7,0.8,11.5-5.4,17.9-6.1c4.5-1.9-5.7-4.8-7.2-5.7c3.8-4.7,9.1-7.8,13.7-11.7
		c1.1-0.9,1-1.8-0.2-2.4c-0.8-0.4-0.8-0.8-0.4-1.5c1.9-3.8,3.5-7.6,5.5-11.3c1.1-2,1.2-2-0.9-2.5c-2.1-0.4,0-2.5,0.2-3.7
		c0.9-1.6,1.7-4.6-0.5-5.5c-3.9-0.1-7.8-0.2-11.7,0.7c-11.6,1.3-7.2,1.7-6.9-7.6c-0.1-0.8-0.2-1.4-1.2-1.4c-4.7,1.5,2.5-19-2.2-15.4
		c-1.4,0.7-4.5,6.2-5.6,3.3c-1.6-4.2-3.5-8.3-5.6-12.3c-1.4-1.5-2.1,1.3-3-1.1c-0.9-3.6-3-6.6-5-9.7c-0.9-1.4-0.9-3.3-2.4-4.2
		c-1.3,2.1-0.6,4.7-1.9,6.9c-0.8,1.4-1.2,3-1.7,4.5c-0.9,1.4-0.8,7.5-3.3,5.9c-1.1-0.3-3.1-3-3.6-0.9c-2.8,11.7,1.1,14.1-9,9.6
		c-0.8-0.3-1.3,0-1.3,0.8c-0.4,3.4-0.3,6.8-0.8,10.2c-1.1,3.5-0.3,6.8,0.1,10.3c0,1.2-0.4,1.4-1.6,1.1c-2.4-0.6-4.9-1.1-7.3-1.7
		c-2.4-0.6-5-0.1-7.2-1.4c-0.6-0.4-1.3-0.7-2-0.8c-0.9-0.2-2-0.6-2.6,0.6c-1.6,1.4-5.1,0.5-7.2,0.9c-1,0.3-0.6,1.4-0.1,2.1
		c3.2,5.4,4.1,11.4,5.9,17.5c-0.7,0.8-3,1.2-2.2,2.6c2.5,5,5.9,9.5,9.8,13.5c2.4,2.1-2.3,3.7-3.1,5.6c-1.8,3.9,1.9,3.5,4.6,4
		c3.3,0.9,6.6,2,10,3c8.5,2,10.5,2.7,18-2.4c1.6-0.9,2.6-0.8,2.7,1.4c0.2,3.9,0.3,7.8,0.5,11.6c0.2,3.6,0.3,7.2,0.5,10.8
		c0.1,1.8-0.4,2.4-2.2,2.4c-7.8-0.3-15.7-0.2-23.5-0.2c-4.3,0-8.6-0.3-12.9-0.3c-0.7,0-1.5,0.9-2.2,0.8c-2.4-1.6-5.4-0.5-8.2-0.6
		c-5.9-0.3-11.9,0.2-17.9-0.2c-2.5,0-1.7,4.3-2.5,6c-0.8,3.7-1.7,7.5-2.5,11.2c-2.7,11.3-4.3,23-7.8,34c-2.3-2.5-2-6.9-3.1-10.1
		c-1.2-6.1-2.5-12.1-3.9-18.2c-1-4.4-1.9-8.9-2.9-13.3c-0.9-2.4-1.1-8.7-3.1-9.8c-8.4-0.3-16.9,0.2-25.3-0.1c-1.9-0.6-2,2.2-0.2,2.2
		c2.3,0.2,5.1,0.4,6.3,2.6c2.5,4,1.9,8.7,1.7,13.1c-0.3,11.6-0.4,23.1-0.5,34.7c0,8-0.1,16.1,0,24.1c-0.5,7.5,0.4,12.5-8.8,12.9
		c-1,0.3-1.7,2.3,0.1,2.3c3.2-0.2,6.4,0.1,9.6,0.2c3.1,0,6.2,0.1,9.3,0c1.9-0.2,2.2-2.3,0.3-2.7c-2.5-0.4-5.6,0.1-6.9-2.7
		c-2.1-4.9-1.3-10.3-1.2-15.5c0.6-17.5-0.3-35.1,0.6-52.6c0.2,0,0.3,0,0.5,0c4.9,19.1,8.7,38.5,13.3,57.8c0.9,4.1,1.9,8.3,2.7,12.4
		c0.7,3.3,0.8,3.4,4.1,3.4c1.5,0,2-0.3,2.3-1.8c1.4-7.2,2.8-14.4,4.3-21.6c3.7-17.2,7.2-34.4,10.9-51.5
		C86.7,159.3,86.9,159.3,87.1,159.3z M232.9,149.4c5.8,20.6,8.6,42,13.4,62.8c0.9,4.5,1.8,9,2.7,13.5c0.8,2,0.9,10.6,3.3,10.3
		c2.3-0.1,5.5,0.8,5.8-2.5c2.9-14.3,6.2-28.6,9.7-42.9c1.3-5.6,1.9-11.5,4.1-16.8c0.2,0,0.4,0,0.6,0.1c2.2,13.4,5.3,26.6,7.8,39.9
		c1.4,7.2,2.8,14.3,4.4,21.5c0.1,0.3,0.4,0.7,0.7,0.7c2.2,0,5.8,1.4,6.1-1.7c1.7-6.7,3.2-13.4,4.6-20.2c3.6-14.7,6.5-29.6,10.4-44.3
		c0.9-4.2,1.6-8.5,2.9-12.6c1.2-2.9,1.3-6.9,3.7-9.1c1.3-1.2,6.7-1.8,6.2-3.4c-0.1-1-0.9-1-1.6-1c-3.2,0.2-6.5,0.3-9.7,0
		c-1.7,0.7-8.7-1.2-8.1,1.3c1.6,2.4,8.1,0.1,7.4,7.3c-0.7,9.8-3.8,19.2-5.7,28.8c-1.2,5.4-2.5,10.8-3.8,16.2
		c-0.2,0.7-0.9,0.9-1.3,0.3c-2.2-8.3-3.4-17-5.3-25.4c-1.5-7.3-3-14.5-3.3-22c-0.4-3.6,2.4-4,5-4.3c0.9-0.1,1.3-0.6,1.2-1.5
		c-0.3-1.8-2.4-0.8-3.6-0.8c-6.5,0-13,0-19.5,0c-1.7,0.4-12.3-1.7-9.4,1.9c4.6,1,5.3,3.7,6.3,7.8c0.9,3.5,1.7,7,2.4,10.5
		c1.5,6.7-2.2,13.3-3.2,19.9c-1.3,4.5-1.6,9.3-3.6,13.6c-0.1,0-0.2,0-0.3-0.1c-3-9.1-4-18.8-6.1-28.2c-1.2-6.2-2.9-12.4-3.3-18.7
		c-0.4-3.2,1.8-4.2,4.4-4.7c1.5,0,1.4-2.5-0.1-2.3c-10.3-0.5-21.1,1.2-31.2-0.9c-0.9-0.3-1.6-0.1-1.8,0.9c-0.7,2.2-0.3,10.4-4.3,8.4
		c-4.4-3.6-7.5-8.8-13.6-9.7c-11.8-2.5-21.9,6.3-26.5,16.4c-10.3,21.1-9.7,58.8,10.2,74.3c8.8,6.1,23.2,5.1,28.8-4.8
		c4.8-7.2,6.7-15.7,7.7-24.2c0.2-1,0.1-2-0.7-2.7c-2,1.4-2,9.9-3.2,12.8c-1.1,4-2.5,7.8-4.7,11.3c-7.4,10.8-16.9,5.3-19.5-5.8
		c-4.2-14.9-4.5-30.6-3.2-45.9c1.4-8.1,1.5-16.8,6.2-23.9c6.5-9.4,15.5,1.5,17.3,8.8c2.1,7.2,3.5,14.7,5.1,22c0.2,0.9,0.4,2,1.4,1.9
		s1-1.3,1-2.1c0.3-11.5-0.3-23,0.5-34.4C230.8,145.4,232,146.8,232.9,149.4z M143,338.6c-2.6-5.7-3.3-12.8-8.1-17.2
		c-2.4-1.8-6.6-1.2-8,1.1c-1.3,2.2-1.9,4.6-2,7.2c-0.1,11.6-0.1,23.2-0.1,34.8c0.1,2.4,0.1,4.7-0.1,7.1c0,0.8,0.4,1.3,1.2,1.3
		c2.1-0.3,10,1,10.7-1c0.4-5.3,0.2-10.7,0.3-16c0-0.3,0.3-0.7,0.5-1c4.2,5.7,5,24.8,16.1,17.5c4-4.3,2.6-10.6,3-16
		c0-9.9,0-19.8,0-29.7c-0.1-1.6,0.9-4.1-0.6-5.1c-3.3-0.2-6.6,0-9.9-0.3c-3.7,0.2,0.2,15.6-2.2,18.6
		C143.4,339.3,143.1,339,143,338.6z M120.4,270.4c-3.8-5.8-3.4-14.6-9.4-18.8c-2.7-1.4-5.6-0.6-7.2,1.5c-1.4,1.8-2,4.1-2.1,6.5
		c-0.1,13.7-0.3,27.5-0.4,41.2c0,2.4,0.4,2.4,2.3,2.3c2.5-0.1,4.9-0.1,7.4,0c2.2,0.1,2.4,0,2.4-2.3c0-4.4,0-8.7,0-13.1
		c0-0.9,0-1.9,1.1-2.6c2.9,5.2,4.4,20,12,19.1c2.2-0.2,4.4-1.2,5.1-3.5c2.7-8.6,0.9-17.9,1.4-26.8c0.1-6.6,0.3-13.3,0.2-19.9
		c0-1.9-0.2-2-2.1-2c-15.3,0.8-7.9-4-10.4,18.5C120.7,270.3,120.6,270.3,120.4,270.4z M50.2,295.4c0.4,1.6-1.1,7.4,1.4,7.1
		c5.3-0.1,9.7-3.7,12.3-8.1c7.8-13,6.6-36-9.4-42.1c-3.8-1.1-8-1-12-0.8c-1.8,0.3-5.8-1.5-5.6,1.6c0.3,13.6-0.2,27.1,0,40.7
		c0.4,2-1.7,9.1,1.4,8.7c2.9-0.1,5.7,0,8.6,0c1.5,0,1.9-0.4,2-2c0.1-8.1-0.4-16.1,0.2-24.2c0.1-2.9,0-5.7,0.1-8.6
		c-0.2-2.3,2.7-1.2,3.7-0.3c2.1,2,3.4,4.5,3.4,7.5c0,4.6,0.2,10.2-4.6,12.6c-2.3,1.6-1.1,5.6-1.6,8
		C50.1,295.4,50.2,295.4,50.2,295.4z M120,338.5c0-7.2-3.8-15.6-11.2-18c-5.2-1.3-10.5,0.6-13.6,4.9c-7.7,9.3-3.4,32.7-4.6,45.3
		c0,1.4,0.5,1.9,1.9,1.9c2.8,0,5.6,0,8.5,0c3.4,0.2,1.2-5.2,1.6-7.3c0.4-6.8,0.1-13.6,0.3-20.4c0.2-2.9,0.3-5.7,0.5-8.6
		c0.1-1,0.9-1.3,1.8-1.3c1,0,1.9,0.1,2.1,1.2c0.1,2.1,2.5,7.3-1.1,7.4c-1.4,0-1.9,0.5-1.9,1.7c0,3.3,0,6.6,0,9.9
		c0,0.8,0.4,1.3,1.3,1.3c1.8,0,2.3,0.6,2.3,2.4c-0.2,3.9-0.3,7.7-0.2,11.6c0,2,0,2,1.9,2c3.1-0.1,6.2,0.1,9.2,0
		c1.8-0.6,0.4-9.9,0.9-12.1C120,353.2,120.1,345.8,120,338.5z M190.6,272.8c1.3-11.8-8.4-27.7-21.3-19.3c-4.7,3.1-6.8,9.1-7.5,14.4
		c-0.4,11.1-0.1,22.2-0.5,33.3c-0.6,3.7,7.7,1.6,10.1,2.1c1.7,0,2.1-0.4,2.1-2.1c0-6.1,0-12.3,0-18.4c0-2.5,0.2-4.9,0.2-7.4
		c0.5-2.7-1.5-8.5,2-9.3c3.3-0.4,3,4.2,3.1,6.5c0,1.5-0.5,1.8-2,1.8c-1.1,0-1.6,0.5-1.6,1.6c0,2.6,0,5.1,0,7.7
		c-0.2,1.8-0.7,3.7,1.8,3.6c3.6-0.6,1,11.9,1.4,14.5c0,0.7,0.3,1.4,1.2,1.5c2.3-0.3,9.7,1.2,10.7-0.7
		C191.1,292.9,190.3,282.7,190.6,272.8z M35.9,347.4c0,7.8,0,15.5,0,23.3c0,1.1,0.4,1.5,1.5,1.5c3,0,6-0.1,8.9,0
		c1.1,0,1.6-0.4,1.6-1.5c0.1-11.4-0.1-22.8,0.5-34.2c3-5.2,8.1,3.5,2,6c-1.9,1.1-0.8,10.2-1.2,12.8c0,0.9,0.4,1.6,1.5,1.5
		c10,0.1,13.8-10.6,13.7-19c0-13.2-13.6-25.1-24-12.8c-4.7,6.5-4.4,14.9-4.3,22.6C36.1,347.4,36,347.4,35.9,347.4z M97.5,272.2
		c0-1.7-0.1-1.8-1.9-1.8c-2.9-0.5-13.9,2-7.9-3.5c3.1-3.3,9.5-0.1,9.7-2.3c0.3-3.6,0.2-7.2,0.3-10.8c0.1-1.4-0.4-2.1-1.9-2
		c-5.8-0.4-11.4,0.4-15.9,4.4c-11.3,9.4-10.8,35.5,1.7,43.6c4,3.3,9.2,3.3,14,3.1c0.7,0,1.5-0.3,1.5-1.2c0.1-3.8,0.2-7.5,0.2-11.3
		c0.1-3.6-8.7,0.8-11.2-5c-0.6-1.2-0.2-1.8,1.1-1.8C101.2,283.6,96.8,284.9,97.5,272.2z M153.9,274.5c0.5-1.9-1.3-8.1,1.6-7.9
		c1.6-0.3,5.2,1.1,5-1.6c-0.1-3.7,0-7.5,0.2-11.2c0-1.5-0.3-1.8-1.8-1.8c-7.1,0.4-14.2-0.1-21.3-0.2c-2,0.4-1.3,2.9-1.4,4.4
		c0,2.9,0,5.8,0,8.8c0,1,0.3,1.5,1.4,1.4c1.7,0.1,4.8-0.7,4.7,1.9c0.1,4.1-0.1,8.1-0.2,12.2c0,7,0,14-0.2,21c0,1.2,0.4,1.7,1.6,1.7
		c3.1,0,6.2,0.1,9.3,0c1.3-0.3,1.1-1.8,1-2.9c0.4-8.6-0.1-17.1,0-25.7C153.7,274.5,153.8,274.5,153.9,274.5z M66.9,333.6
		c0,5.2,0,10.4,0,15.6c0.2,5.6-0.7,11.6,1.7,16.8c3,7.8,12,6.5,18.8,6.6c0.8,0,1.4-0.5,1.4-1.5c0-4,0-8-0.1-12
		c-0.7-2.2-4-1.3-5.8-1.6c-5,0.3-4-5.4-3.8-8.8c0-6.4,0-12.8,0-19.1c0.2-12,0.9-8.4-10.2-8.9c-1.6,0-1.7,0.2-1.7,1.9
		c0,3.7,0,7.3,0,11C67,333.6,67,333.6,66.9,333.6z M217.3,290c0.1-3.5-8.5,0.4-9.5-3.5c-0.8-5.6,0.1-11.3-0.2-17
		c0.1-5-0.2-10,0.2-15c0.4-3.3-3.4-2-5.4-2.1c-1.8,0-3.5-0.2-5.3-0.2c-2.4-0.1-1.3,2.9-1.6,4.3c0,7-0.4,13.9,0,20.9
		c-0.3,9.3-2,25,10.7,26.2C221.5,304.2,216.3,305.2,217.3,290z M156.4,439.5c-0.4-1.5-0.6-3.2-1.2-4.6c-1.1-2-2.6,0.7-1.9,2
		c1.1,3.3-1.3,6.4-1.8,9.6c-0.2,0.9-0.4,2.3,0,2.9c1,1.1,3.3,4.1,4.9,3.4c0.9-0.9,0.5-2.2,0.2-3.3c-0.2-3.3-0.4-6.7-0.5-10
		C156.1,439.5,156.2,439.5,156.4,439.5z M168.3,439.7c-2.2-0.1-1.2,2.9-1.8,4.2c-1.4,2.9-2.9,5.7-4.3,8.5c-0.5,1.6-2.7,3.4-1.3,5.1
		c0.1,0.1,1,0,1.2-0.3C163.7,455.5,173.2,439.8,168.3,439.7z M110,440.6c-1.2-0.6-3.9-2-3.6,0.5c0.4,1.8,2.2,4.7-0.9,4.7
		c-1.3,0.1-2.6,1.1-2.8,2.5c0,2.1-1.8,7.7-0.3,9c3.5,0.1,5.8-7.4,8.6-9.4c2.5-2,4.1-4.8,4-8.1c1.8-9.9-7.7-14.7-2.5-21.1
		c2.7-4.6,0.4-9.6-1.5-14c-1-2.8-4-1.4-6-0.8c-1.1,0.5-0.5,1.8,0.4,2c1.3,0.1,2.7,1.2,2.7,2.5c-0.4,0.3-2,0.6-2.2,1.1
		c-0.2,1.5,1.3,2.5,2.1,3.7c0.4,1.2,0.1,1.6-1.2,1.7c-1.5,0.4-2.3,0.3-1.4,2.2c4.5,5.7-6.6-0.1,2.3,8.3c0.6,0.8,0.2,1.4-0.6,1.5
		c-4.8,1.3,2.9,4.2,2.8,6.3c-0.4,0.1-0.7,0.2-1.1,0.2c-0.5-0.3-1.6-0.3-1.9,0c-0.4,2.2,3.2,4.4,3.5,7.1
		C110.3,440.5,110.2,440.5,110,440.6z M86,443.7c-0.4,1.3-0.3,2.7-1.3,3.8c-1.8-0.8-1.8-3.9-3.9-4c-0.4,0.2-0.7,0.8-0.8,1.3
		c0.3,1.3,0.9,4.3-1.5,3.5c-1.7-0.3-1.3,1.7-0.5,2.6c2.2,3.5-1.5,2.6-2.5,4.5c-0.3,1.3,0.3,2.5,1.2,3.3c1.3,0.8,3.2-0.3,4-1.5
		c2.3-2.9,6.6-2.8,9.8-4.5c1.2-0.8,2.3,0.8,3.3,0.7c1.8-1.8,1.3-4.7,2-7c0.3-2,0.7-4,1-5.9s0.7-2.4,2.5-2.5c2.1-0.1,1-2.6-0.2-3.2
		c-0.9-0.5-1.3-1-1.4-2.1c-0.1-4.8-5.9-2.8-4.4-0.4c1.6,0.9,1.4,10.6-1.3,8.3c-2.9-2.1-1.8,3.3-3.2,4.4c-0.8-0.8-1.1-1.5-1.8-2.7
		C86.5,442.9,86.1,443.3,86,443.7z"/>
</g>
<path class="st2" d="M539.2,371.2c6.2-5.2,19-0.2,19.4-3.6c0.6-5.7,0.4-11.4,0.6-17c0.2-2.2-0.8-3.3-3.8-3.2
	c-11.6-0.6-22.8,0.6-31.8,6.9c-22.6,14.8-21.6,56,3.4,68.8c8,5.2,18.4,5.2,28,4.9c1.4,0,3-0.5,3-1.9c0.2-6,0.4-11.8,0.4-17.8
	c0.2-5.7-17.4,1.3-22.4-7.9c-1.2-1.9-0.4-2.8,2.2-2.8c28,0,19.2,2.1,20.6-18c0-2.7-0.2-2.8-3.8-2.8
	C549.2,375.9,527.2,379.9,539.2,371.2z"/>
<path class="st2" d="M440.3,427.4c5.8-0.2,11.4,0,17.2,0c3,0,3.8-0.6,4-3.2c0.2-12.8-0.8-25.4,0.4-38.2c0.2-4.6,0-9,0.2-13.6
	c-0.4-3.6,5.4-1.9,7.4-0.5c4.2,3.2,6.8,7.1,6.8,11.8c0,7.3,0.4,16.1-9.2,19.9c-4.6,2.5-2.2,8.8-3.2,12.6c0-0.2,0.2-0.2,0.2-0.2
	c0.8,2.5-2.2,11.7,2.8,11.2c10.6-0.2,19.4-5.8,24.6-12.8c15.6-20.5,13.2-56.8-18.8-66.5c-7.6-1.7-16-1.6-24-1.3
	c-3.6,0.5-11.6-2.4-11.2,2.5c0.6,21.5-0.4,42.8,0,64.2C438.2,416.8,434,428,440.3,427.4z"/>
<path class="st1" d="M437.8,311.3c7.5-0.4,15,0.2,22.5,0.4c7.3,0,14.5,0.2,21.8,0c4.5-0.4,5.2-5.1,0.7-6c-5.9-0.9-13.1,0.2-16.2-6
	c-4.9-11-3-23-2.8-34.6c1.4-39.1-0.7-78.5,1.4-117.6h1.2c11.5,42.7,20.4,86.1,31.2,129.2c2.1,9.2,4.4,18.6,6.3,27.7
	c1.6,7.4,1.9,7.6,9.6,7.6c3.5,0,4.7-0.7,5.4-4c3.3-16.1,6.6-32.2,10.1-48.3c8.2-36.4,16-72.8,24.2-109c0.4,48-0.1,96.6-1.9,144.5
	c-0.2,14.5-17.3,6-16.9,13.9c0.5,2.5,2.6,2.5,4.4,2.5h25.8c15.5,0,31.2,0.2,46.8,0c0.9,0,2.8-1.3,2.8-2c-1.6-7.6-14.3-0.2-16.6-12.3
	c-3-31.3-0.5-62.8-1.2-94.1c1.4-27.3-0.2-54.8,2.3-82c0.5-9.6,9.4-8.5,16.9-10.1c5.9-2.2,11.5,1.3,17.6,1.3
	c13.4,2,7.7,32.6,8.9,42.7c0.2,42-0.7,84-1.2,125.8c-0.9,13.4,1.6,24.8-16.6,25.5c-2.1,0.2-3.5,0.7-3.5,2.9c0,2.2,1.9,2.9,4,2.9
	h78.5c0.9,0,2.8-1.3,2.8-1.8c-1.9-8-16.4,0-18.5-11.8c-4-14.3-1.4-29.3-1.6-43.8v-43.4c0-1.8,0.7-4,2.6-3.8
	c15,0.4,19.7,15.2,22.3,26.8c1.9,6,2.1,12.1,2.1,18.3c-0.5,1.6,0.7,2.9,2.1,3.4c2.3,0,2.8-3.1,2.8-4.9c0.2-24.4,0.5-48.7,0.7-73.1
	c-0.9-7.4,3-18.6-2.1-24.1c-4.4,3.8-2.3,9.8-3.5,14.8c-2.6,12.5-5.4,32.9-22.5,33.1c-7.7,0.9-2.6-15-3.7-19.7
	c-0.2-21.9,0.9-43.6,0.7-65.5c0-2,0.2-4,3.3-3.8c4,0.2,8,0,11.9,0.7c9.8,1.8,16.4,7.4,19.9,16.5c9.1,13.2,15.2,27.9,19.2,43.4
	c18.7,76.7,9.4-47.6,11.5-62.8c0-2.5-0.9-3.4-3.5-3.1c-5.9,0.2-11.5,0-17.3,0c-1.5,0.1-2.5-0.3-3.3-1c-4.1,0-8.1-0.1-12.2-0.2
	c-0.7,1-2.1,1.5-4.5,1.5c-18.3-0.7-36.8-0.4-55-0.4c-10.1,0-20.1-0.7-30.2-0.7c-1.6,0-3.5,2-5.2,1.8c-5.6-3.6-12.6-1.1-19.2-1.3
	c-13.8-0.7-27.9,0.4-41.9-0.4c-5.9,0-4,9.6-5.9,13.4c-1.9,8.3-4,16.8-5.9,25c-6.3,25.3-10.1,51.4-18.3,76
	c-5.4-5.6-4.7-15.4-7.3-22.6c-2.8-13.6-5.9-27-9.1-40.7c-2.3-9.8-4.5-19.9-6.8-29.7c-2.1-5.4-2.6-19.4-7.3-21.9
	c-19.7-0.7-39.6,0.4-59.3-0.2c-4.4-1.3-4.7,4.9-0.5,4.9c5.4,0.4,11.9,0.9,14.8,5.8c5.9,8.9,4.4,19.4,4,29.3
	c-0.7,25.9-0.9,51.6-1.2,77.6c0,17.9-0.2,36,0,53.9c-1.2,16.8,0.9,27.9-20.6,28.8C435.3,306.8,433.6,311.3,437.8,311.3z
	 M553.1,143.6c0,0.1,0,0.2,0,0.3C552.4,143.6,552.8,143.6,553.1,143.6z"/>
<path class="st2" d="M798.8,407.7c0.2-5.5-17,0.6-19-5.5c-1.6-8.8,0.2-17.8-0.4-26.8c0.2-7.9-0.4-15.8,0.4-23.7
	c0.8-5.2-6.8-3.2-10.8-3.3c-3.6,0-7-0.3-10.6-0.3c-4.8-0.2-2.6,4.6-3.2,6.8c0,11-0.8,21.9,0,33c-0.6,14.7-4,39.5,21.4,41.4
	C807.2,430.1,796.8,431.7,798.8,407.7z"/>
<path class="st2" d="M702.7,350c-9.4,4.9-13.6,14.4-15,22.7c-0.8,17.5-0.2,35-1,52.6c-1.2,5.8,15.4,2.5,20.2,3.3
	c3.4,0,4.2-0.6,4.2-3.3v-29c0-3.9,0.4-7.7,0.4-11.7c1-4.3-3-13.4,4-14.7c6.6-0.6,6,6.6,6.2,10.3c0,2.4-1,2.8-4,2.8
	c-2.2,0-3.2,0.8-3.2,2.5v12.2c-0.4,2.8-1.4,5.8,3.6,5.7c7.2-0.9,2,18.8,2.8,22.9c0,1.1,0.6,2.2,2.4,2.4c4.6-0.5,19.4,1.9,21.4-1.1
	c1.6-15.3,0-31.4,0.6-47C747.9,361.9,728.5,336.8,702.7,350z"/>
<path class="st2" d="M681.8,347.7c-14.2,0.6-28.4-0.2-42.7-0.3c-4,0.6-2.6,4.6-2.8,6.9v13.9c0,1.6,0.6,2.4,2.8,2.2
	c3.4,0.2,9.6-1.1,9.4,3c0.2,6.5-0.2,12.8-0.4,19.3c0,11,0,22.1-0.4,33.1c0,1.9,0.8,2.7,3.2,2.7c6.2,0,12.4,0.2,18.6,0
	c2.6-0.5,2.2-2.8,2-4.6c0.8-13.6-0.2-27,0-40.6c-0.2-0.2,0-0.2,0.2-0.2c1-3-2.6-12.8,3.2-12.5c3.2-0.5,10.4,1.7,10-2.5
	c-0.2-5.8,0-11.8,0.4-17.7C685.4,348.2,684.8,347.7,681.8,347.7z"/>
<path class="st2" d="M848.6,352.3c-9.4,10.3-8.8,23.5-8.6,35.7c0-0.3-0.2-0.3-0.4-0.3v36.8c0,1.7,0.8,2.4,3,2.4c6,0,12-0.2,17.8,0
	c2.2,0,3.2-0.6,3.2-2.4c0.2-18-0.2-36,1-54c6-8.2,16.2,5.5,4,9.5c-3.8,1.7-1.6,16.1-2.4,20.2c0,1.4,0.8,2.5,3,2.4
	c20,0.2,27.6-16.7,27.4-30C896.7,351.7,869.4,332.9,848.6,352.3z"/>
<path class="st1" d="M1096.9,111c-0.2-2.2-2.1-2.2-3.7-2.2c-7.5,0.4-15.2,0.7-22.7,0c-4,1.6-20.4-2.7-19,2.9
	c3.7,5.4,19,0.2,17.3,16.3c-1.6,21.9-8.9,42.9-13.4,64.4c-2.8,12.1-5.9,24.1-8.9,36.2c-0.5,1.6-2.1,2-3,0.7
	c-5.2-18.6-8-38-12.4-56.8c-3.5-16.3-7-32.4-7.7-49.2c-0.9-8,5.6-8.9,11.7-9.6c2.1-0.2,3-1.3,2.8-3.4c-0.7-4-5.6-1.8-8.4-1.8h-45.7
	c-4,0.9-28.8-3.8-22,4.2c10.8,2.2,12.4,8.3,14.8,17.4c2.1,7.8,4,15.6,5.6,23.5c3.5,15-5.2,29.7-7.5,44.5c-3,10.1-3.7,20.8-8.4,30.4
	c-0.2,0-0.5,0-0.7-0.2c-7-20.3-9.4-42-14.3-63c-2.8-13.9-6.8-27.7-7.7-41.8c-0.9-7.2,4.2-9.4,10.3-10.5c3.5,0,3.3-5.6-0.2-5.1
	c-24.1-1.1-49.4,2.7-73.1-2c-2.1-0.7-3.7-0.2-4.2,2c-1.6,4.9-0.7,23.2-10.1,18.8c-10.3-8-17.6-19.7-31.9-21.7
	c-27.6-5.6-51.3,14.1-62.1,36.7c-24.1,47.2-22.7,131.4,23.9,166.1c20.6,13.6,54.3,11.4,67.5-10.7c11.2-16.1,15.7-35.1,18-54.1
	c0.5-2.2,0.2-4.5-1.6-6c-4.7,3.1-4.7,22.1-7.5,28.6c-2.6,8.9-5.9,17.4-11,25.3c-17.3,24.1-39.6,11.8-45.7-13
	c-9.8-33.3-10.5-68.4-7.5-102.6c3.3-18.1,3.5-37.6,14.5-53.4c15.2-21,36.3,3.4,40.5,19.7c4.9,16.1,8.2,32.9,11.9,49.2
	c0.5,2,0.9,4.5,3.3,4.2c2.3-0.2,2.3-2.9,2.3-4.7c0.7-25.7-0.7-51.4,1.2-76.9c7.5-0.7,10.3,2.5,12.4,8.3
	c13.6,46,20.1,93.9,31.4,140.4c2.1,10.1,4.2,20.1,6.3,30.2c1.9,4.5,2.1,23.7,7.7,23c5.4-0.2,12.9,1.8,13.6-5.6
	c6.8-32,14.5-63.9,22.7-95.9c3-12.5,4.5-25.7,9.6-37.6c0.5,0,0.9,0,1.4,0.2c5.2,30,12.4,59.5,18.3,89.2c3.3,16.1,6.6,32,10.3,48.1
	c0.2,0.7,0.9,1.6,1.6,1.6c5.2,0,13.6,3.1,14.3-3.8c4-15,7.5-30,10.8-45.1c8.4-32.9,15.2-66.2,24.4-99c2.1-9.4,3.7-19,6.8-28.2
	c2.8-6.5,3-15.4,8.7-20.3C1085.4,115.9,1098.1,114.6,1096.9,111z"/>
<path class="st2" d="M933.7,403.6c-10,0.5-8-8.5-7.6-13.9v-30.1c0.4-18.9,1.8-13.3-20.4-14c-3.2,0-3.4,0.3-3.4,3v17.4
	c-0.4,0-0.4,0-0.6,0v24.6c0.4,8.8-1.4,18.3,3.4,26.5c6,12.3,24,10.3,37.7,10.4c1.6,0,2.8-0.8,2.8-2.4c0-6.3,0-12.6-0.2-18.9
	C943.9,402.7,937.3,404.1,933.7,403.6z"/>
<path class="st2" d="M1008,373.6c0-11.4-7.6-24.6-22.4-28.4c-10.4-2.1-21,0.9-27.2,7.7c-15.4,14.7-6.8,51.6-9.2,71.5
	c0,2.2,1,3,3.8,3h17c6.8,0.3,2.4-8.2,3.2-11.5c0.8-10.7,0.2-21.5,0.6-32.2c0.4-4.6,0.6-9,1-13.6c0.2-1.6,1.8-2.1,3.6-2.1
	c2,0,3.8,0.2,4.2,1.9c0.2,3.3,5,11.5-2.2,11.7c-2.8,0-3.8,0.8-3.8,2.7V400c0,1.3,0.8,2.1,2.6,2.1c3.6,0,4.6,0.9,4.6,3.8
	c-0.4,6.2-0.6,12.2-0.4,18.3c0,3.2,0,3.2,3.8,3.2c6.2-0.2,12.4,0.2,18.4,0c3.6-0.9,0.8-15.6,1.8-19.1
	C1008,396.8,1008.2,385.2,1008,373.6z"/>
<path class="st2" d="M616.9,430.1c4.4-0.3,8.8-1.9,10.2-5.5c5.4-13.6,1.8-28.3,2.8-42.3c0.2-10.4,0.6-21,0.4-31.4
	c0-3-0.4-3.2-4.2-3.2c-30.6,1.3-15.8-6.3-20.8,29.2c0-0.3-0.2-0.3-0.6-0.2c-7.6-9.2-6.8-23-18.8-29.7c-5.4-2.2-11.2-0.9-14.4,2.4
	c-2.8,2.8-4,6.5-4.2,10.3c-0.2,21.6-0.6,43.4-0.8,65c0,3.8,0.8,3.8,4.6,3.6c5-0.2,9.8-0.2,14.8,0c4.4,0.2,4.8,0,4.8-3.6V404
	c0-1.4,0-3,2.2-4.1C598.7,408.1,601.7,431.5,616.9,430.1z"/>
<path class="st2" d="M1079.9,347c-6.6-0.3-13.2,0-19.8-0.5c-7.4,0.3,0.4,24.6-4.4,29.4c-0.8-0.9-1.4-1.4-1.6-2.1
	c-5.2-9-6.6-20.2-16.2-27.1c-4.8-2.8-13.2-1.9-16,1.7c-2.6,3.5-3.8,7.3-4,11.4c-0.2,18.3-0.2,36.6-0.2,54.9
	c0.2,3.8,0.2,7.4-0.2,11.2c0,1.3,0.8,2.1,2.4,2.1c4.2-0.5,20,1.6,21.4-1.6c0.8-8.4,0.4-16.9,0.6-25.3c0-0.5,0.6-1.1,1-1.6
	c8.4,9,10,39.1,32.2,27.6c8-6.8,5.2-16.7,6-25.3V355C1080.9,352.5,1082.9,348.5,1079.9,347z"/>
</svg>
