<?xml version="1.0" encoding="utf-8"?>
<!-- Generator: Adobe Illustrator 24.2.0, SVG Export Plug-In . SVG Version: 6.00 Build 0)  -->
<svg version="1.1" id="Layer_1" xmlns="http://www.w3.org/2000/svg" xmlns:xlink="http://www.w3.org/1999/xlink" x="0px" y="0px"
	 viewBox="0 0 75.9 76.4" style="enable-background:new 0 0 75.9 76.4;" xml:space="preserve">
<style type="text/css">
	.st0{fill:#FCC612;}
	.st1{fill:#FFFFFF;}
	.st2{fill:#124B8E;}
	.st3{fill:#A17340;}
	.st4{fill:#FECF9A;}
	.st5{fill:#ED3227;}
</style>
<path class="st0" d="M36.8,73c19.7,0,35.6-16,35.6-35.6S56.5,1.7,36.8,1.7S1.2,17.7,1.2,37.4S17.2,73,36.8,73"/>
<path class="st1" d="M57.8,41.8H40.3c-0.6,0-1-0.5-1-1V11.9c0-0.6,0.5-1,1-1h17.5c0.6,0,1,0.5,1,1v28.9
	C58.9,41.3,58.4,41.8,57.8,41.8"/>
<path class="st1" d="M16.6,31.5h17.5c0.6,0,1,0.5,1,1v28.9c0,0.6-0.5,1-1,1H16.6c-0.6,0-1-0.5-1-1V32.5C15.5,31.9,16,31.5,16.6,31.5
	"/>
<path class="st2" d="M57.8,48c-0.6,0-1.1,0.1-1.6,0.2l-8.7-12.5l3.8,15.1c-3.6,3.6-3.7,9.5,0,13.1c3.6,3.6,9.5,3.6,13.1,0
	c3.6-3.6,3.7-9.5,0-13.1C62.7,49,60.3,48,57.8,48"/>
<path class="st3" d="M52.6,10.8l3.1-6.2l13,5.4L64.4,18c-0.3,0.5-0.4,1-0.4,1.5v5c0,1.2-0.7,2.3-1.8,2.8L56.3,30
	c-1.2,0.5-2.6-0.1-3.1-1.3c-0.5-1.1,0-2.4,1-3l4.6-2.9v-11c0-0.6-0.5-1-1-1H52.6z"/>
<path class="st4" d="M21.8,62.4l-3.1,6.2l-13-5.4l4.3-7.9c0.3-0.5,0.4-1,0.4-1.5v-5c0-1.2,0.7-2.3,1.8-2.8l5.9-2.7
	c1.2-0.5,2.6,0.1,3.1,1.3c0.5,1.1,0,2.4-1,3l-4.6,2.9v11c0,0.6,0.5,1,1,1H21.8z"/>
<path class="st5" d="M16.6,25.3c0.5,0,1.1-0.1,1.6-0.2l8.7,12.5l-3.8-15.1c3.6-3.6,3.7-9.5,0-13.1c-3.6-3.6-9.5-3.6-13.1,0
	c-3.6,3.6-3.7,9.5,0,13.1C11.7,24.3,14.1,25.3,16.6,25.3"/>
<polygon class="st1" points="11.4,14.4 15,14.4 15,10.8 18.1,10.8 18.1,14.4 21.7,14.4 21.7,17.5 18.1,17.5 18.1,21.2 15,21.2 
	15,17.5 11.4,17.5 "/>
<path class="st1" d="M58.3,56.2h-1c-0.6,0-1-0.5-1-1c0-0.6,0.5-1,1-1h1c0.6,0,1,0.5,1,1h2.1c0-1.5-1.1-2.8-2.6-3.1v-1h-2.1v1
	c-1.7,0.1-3,1.6-2.8,3.4c0.1,1.7,1.6,3,3.4,2.8h1c0.6,0,1,0.5,1,1s-0.5,1-1,1h-1c-0.6,0-1-0.5-1-1h-2.1c0,1.5,1.1,2.8,2.6,3.1v1h2.1
	v-1c1.7-0.1,3-1.6,2.8-3.4S60.1,56.1,58.3,56.2"/>
<rect x="21.7" y="50" class="st2" width="9.3" height="2.1"/>
<rect x="19.7" y="55.2" class="st2" width="11.3" height="2.1"/>
<rect x="43.4" y="16" class="st5" width="11.3" height="2.1"/>
<rect x="43.4" y="21.2" class="st5" width="9.3" height="2.1"/>
</svg>
