<?xml version="1.0" standalone="no"?>
<!DOCTYPE svg PUBLIC "-//W3C//DTD SVG 20010904//EN"
 "http://www.w3.org/TR/2001/REC-SVG-20010904/DTD/svg10.dtd">
<svg version="1.0" xmlns="http://www.w3.org/2000/svg"
 width="172.000000pt" height="172.000000pt" viewBox="0 0 172.000000 172.000000"
 preserveAspectRatio="xMidYMid meet">
<metadata>
Created by potrace 1.14, written by Peter Selinger 2001-2017
</metadata>
<g transform="translate(0.000000,172.000000) scale(0.100000,-0.100000)"
fill="#000000" stroke="none">
<path d="M836 1628 c-3 -13 -6 -34 -6 -47 0 -20 -3 -22 -12 -13 -21 21 -29 13
-22 -24 6 -34 6 -36 -15 -25 -18 10 -21 9 -21 -6 0 -10 4 -33 9 -51 8 -26 7
-32 -5 -32 -18 0 -13 -22 22 -92 27 -53 28 -58 14 -58 -5 0 -19 18 -30 40 -20
39 -49 63 -73 58 -6 -1 -34 6 -60 17 -33 12 -51 15 -55 8 -5 -8 -22 -8 -52 -3
-25 5 -47 7 -48 5 -8 -7 11 -47 35 -75 22 -27 23 -30 6 -30 -14 -1 -9 -9 21
-35 34 -30 36 -35 18 -35 -62 0 -13 -64 66 -86 31 -9 64 -22 72 -30 12 -12 9
-14 -21 -14 -36 0 -99 -34 -106 -56 -5 -15 29 -24 90 -24 34 0 46 -3 41 -12
-8 -12 83 -7 121 8 19 7 19 7 3 -13 -22 -24 -23 -43 -2 -43 9 0 21 13 27 29
l11 30 44 -26 c33 -20 46 -23 52 -14 5 10 16 10 46 2 58 -16 104 -14 104 4 0
16 -46 65 -61 65 -5 0 -9 5 -9 10 0 6 24 10 53 10 54 0 107 25 79 37 -9 3 -1
18 25 46 36 41 37 42 15 45 -22 3 -20 7 27 57 28 30 51 61 51 71 0 15 -8 16
-64 11 -43 -4 -66 -2 -68 5 -3 7 -14 6 -33 -4 -17 -9 -35 -13 -41 -11 -6 2
-24 -16 -39 -39 -16 -24 -30 -37 -33 -30 -2 7 10 33 27 59 32 48 40 83 19 83
-9 0 -12 15 -10 50 2 27 1 50 -3 50 -3 0 -19 -7 -35 -15 -28 -14 -30 -14 -30
2 0 10 -5 35 -11 56 -10 36 -12 38 -28 23 -23 -21 -28 -20 -35 7 -6 27 -43 77
-56 77 -4 0 -10 -10 -14 -22z"/>
<path d="M375 933 c-11 -2 -37 -9 -57 -14 l-38 -10 0 -348 0 -348 63 14 c84
20 346 12 527 -16 188 -29 327 -36 434 -22 140 19 126 -22 126 371 0 186 -3
341 -7 343 -5 3 -37 -1 -73 -9 -104 -22 -257 -17 -497 16 -203 28 -413 38
-478 23z m89 -205 l36 -42 36 42 c19 23 40 42 45 42 5 0 9 -40 9 -90 0 -83 -1
-90 -20 -90 -17 0 -20 7 -20 40 0 44 -5 48 -32 23 -17 -15 -19 -15 -36 0 -27
25 -32 21 -32 -23 0 -33 -3 -40 -20 -40 -19 0 -20 7 -20 90 0 50 4 90 9 90 5
0 26 -19 45 -42z m306 -44 c22 -48 40 -88 40 -90 0 -2 -11 -4 -25 -4 -14 0
-25 5 -25 10 0 6 -18 10 -39 10 -22 0 -43 -4 -46 -10 -3 -5 -17 -10 -30 -10
l-24 0 41 90 c23 50 47 90 54 90 7 0 31 -39 54 -86z m204 64 c35 -50 8 -108
-51 -108 -29 0 -33 -3 -33 -25 0 -20 -5 -25 -25 -25 -25 0 -25 1 -25 90 l0 90
59 0 c51 0 62 -3 75 -22z m96 -53 l0 -75 35 0 c24 0 35 -5 35 -15 0 -12 -13
-15 -60 -15 l-60 0 0 90 c0 89 0 90 25 90 24 0 25 -2 25 -75z m218 58 c-2 -12
-14 -19 -36 -21 -42 -4 -44 -32 -2 -32 23 0 30 -4 30 -20 0 -16 -7 -20 -30
-20 -23 0 -30 -4 -30 -20 0 -16 7 -20 35 -20 24 0 35 -5 35 -15 0 -12 -13 -15
-60 -15 l-60 0 0 90 0 90 61 0 c52 0 60 -2 57 -17z m-710 -290 l3 -73 34 0
c28 0 35 -4 35 -20 0 -18 -7 -20 -60 -20 l-60 0 0 96 c0 93 1 95 23 92 20 -3
22 -9 25 -75z m220 55 c2 -13 -5 -17 -35 -20 -49 -4 -53 -32 -5 -36 43 -4 43
-30 0 -34 -22 -2 -34 -9 -36 -20 -3 -15 4 -18 37 -18 34 0 41 -3 41 -20 0 -18
-7 -20 -60 -20 l-60 0 0 95 0 96 57 -3 c45 -2 59 -7 61 -20z m178 -70 c44 -91
44 -93 22 -96 -12 -2 -24 1 -26 7 -5 14 -92 15 -92 1 0 -5 -11 -10 -25 -10
-14 0 -25 3 -25 6 0 15 84 184 92 184 5 0 29 -42 54 -92z m184 72 c0 -16 -7
-20 -36 -20 -28 0 -35 -3 -32 -17 2 -12 14 -19 36 -21 43 -4 43 -30 0 -34 -30
-3 -33 -6 -36 -40 -3 -30 -7 -38 -23 -38 -17 0 -19 8 -19 95 l0 95 55 0 c48 0
55 -2 55 -20z"/>
<path d="M707 685 c-12 -30 -7 -45 13 -45 23 0 24 6 6 39 -11 20 -14 21 -19 6z"/>
<path d="M890 700 c0 -23 5 -30 19 -30 10 0 24 6 30 14 17 20 3 46 -25 46 -20
0 -24 -5 -24 -30z"/>
<path d="M910 441 c-14 -27 -9 -34 18 -29 19 3 19 5 8 27 l-13 24 -13 -22z"/>
</g>
</svg>
