<?xml version="1.0" encoding="utf-8"?>
<!-- Generator: Adobe Illustrator 24.2.0, SVG Export Plug-In . SVG Version: 6.00 Build 0)  -->
<svg version="1.1" id="Layer_1" xmlns="http://www.w3.org/2000/svg" xmlns:xlink="http://www.w3.org/1999/xlink" x="0px" y="0px"
	 viewBox="0 0 38.5 39.1" style="enable-background:new 0 0 38.5 39.1;" xml:space="preserve">
<style type="text/css">
	.st0{fill:#FCC611;}
	.st1{fill:#114C8D;}
	.st2{fill:#478ECC;}
	.st3{fill:#FFFFFF;}
</style>
<g>
	<path class="st0" d="M18.7,34.8c8.7,0,15.8-7.1,15.8-15.8c0-8.7-7.1-15.8-15.8-15.8S2.8,10.2,2.8,19C2.8,27.7,9.9,34.8,18.7,34.8"
		/>
</g>
<path class="st1" d="M27.3,19.4c0.7-1.3,1-2.8,1-4.3c0-5.3-4.3-9.5-9.5-9.5c-5.3,0-9.5,4.3-9.5,9.5v0.3l-2.7,5.1
	c-0.1,0.1-0.1,0.2,0,0.3c0,0.1,0.1,0.2,0.2,0.2l2.5,1.1v5.3c0,0.2,0.2,0.4,0.4,0.4h5.2l0.7,2.9c0,0.2,0.2,0.3,0.4,0.3h10.7
	c0.1,0,0.2-0.1,0.3-0.2c0.1-0.1,0.1-0.2,0.1-0.4l-2.4-8C25.8,21.7,26.7,20.6,27.3,19.4"/>
<path class="st2" d="M19,9.2c3.4,0,6.2,2.8,6.2,6.2s-2.8,6.2-6.2,6.2c-3.4,0-6.2-2.8-6.2-6.2S15.5,9.2,19,9.2"/>
<path class="st3" d="M19,11.7c0.4,0,0.8,0.4,0.8,0.8s-0.3,0.8-0.8,0.8c-0.4,0-0.8-0.3-0.8-0.8S18.5,11.7,19,11.7"/>
<path class="st3" d="M19,19.1c-0.3,0-0.6-0.3-0.6-0.6v-3.1c-0.3,0-0.6-0.3-0.6-0.6c0-0.3,0.3-0.6,0.6-0.6H19c0.3,0,0.6,0.3,0.6,0.6
	v3.7C19.6,18.8,19.3,19.1,19,19.1"/>
<path class="st3" d="M19.6,19.1h-1.2c-0.3,0-0.6-0.3-0.6-0.6c0-0.3,0.3-0.6,0.6-0.6h1.2c0.3,0,0.6,0.3,0.6,0.6
	C20.2,18.8,19.9,19.1,19.6,19.1"/>
</svg>
