<?xml version="1.0" encoding="utf-8"?>
<!-- Generator: Adobe Illustrator 24.2.0, SVG Export Plug-In . SVG Version: 6.00 Build 0)  -->
<svg version="1.1" id="Layer_1" xmlns="http://www.w3.org/2000/svg" xmlns:xlink="http://www.w3.org/1999/xlink" x="0px" y="0px"
	 viewBox="0 0 38.5 39.1" style="enable-background:new 0 0 38.5 39.1;" xml:space="preserve">
<style type="text/css">
	.st0{fill:#FCC611;}
	.st1{fill:#ACABB0;}
	.st2{fill:#478ECC;}
	.st3{fill:#898790;}
	.st4{fill:#787680;}
	.st5{fill:#D8D7D9;}
	.st6{fill:#2580C3;}
</style>
<g>
	<path class="st0" d="M19.3,35.4c8.7,0,15.8-7.1,15.8-15.8S28,3.7,19.3,3.7S3.4,10.8,3.4,19.5S10.5,35.4,19.3,35.4"/>
</g>
<path class="st1" d="M5.9,21.5h26.6v3.1c0,0.6-0.5,1-1,1H7c-0.6,0-1-0.5-1-1V21.5z"/>
<path class="st2" d="M32.6,7.2v14.3H5.9V7.2c0-0.6,0.5-1,1-1h24.6C32.1,6.2,32.6,6.7,32.6,7.2"/>
<rect x="15.7" y="25.6" class="st3" width="7.2" height="4.1"/>
<path class="st4" d="M13.1,30.2v1c0,0.3,0.2,0.5,0.5,0.5h11.3c0.3,0,0.5-0.2,0.5-0.5v-1c0-0.3-0.2-0.5-0.5-0.5H13.6
	C13.3,29.7,13.1,30,13.1,30.2"/>
<rect x="15.7" y="25.6" class="st4" width="7.2" height="1"/>
<path class="st5" d="M9,23.6c0,0.3-0.2,0.5-0.5,0.5c-0.3,0-0.5-0.2-0.5-0.5c0-0.3,0.2-0.5,0.5-0.5C8.8,23.1,9,23.3,9,23.6"/>
<path class="st6" d="M32.6,7.2v14.3H15.5c6-3.5,10.7-8.9,13.4-15.4h2.6C32.1,6.2,32.6,6.7,32.6,7.2"/>
</svg>
