<?xml version="1.0" encoding="utf-8"?>
<!-- Generator: Adobe Illustrator 24.2.0, SVG Export Plug-In . SVG Version: 6.00 Build 0)  -->
<svg version="1.1" id="Layer_1" xmlns="http://www.w3.org/2000/svg" xmlns:xlink="http://www.w3.org/1999/xlink" x="0px" y="0px"
	 viewBox="0 0 38.5 39.1" style="enable-background:new 0 0 38.5 39.1;" xml:space="preserve">
<style type="text/css">
	.st0{fill:#FCC611;}
	.st1{fill:#414451;}
	.st2{fill:#F2BA85;}
	.st3{fill:#478ECC;}
	.st4{fill:#FDD19A;}
	.st5{fill:#EEEEED;}
	.st6{fill:#BABACD;}
	.st7{fill:#575B6D;}
</style>
<g>
	<path class="st0" d="M19,35.2c8.8,0,15.9-7.1,15.9-15.9c0-8.8-7.1-15.9-15.9-15.9S3.1,10.6,3.1,19.3C3.1,28.1,10.2,35.2,19,35.2"/>
</g>
<path class="st1" d="M15.9,21.9l-3.3,0.2c0,0-5.8-7.2-1.4-14.9c3.2-5.6,9.1-4.4,11.9-3.4c0,0,3.2-0.3,3.7,4.6
	c0.6,4.9-1.1,11-4.6,14.1L15.9,21.9z"/>
<path class="st2" d="M23.4,26l-1.9,3.7l-3.7,0.4l-3.2-1.4L14,25.5l0.8-2.4l0.2-0.7c0.2-0.2,0.3-0.4,0.3-0.7c0-0.2,0.1-0.3,0.1-0.5
	c0-0.1,0-0.3,0-0.4c0-0.8,0-1.6-0.1-2.3c0,0,7.2-3.3,6.9,0c-0.3,3.3,0.3,3.7,0.3,3.7L23.4,26z"/>
<path class="st3" d="M14.4,25.9c0,0,3.7,1.8,9.3,0v7.8h-8L14.4,25.9z"/>
<path class="st4" d="M21.4,8.1c0,0-0.2,0.9-1.6,1.1c-0.7,0.1-1.3,0.3-1.9,0.6c-1.6,0.6-2.9,1.8-3.6,3.4c-0.5,1.3-0.8,2.7-0.6,4
	c0,0,2.4,4.1,5.3,4c2.9,0,5.3-3.9,5.8-5.2c0,0,0.8,0.1,1.2-1.1c0.2-0.5,0.3-1.1,0.3-1.6c0-0.1-0.1-0.3-0.2-0.4
	c-0.3-0.3-0.7-0.4-1.1-0.3C24.9,12.6,22.3,11.6,21.4,8.1"/>
<path class="st5" d="M22.7,22.3l-2.6,11.3h10.1c0.7,0,1.2-0.5,1.2-1.2v-3.3c0-2.9-2.3-5.4-5.2-5.5l-1.3-0.1c-0.8,0-1.5-0.4-1.9-1
	L22.7,22.3z"/>
<path class="st5" d="M15.2,22.3l2.6,11.3H7.7c-0.7,0-1.2-0.5-1.2-1.2v-3.3c0-2.9,2.3-5.4,5.2-5.5l1.3-0.1c0.8,0,1.5-0.4,1.9-1
	L15.2,22.3z"/>
<path class="st6" d="M26.1,24.7c-1.5,0-2.7,2-2.7,4.6c0,1.1,0.2,2.2,0.7,3.2c0.1,0.2,0.3,0.5,0.5,0.7c0.2,0,0.4-0.1,0.5-0.3
	c-0.2-0.2-0.4-0.4-0.5-0.7c-0.4-0.9-0.7-1.8-0.6-2.8c0-2.2,1-4,2.1-4c1.2,0,2.1,1.8,2.1,4c0,1-0.2,2-0.7,2.8
	c-0.1,0.2-0.3,0.4-0.5,0.6c0.1,0.2,0.2,0.3,0.4,0.4c0.2-0.2,0.4-0.5,0.5-0.7c0.5-1,0.7-2,0.7-3.1C28.8,26.7,27.6,24.7,26.1,24.7"/>
<path class="st7" d="M28.1,32.6c0,0.3-0.2,0.5-0.5,0.5c0,0,0,0,0,0c-0.2,0-0.4-0.2-0.4-0.4c0,0,0-0.1,0-0.1c0-0.3,0.2-0.5,0.5-0.5
	c0,0,0,0,0,0C27.9,32.1,28.1,32.3,28.1,32.6"/>
<path class="st7" d="M25.1,32.6c0,0.1,0,0.1,0,0.2c-0.1,0.2-0.3,0.3-0.5,0.3h0c-0.3,0-0.5-0.2-0.5-0.5c0-0.1,0-0.1,0-0.2
	c0.1-0.2,0.3-0.3,0.5-0.3h0C24.9,32.1,25.1,32.3,25.1,32.6"/>
<path class="st6" d="M26.1,25.3c-0.1,0-0.2-0.1-0.3-0.2c-0.2-0.6-0.6-1.2-1.1-1.6c-0.1-0.1-0.2-0.3-0.1-0.4C24.7,23,24.9,23,25,23
	c0.6,0.5,1.1,1.1,1.3,1.9C26.4,25,26.3,25.2,26.1,25.3C26.1,25.3,26.1,25.3,26.1,25.3"/>
<path class="st6" d="M15.6,20.9c0,0.1,0,0.3,0,0.4c0,0.2,0,0.3-0.1,0.5c-0.5,0.4-3.5,3-3.4,8.3c0,0.2-0.1,0.3-0.3,0.3h0
	c-0.2,0-0.3-0.1-0.3-0.3C11.4,26.6,12.9,23.2,15.6,20.9"/>
<path class="st7" d="M11.7,29.8c0.8,0,1.4,0.6,1.4,1.4c0,0.8-0.6,1.4-1.4,1.4c-0.8,0-1.4-0.6-1.4-1.4C10.3,30.4,11,29.8,11.7,29.8"
	/>
<path class="st6" d="M11.7,30.5c0.4,0,0.8,0.3,0.8,0.8S12.2,32,11.7,32c-0.4,0-0.8-0.3-0.8-0.8S11.3,30.5,11.7,30.5"/>
</svg>
