<?xml version="1.0" encoding="utf-8"?>
<!-- Generator: Adobe Illustrator 24.2.0, SVG Export Plug-In . SVG Version: 6.00 Build 0)  -->
<svg version="1.1" id="Layer_1" xmlns="http://www.w3.org/2000/svg" xmlns:xlink="http://www.w3.org/1999/xlink" x="0px" y="0px"
	 viewBox="0 0 38.5 39.1" style="enable-background:new 0 0 38.5 39.1;" xml:space="preserve">
<style type="text/css">
	.st0{fill:#FCC611;}
	.st1{fill-rule:evenodd;clip-rule:evenodd;fill:#06263F;}
	.st2{fill-rule:evenodd;clip-rule:evenodd;fill:#CCCBCB;}
	.st3{fill-rule:evenodd;clip-rule:evenodd;fill:#ED3226;}
	.st4{fill-rule:evenodd;clip-rule:evenodd;fill:#F2F2F2;}
	.st5{fill:#06263F;}
</style>
<g>
	<path class="st0" d="M20.1,35.4c8.7,0,15.8-7.1,15.8-15.8c0-8.7-7.1-15.8-15.8-15.8S4.3,10.8,4.3,19.5
		C4.3,28.3,11.3,35.4,20.1,35.4"/>
</g>
<path class="st1" d="M31.7,13.9l0.6-0.6c0.5-0.6,0.4-1.6-0.2-2.2c-0.7-0.6-1.6-0.6-2.2,0l-0.5,0.6L31.7,13.9z"/>
<rect x="22.2" y="7.8" class="st2" width="2.3" height="2.1"/>
<path class="st1" d="M21.3,5.6h4c0.5,0,0.9,0.4,0.9,0.9v1c0,0.5-0.4,0.9-0.9,0.9h-4c-0.5,0-0.9-0.4-0.9-0.9v-1
	C20.5,6,20.9,5.6,21.3,5.6"/>
<path class="st3" d="M23.4,9.7c6.4,0,11.5,5.2,11.5,11.5c0,6.4-5.2,11.5-11.5,11.5c-3.1,0-5.2-1-9.5-2.5l1.2-1.2
	c0.5-0.5,0-1.5-0.8-1.2c-3.6,1.4-5.7-0.1-6.7-3.4c1.5,1,3.7,0.3,4.3-0.4c1-1,0.6-2.2-1.7-1.5c-3,1-6.1-0.7-7.6-5
	c4.6,2.3,4.9-2.4,9.7-1.2c-0.4-1.6-1.5-2.2-4.1-2.1c2.5-3.2,6.2-1.5,10.1-3.5C19.8,10.1,21.5,9.7,23.4,9.7"/>
<path class="st4" d="M31.6,21.2c0,4.6-3.7,8.3-8.3,8.3c-2.2,0-4.3-0.9-5.8-2.4c-1.5-1.6-2.4-3.7-2.4-5.9c0-2.2,0.9-4.3,2.4-5.9
	c1.5-1.6,3.6-2.4,5.8-2.4C27.9,12.9,31.6,16.6,31.6,21.2"/>
<path class="st5" d="M23.2,14.1c-0.2,0-0.4,0.2-0.4,0.4v0.6c0,0.6,0.9,0.6,0.9,0v-0.6C23.7,14.3,23.5,14.1,23.2,14.1"/>
<path class="st5" d="M23.2,26.8c-0.2,0-0.4,0.2-0.4,0.4v0.6c0,0.6,0.9,0.6,0.9,0v-0.6C23.7,27,23.5,26.8,23.2,26.8"/>
<path class="st5" d="M29.3,20.8c-0.6,0-0.6,0.9,0,0.9h0.6c0.6,0,0.6-0.9,0-0.9H29.3z"/>
<path class="st5" d="M16.6,20.8c-0.6,0-0.6,0.9,0,0.9h0.6c0.6,0,0.6-0.9,0-0.9H16.6z"/>
<path class="st5" d="M27.5,25c-0.4,0-0.6,0.5-0.3,0.7l0.4,0.4c0.2,0.2,0.5,0.2,0.6,0c0.2-0.2,0.2-0.5,0-0.6l-0.4-0.4
	C27.7,25.1,27.6,25,27.5,25"/>
<path class="st5" d="M18.5,16.1c-0.4,0-0.6,0.5-0.3,0.7l0.4,0.4c0.2,0.2,0.5,0.2,0.6,0c0.2-0.2,0.2-0.5,0-0.6l-0.4-0.4
	C18.8,16.1,18.7,16.1,18.5,16.1"/>
<path class="st5" d="M27.9,16.1c-0.1,0-0.2,0.1-0.3,0.1l-0.4,0.4c-0.2,0.2-0.2,0.5,0,0.6c0.2,0.2,0.5,0.2,0.6,0l0.4-0.4
	C28.5,16.5,28.3,16.1,27.9,16.1"/>
<path class="st5" d="M19,25c-0.1,0-0.2,0.1-0.3,0.1l-0.4,0.4c-0.2,0.2-0.2,0.4,0,0.6c0.2,0.2,0.5,0.2,0.6,0l0.4-0.4
	C19.6,25.5,19.4,25,19,25"/>
<path class="st1" d="M26.3,17.7c-0.1,0-0.2,0.1-0.3,0.1l-2,2c-0.2-0.1-0.4-0.1-0.6-0.1c-0.8,0-1.5,0.7-1.5,1.5
	c0,0.8,0.7,1.5,1.5,1.5c0.8,0,1.5-0.7,1.5-1.5c0-0.3-0.1-0.6-0.2-0.8l2-2C26.9,18.2,26.7,17.7,26.3,17.7 M23.4,20.6
	c0.4,0,0.6,0.3,0.6,0.6c0,0.4-0.3,0.6-0.6,0.6c-0.4,0-0.6-0.3-0.6-0.6C22.7,20.8,23,20.6,23.4,20.6"/>
</svg>
