<?xml version="1.0" encoding="utf-8"?>
<!-- Generator: Adobe Illustrator 24.2.0, SVG Export Plug-In . SVG Version: 6.00 Build 0)  -->
<svg version="1.1" id="Layer_1" xmlns="http://www.w3.org/2000/svg" xmlns:xlink="http://www.w3.org/1999/xlink" x="0px" y="0px"
	 viewBox="0 0 286.7 388.5" style="enable-background:new 0 0 286.7 388.5;" xml:space="preserve">
<style type="text/css">
	.st0{fill:#FFFFFF;}
</style>
<path class="st0" d="M89.1,366.1c-21.1,0-42.2-0.3-63.3-0.3c-1.8,0-3.6-0.1-5.4-0.2c-1.6-0.2-5.3,0.7-5.1-0.9
	c-0.1-22.4,0.4-44.8,0.5-67.2c0.5-46.7,1.1-93.3,1-140c0.6-41.9,0.7-83.8,1.2-125.7c0-1.3,0.3-1.6,1.6-1.6c10.3,0.3,6.9,1.3,7.5-9.6
	c0-1.4,0.3-1.6,1.6-1.6c15.6,0.1,31.3,0.3,46.9,0.2c36.3,0.4,72.6,0.5,109,0.9c1.2,0.3,5-0.8,4.7,0.9c-0.3,2.9-0.6,5.7-1,8.6
	c-1,8.2-1.9,16.4-2.7,24.6c0,0.9-0.7,2.7,0.5,3.2c1.8,0.5,3.6,0.9,5.5,1.2c7.4,1.1,14.7,2.6,22,3.9c0.7,0.1,1.1,0.4,1,1.2
	c-0.3,3.4-0.5,6.7-0.7,10.1c-0.5,6.8-0.9,13.6-1.3,20.3c0.1,1.2-0.6,3.5,0.7,4.2c9.8,2.4,19.6,4.8,29.4,7.1c2.2,0.5,4.4,1.1,6.6,1.7
	c3.2,1.2,5.8,3.7,8.8,5.5c5.1,3.3,10.2,6.7,15.2,10.1c0.9,0.6,0.9,0.9,0,1.6c-4.7,4.1-9.5,8.1-14.1,12.3
	c-30.5,26.9-61.2,53.4-91.7,80.2c-12.3,10.7-7.4,5.3-8.6,22.1c0.2,13.3-0.1,26.7-0.2,40c-0.1,21.4-0.6,42.8-0.7,64.2
	c-1,17.5,3.7,14-10.4,14.1c-1,0-1.2,0.2-1.2,1.2c0,2.2,0,4.4,0,6.7c-0.3,1.4-0.2,1.4-1.5,1.4c-18.6,0.1-37.2-0.3-55.8-0.2
	C89.1,366.2,89.1,366.1,89.1,366.1z M139.7,315.5c0-0.1,0.1-0.2,0.1-0.2c-1.7-2.4-0.9-5.4-0.4-8c3.7-4.9,8-1.2,10.2,2.9
	c2.1,2.9,0.3,6.1-1.2,8.9c-1.9,3.3-6.2,4.7-9.8,3.7c-1.4-0.4-2.7-0.8-4.1-1.4c-1.8-1.1-5.2-3.4-5.4,0.4c0,0.8-0.1,1.7-0.4,2.4
	c-0.7,1.7-0.7,3.3-0.4,5c0.5,2.8,6.9,0.7,6.6,4.9c-1,4.6-4.4,8.8-3.5,13.8c0.7,2.1,1,4.2-0.5,6c-1.1,1.8,1.5,1.6,2.6,1.6
	c5.9,0,11.9,0,17.8,0c2.5-0.1,4.3,0.8,4-2.8c0.1-10.4,0.1-20.8,0.3-31.2c0.2-25.2,0.2-50.5,0.6-75.7c0-5.4,0-10.7,0.3-16.1
	c0.4-2.8-1.1-6.4,1.6-8.4c11.3-10,22.6-19.9,34.1-29.7c23.7-21,47.7-41.7,71.3-62.8c8.7-7.7,6.7-3.9-3.3-11.5
	c-4-2.4-7.7-5.5-11.9-7.5c-10.3-2.5-20.5-4.9-30.8-7.4c-2.3-0.6-4.7-1.3-7-1.9c-0.8-0.2-1.1-0.7-1-1.4c0.4-6.1,0.5-12.1,0.9-18.2
	c0.4-4.8,0.8-9.5,0.9-14.3c0.6-2.2-2.3-1.8-3.7-2.2c-2-0.3-4-0.7-5.9-1c-6-1.2-11.9-2.4-17.9-3.6c-1.6-0.3-1.9-0.8-1.7-2.4
	c0.9-7,1.7-14,2.4-21c0-3.1,2.3-12.8,0.7-13.5c-42.5-0.8-85.2-0.7-127.8-1.1c-6.6,0-13.1-0.1-19.7-0.2c-2.2,0-4.3,0-6.5,0
	c-1,0-1.5,0.5-1.5,1.5c-0.5,27-0.2,54.1-0.8,81c-0.6,80.4-1.1,160.7-2.2,241c0,2.6,0,5.3,0,7.9c0,1,0.2,1.2,1.3,1.2
	c10.2,0.1,20.3-0.2,30.5,0.2c1.6,0,1.9-0.2,2.5-1.7c0.5-1.6,1.3-3.1,2.1-4.5c1.7-2.5,3.2-5.1,3.8-8c0.8-2,0.6-4-0.4-5.8
	c-0.2-0.4-0.6-0.6-0.9-0.2c-1.3,1.7-1,4.5-3.5,4.9c-1.9,0.3-2.9,2-4.3,3.1c-1.8,1.3-2.1-1.2-1.9-2.5c-0.5-13.7-5.2-5.7-5.8-14.2
	c0.1-3.3-5.1-1.2-8.4-5.2c-1.4-1.2-2.2-2.7-2.4-4.5c-0.1-1-0.3-2-1.3-2.7c-2.3-1.2-7.8-10.7-1.8-9.3c1.5,0.2,3.7-0.2,4.4-1.7
	c0.6-1.9,1.9-3.4,3-5c1.4-1.9,3.9-2.1,5.3-3.8c2.6-1,5.2-1.9,8.1-1.8c2.9,0.2,5.7,0.3,8.4-0.8c1.3-0.3,2.1-1.1,2.7-2.1
	c7.4-11.2,9.3-2.8,18-5.3c6.6-3.4,10.4,4.7,16.4,5.5c1.7-0.2,2.3,1.6,3.5,2.5c3.1,2.1,6.7,2.9,10,4.5c2,1.6,4.5,2.6,6.5,4.1
	c4.1,3.4,8.1,7.1,11.8,10.9C135.6,312.9,137.3,314.9,139.7,315.5z M105,348.2c5.2,0.5,10.1-9.5,14.9-11.1c0.5-0.1,0.7-0.4,0.5-1
	c-2.7-5.1,1.6-7.4,4.4-11c0.5-1.3,1.4-2.6,1.7-4c0.7-2.4-0.6-7.9,2.9-8.1c3.6,1.6,2.3,4.8,7.2,6.6c2.9,1.2,6.7,1.7,9.4-0.4
	c2.2-1.8,3.6-5.6,1.8-8c-1-1-2.1-1.9-2.5-3.4c-0.3-0.9-2.6-1.2-2.9-0.4c-0.2,0.6-0.2,1.4,0,2.1c0.8,1.1,2.6,0.3,3.4,1.9
	c2.2,4.5-3.8,9.1-7.8,5.7c-3.5-1.9-4.7-6.1-8.1-8.4c-3.2-2.7-5.6-6.5-9.8-7.9c-3.5-1.1-6.8-3-10.5-3.8c-3.1-0.5-6.1-1-9.2-1.1
	c-3-0.2-4.4,2.3-6.3,4.1c-1.2,1.1-1.6,1.7-0.5,3.9c1.1,2.2,0.9,4.7,1.2,7.1c0.4,3,0.2,5.8-0.3,8.7c0,0.5,0.3,0.7,0.8,0.7
	c3.2,0.2-0.5,5.7-0.9,7.3c-1.1,2.8,4.7,1.3,6,1.1c1.8-0.4,3.3-1.5,4.7-2.6c1.2-0.9,2.1-1.8,1.9-3.6c-0.2-2.3,0-4.6,0.3-6.8
	c0.5-2.3-1.9-2.9-3-4.4c-0.6-0.9-0.2-1.7,1-1.5c1.1,0.1,2.1,0.5,3.1,0.9c2.5,2.9-0.8,11.2,1.4,15.1c1,2.6,6.6,8.4,4.3,10.8
	c-1.8,2.1-2.8,4.8-4.9,6.8c-1.3,1.3-2.2,2.9-3.8,3.9C105.4,347.5,105.3,347.8,105,348.2z M93.7,293.7c0-1.3-0.3-3.9,1.7-2.8
	c1.4,0.4,2.3-1.9,3.1,0.6c0.7,3.4,3.3,3.2,5.9,2.3c-0.4-1.3-1.9-2.6-3.2-3c-4.2-0.8-6.3-5.2-10.5-6c-5.6-0.4-7.4,2.8-14.6,0.7
	c-2.8-1-3.7,2.2-5.1,3.9c-1.4,1.8-2.5,3.9-4.1,5.6c-0.5,0.4-0.6,0.7-0.4,1.3c2.2,4.1,2.8,8.9,1,13.3c-0.6,2-1.8,3.5-3.6,4.6
	c-1.2,1.6-2.4,3.2-3.6,4.8c-1.4,2.4-3-1-4.1,1c-1,2.1-4,2-4,3.8c0.1,3.9-0.9,6.3,3.8,3.2c0.1,0.6,0.4,1.3,0.2,1.9
	c0.1,1.2,0.6,2.4,0.8,3.5c-0.1,1.5,0.3,2.8,1,4.2c1.1-0.6,0.8-2.7,2-3.1c0.7,0.3,1.1-0.2,1.7-0.7c0.3,0.6,0.7,0.8,1.2,1.2
	c0.2-0.5,0.6-0.9,0.5-1.5c0-2.4,2.1-0.3,3.9-4.1c0.8-1.9,1.9,0.4,3.1-0.6c1.6-1,1.4,2.2,1.6,3.1c0.4,4.6-1.4,8.8-2.6,13.2
	c-0.1,0.4-0.2,1.1,0.1,1.3c1.9,0.9,2.8,0.6,1.8-1.6c1.1-1.5,2.2,0.8,2.4-0.9c-0.1-1.1,0.1-2.9,1.6-1.8c0.4,0.5,0.8,0.8,1.4,0.9
	c0.5-0.9-1.3-4.1,0.8-3.3c0.4,0.2,0.8,0.4,1.1,0c0.6-2-4-5.1,1-4.1c0-1.2-1.1-2-0.3-3c0.5-0.5,0.9-0.2,1.4,0c2.1,1.1,0.1-5,3-1.7
	c0.5,0.7,1.1,0.7,1.4,0c0.9-1.6-0.7-4.2,0.8-4.4c0.3,0,0.7,0.4,1.1,0.6c0.2,0.3,0.4,0.8,0.8,1c1.3-1.5-2.1-5.7,0-6.3
	c1.2,0.2,1.6,1.7,2.3,2.5c0.1,0,0.2-0.1,0.3-0.1c0.7-2-3.9-8.9,1.1-6.1c0.1-0.1,0.2-0.1,0.3-0.2c-0.2-1.7-3.5-6.6,0.4-5.6
	c0.7-2.3-2.6-3-2.9-4.9c0.1-0.3,0.5-0.5,0.7-0.6c2.9-0.5-2.4-3.2-2.5-4.7c0.4-0.3,0.8-0.5,1.3-0.8c0.6,0,1.1-0.4,0.9-1
	c-0.6-2.5-1.8-5.3,2.1-3.2c0.1-0.1,0.1-0.2,0.2-0.2C90.5,293.3,91.1,292.1,93.7,293.7z M93.6,354.8
	C93.6,354.8,93.6,354.7,93.6,354.8c0.9-0.1,1.7-0.1,2.6-0.1c2.3,0.2,2.1-3.8,3.6-4.9c2-1.9,4.3-3.5,6.4-5.2c2.6-2.7,4.8-5.8,6.5-9.1
	c0.8-1.6-3.1-3.3-3.4-5.6c-0.4-1.4-0.7-1.4-2-0.8c-4.4,2.2-9.7,1.9-14.5,2.6c-3.2,1-7.7-0.5-9.3,3.4c-2.7,5.6-5.5,11.4-11.4,14.2
	c-1.5,0.8-1.8,2.7-2.5,4.1c-0.4,1-0.2,1.2,0.8,1.2C78.1,354.7,85.9,354.5,93.6,354.8z M61.3,310.4c5.8,1.6,2.6-2.2,1.9-5.3
	c0.8-0.3,2.6,0,2.1-1.4c-0.4-1.2-2.8-2.5-1-3.6c1.8-0.9-3-2.4-1.8-4.1c0.6-1.1-1.4-0.9-2-1.5c-1.8-1-3.8-0.3-5.7-0.3
	c-4.5,0.6-9.8,2.4-11.8,7c-1.3,4.6-3.1,9.8-1.6,14.5c5.8,9.8,8.5-0.4,10.7,2.6c1.3,1.1,3-0.6,3.5-1.8c0.3-0.5,0.6-0.5,1-0.3
	c0.8,0.2,1.9,1,2.5,0.2c0.5-1.1,0.4-2.3,0.3-3.5c-0.1-1.3-2.2-1.1-3-1.9c-1.7-1.2-2.3,0.8-3.5,1.6c-2.6,2.2-6.2,2.3-9.2,0.8
	c-1.7-1-1.8-3.6-0.8-5.2c3.2,4.9,2.5-0.1,4.3,1.6c0.3,0.7,0.8,1,1.4,0.8c0.5-1,1.3-1,2.2-0.5c1.4-3.1,1-0.9,2.9-2
	c0.7-0.9,1.8-1.4,1.9-2.5c0.7-2.7,1.3-5.5,0.7-8.3c-0.1-0.7,0.1-2.2,1.2-2c2.1,1,2.8,3.5,3.6,5.5C62.2,304,61.9,307.2,61.3,310.4z
	 M122.2,335.1c1.1,1.7,1,4.4-2,4.4c-0.7,0-1.2,0.2-1.7,0.7c-1.6,2.3-4.2,3.5-5.9,5.7c-1.2,1.5-2.4,3-4.3,3.9
	c-1.7,0.8-2.6,2.4-3.5,3.9c-0.9,2.2,1.9,1.6,3.2,1.6c1.7,0,3.3,0.1,5,0.1c1.4,0,2.8-0.1,4.1-0.1c1.5-0.3,5.8,1.1,6.1-0.9
	c2.2-3.6,4.6-6.4,2.2-10.7c-1.1-1.6-0.9-3.5-0.4-5.2C125.5,336.9,124.2,335,122.2,335.1z M129.5,349.6c-0.1-1.5-0.5-3-0.2-4.5
	c0.8-1.9,0.4-4,1.1-6c0.3-1.1,2.4-4.9,0.4-5.2c-0.6,0.1-0.4,0.5-0.3,0.9c0.8,2.7-3.2,2.5-2.9,0.3c0.3-1.7-0.8-2.9-0.9-4.5
	c-0.3-0.9-0.4-3.3-1.7-2.3c-1.3,1.2-4.5,3.6-1.5,4.8c6.1,2.8,1.9,4.6,3.3,9c0.5,1.1,0.9,2.2,1.2,3.4c0.8,2.7,0.2,3.4-0.6,5.8
	c-0.1,0.5-0.1,1,0.5,1.2C129.6,353.1,129.3,350.7,129.5,349.6z M58.4,300.1c0,2.6-1.3,4.7-1.7,7.2c-0.4,1.8,1.9,2.4,2.7,1.2
	C60.1,306.9,61,300,58.4,300.1z M67.3,347.3c-1.7,0.8-2.3,2.4-3.3,3.7c-0.4,0.5-0.3,1.2,0.4,1.3c2.6,0.6,4.1-1.1,5.1-3.2
	C69.5,348,68.1,347.8,67.3,347.3z M39.3,308.9C39.3,308.9,39.3,308.9,39.3,308.9c0-1-0.5-2.3-1.7-2c-1.5,0.6,0.4,2.9,1.2,3.4
	C39,309.8,39.3,309.4,39.3,308.9z M66.5,118.3c0.1,15.8,0,31.9-0.6,47.9c-0.1,4.6-5.2,1.9-5.1,4.4c0.1,0.7,0.8,0.8,1.4,0.8
	c2.6,0,5.2,0,7.7,0c4.7,0,9.4,0,14.1,0c0.3,0,0.9-0.4,0.9-0.7c-0.5-2.4-4.3-0.1-5-3.9c-0.9-9.8-0.1-19.8-0.4-29.7
	c0.4-8.6,0-17.3,0.7-25.9c0.1-3,2.8-2.7,5.1-3.2c1.8-0.7,3.5,0.4,5.3,0.5c4,0.7,2.3,10.3,2.7,13.5c0.1,13.3-0.2,26.5-0.4,39.7
	c-0.3,4.3,0.5,7.8-5,8.1c-0.6,0.1-1.1,0.2-1.1,0.9c0,0.7,0.6,0.9,1.2,0.9c7.9,0,15.8,0,23.6,0c0.3,0,0.8-0.4,0.8-0.6
	c-0.6-2.5-5,0-5.6-3.7c-1.2-4.5-0.4-9.2-0.5-13.8c0-4.6,0-9.1,0-13.7c0-0.6,0.2-1.3,0.8-1.2c4.5,0.1,6,4.8,6.7,8.5
	c0.6,1.9,0.6,3.8,0.7,5.8c-0.1,0.5,0.2,0.9,0.6,1c0.7,0,0.8-1,0.8-1.5c0.1-7.7,0.1-15.4,0.2-23.1c-0.3-2.3,0.9-5.9-0.6-7.6
	c-1.4,1.2-0.7,3.1-1.1,4.7c-0.8,4-1.6,10.4-6.8,10.4c-2.3,0.3-0.8-4.7-1.1-6.2c-0.1-6.9,0.2-13.8,0.2-20.6c0-0.7,0.1-1.3,1-1.2
	c1.2,0.1,2.4,0,3.6,0.2c3,0.5,4.9,2.4,6,5.2c2.7,4.2,4.6,8.8,5.8,13.7c5.6,24.2,2.8-15,3.5-19.9c0-0.8-0.3-1-1-1c-1.7,0-3.5,0-5.2,0
	c-1.8,0.1-1.5-2.3-1.8-3.5c0.2-3.7-1.7-13.2,0.7-15.5c2.5,0.8,3.4,4.5,6,5.3c1.2,0.4,2.3-1,3.5-0.4c4.7,0.6,8.1-3.8,12.6-4.3
	c3.2-1.3-4-3.4-5.1-4c2.7-3.3,6.4-5.5,9.7-8.3c0.8-0.6,0.7-1.2-0.1-1.7c-0.6-0.3-0.6-0.6-0.3-1.1c1.3-2.7,2.5-5.4,3.9-8
	c0.8-1.4,0.9-1.4-0.7-1.7c-1.5-0.3,0-1.8,0.2-2.6c0.6-1.1,1.2-3.3-0.3-3.9c-2.8-0.1-5.5-0.2-8.3,0.5c-8.2,0.9-5.1,1.2-4.9-5.3
	c0-0.6-0.2-1-0.9-1c-3.3,1,1.8-13.4-1.5-10.9c-1,0.5-3.2,4.4-4,2.3c-1.1-3-2.5-5.8-3.9-8.6c-1-1.1-1.5,0.9-2.1-0.8
	c-0.6-2.5-2.1-4.7-3.5-6.8c-0.6-1-0.7-2.3-1.7-3c-0.9,1.5-0.4,3.3-1.4,4.9c-0.6,1-0.9,2.1-1.2,3.2c-0.6,1-0.6,5.3-2.3,4.2
	c-0.8-0.2-2.2-2.1-2.6-0.6c-2,8.3,0.8,9.9-6.4,6.8c-0.6-0.2-0.9,0-0.9,0.6c-0.3,2.4-0.2,4.8-0.6,7.2c-0.8,2.4-0.2,4.8,0,7.3
	c0,0.9-0.3,1-1.1,0.8c-1.7-0.4-3.4-0.8-5.1-1.2c-1.7-0.5-3.5,0-5.1-1c-0.4-0.3-0.9-0.5-1.4-0.6c-0.7-0.1-1.4-0.4-1.8,0.4
	c-1.1,1-3.6,0.3-5.1,0.7c-0.7,0.2-0.4,1-0.1,1.5c2.3,3.8,2.9,8,4.1,12.3c-0.5,0.6-2.1,0.8-1.6,1.8c1.7,3.5,4.2,6.7,6.9,9.5
	c1.7,1.5-1.6,2.6-2.2,4c-1.3,2.8,1.4,2.5,3.2,2.8c2.4,0.7,4.7,1.4,7,2.1c6,1.4,7.4,1.9,12.7-1.7c1.1-0.7,1.8-0.6,1.9,1
	c0.1,2.7,0.2,5.5,0.4,8.2c0.1,2.5,0.2,5.1,0.3,7.6c0.1,1.3-0.3,1.7-1.6,1.7c-5.5-0.2-11.1-0.1-16.6-0.1c-3,0-6.1-0.2-9.1-0.2
	c-0.5,0-1.1,0.6-1.6,0.6c-1.7-1.1-3.8-0.3-5.8-0.5c-4.2-0.2-8.4,0.1-12.6-0.2c-1.8,0-1.2,3-1.8,4.2c-0.6,2.6-1.2,5.3-1.8,7.9
	c-1.9,7.9-3,16.2-5.5,24c-1.6-1.8-1.4-4.9-2.2-7.1c-0.8-4.3-1.7-8.6-2.8-12.8c-0.7-3.1-1.4-6.3-2.1-9.4c-0.6-1.7-0.8-6.1-2.2-6.9
	c-5.9-0.2-12,0.1-17.9-0.1c-1.3-0.4-1.4,1.5-0.1,1.5c1.6,0.1,3.6,0.3,4.5,1.9c1.7,2.8,1.3,6.1,1.2,9.3c-0.2,8.2-0.3,16.3-0.3,24.5
	c0,5.7,0,11.3,0,17c-0.3,5.3,0.3,8.8-6.2,9.1c-0.7,0.2-1.2,1.6,0,1.6c2.2-0.1,4.5,0.1,6.7,0.1c2.2,0,4.4,0,6.6,0
	c1.3-0.1,1.5-1.6,0.2-1.9c-1.8-0.3-3.9,0.1-4.9-1.9c-1.5-3.5-0.9-7.3-0.9-11c0.4-12.3-0.2-24.8,0.4-37.1c0.1,0,0.2,0,0.3,0
	c3.5,13.5,6.1,27.2,9.4,40.7c0.7,2.9,1.3,5.8,1.9,8.7c0.5,2.3,0.6,2.4,2.9,2.4c1.1,0,1.4-0.2,1.6-1.3c1-5.1,2-10.2,3-15.3
	c2.6-12.1,5.1-24.2,7.7-36.3C66.2,118.3,66.4,118.3,66.5,118.3z M169.4,111.3c4.1,14.5,6,29.6,9.5,44.3c0.6,3.2,1.3,6.3,1.9,9.5
	c0.6,1.4,0.6,7.5,2.3,7.2c1.6-0.1,3.9,0.5,4.1-1.7c2.1-10.1,4.4-20.2,6.8-30.2c0.9-4,1.4-8.1,2.9-11.9c0.1,0,0.3,0,0.4,0.1
	c1.6,9.4,3.7,18.8,5.5,28.1c1,5.1,2,10.1,3.1,15.1c0,0.2,0.3,0.5,0.5,0.5c1.5,0,4.1,1,4.3-1.2c1.2-4.7,2.2-9.5,3.3-14.3
	c2.6-10.4,4.6-20.9,7.3-31.2c0.6-3,1.1-6,2.1-8.9c0.8-2.1,0.9-4.9,2.6-6.4c0.9-0.8,4.7-1.3,4.4-2.4c-0.1-0.7-0.6-0.7-1.1-0.7
	c-2.3,0.1-4.6,0.2-6.9,0c-1.2,0.5-6.2-0.8-5.7,0.9c1.1,1.7,5.7,0,5.3,5.2c-0.5,6.9-2.7,13.5-4,20.3c-0.9,3.8-1.8,7.6-2.7,11.4
	c-0.1,0.5-0.6,0.7-0.9,0.2c-1.6-5.8-2.4-12-3.7-17.9c-1-5.1-2.1-10.3-2.4-15.5c-0.3-2.6,1.7-2.8,3.6-3.1c0.6-0.1,0.9-0.5,0.8-1
	c-0.2-1.3-1.7-0.5-2.5-0.6c-4.6,0-9.2,0-13.7,0c-1.2,0.3-8.6-1.2-6.6,1.4c3.2,0.7,3.7,2.6,4.4,5.5c0.6,2.5,1.2,4.9,1.7,7.4
	c1,4.7-1.5,9.4-2.2,14.1c-0.9,3.2-1.1,6.6-2.5,9.6c-0.1,0-0.2,0-0.2,0c-2.1-6.4-2.8-13.3-4.3-19.9c-0.8-4.4-2.1-8.7-2.3-13.2
	c-0.3-2.3,1.3-3,3.1-3.3c1,0,1-1.8-0.1-1.6c-7.3-0.4-14.9,0.8-22-0.6c-0.6-0.2-1.1,0-1.3,0.6c-0.5,1.6-0.2,7.3-3,5.9
	c-3.1-2.6-5.3-6.2-9.6-6.9c-8.3-1.8-15.4,4.4-18.7,11.6c-7.3,14.9-6.8,41.5,7.2,52.4c6.2,4.3,16.4,3.6,20.3-3.4
	c3.4-5.1,4.7-11.1,5.4-17.1c0.1-0.7,0.1-1.4-0.5-1.9c-1.4,1-1.4,7-2.3,9.1c-0.7,2.8-1.8,5.5-3.3,8c-5.2,7.6-11.9,3.7-13.8-4.1
	c-3-10.5-3.2-21.6-2.2-32.4c1-5.7,1.1-11.9,4.4-16.9c4.6-6.6,10.9,1,12.2,6.2c1.5,5.1,2.4,10.4,3.6,15.5c0.1,0.6,0.3,1.4,1,1.4
	c0.7-0.1,0.7-0.9,0.7-1.5c0.2-8.1-0.2-16.2,0.4-24.3C167.9,108.6,168.7,109.5,169.4,111.3z M106,244.8c-1.8-4-2.3-9-5.7-12.1
	c-1.7-1.3-4.7-0.9-5.6,0.8c-0.9,1.5-1.4,3.3-1.4,5c0,8.2-0.1,16.3-0.1,24.5c0.1,1.7,0,3.3-0.1,5c0,0.6,0.3,0.9,0.9,0.9
	c1.5-0.2,7.1,0.7,7.5-0.7c0.3-3.8,0.2-7.5,0.2-11.3c0-0.2,0.2-0.5,0.4-0.7c3,4,3.6,17.5,11.3,12.4c2.8-3,1.8-7.5,2.1-11.3
	c0-7,0-14,0-21c-0.1-1.1,0.6-2.9-0.4-3.6c-2.3-0.2-4.7,0-7-0.2c-2.6,0.2,0.1,11-1.6,13.1C106.2,245.3,106,245.1,106,244.8z
	 M90,196.7c-2.7-4.1-2.4-10.3-6.7-13.3c-1.9-1-4-0.4-5.1,1c-1,1.3-1.4,2.9-1.5,4.6c-0.1,9.7-0.2,19.4-0.3,29c0,1.7,0.3,1.7,1.6,1.6
	c1.7,0,3.5-0.1,5.2,0c1.6,0.1,1.7,0,1.7-1.6c0-3.1,0-6.2,0-9.2c0-0.7,0-1.3,0.8-1.9c2,3.7,3.1,14.1,8.4,13.5
	c1.6-0.1,3.1-0.9,3.6-2.5c1.9-6.1,0.6-12.6,1-18.9c0.1-4.7,0.2-9.4,0.2-14c0-1.3-0.1-1.4-1.4-1.4c-10.8,0.6-5.6-2.8-7.3,13
	C90.3,196.6,90.2,196.7,90,196.7z M40.5,214.3c0.3,1.1-0.8,5.2,1,5c3.7-0.1,6.8-2.6,8.7-5.7c5.5-9.2,4.7-25.4-6.6-29.7
	c-2.7-0.8-5.7-0.7-8.5-0.5c-1.3,0.2-4.1-1.1-3.9,1.1c0.2,9.6-0.1,19.2,0,28.7c0.3,1.4-1.2,6.4,1,6.1c2-0.1,4,0,6.1,0
	c1.1,0,1.4-0.3,1.4-1.4c0.1-5.7-0.3-11.4,0.2-17.1c0.1-2,0-4.1,0-6.1c-0.1-1.6,1.9-0.9,2.6-0.2c1.5,1.4,2.4,3.2,2.4,5.3
	c0,3.2,0.1,7.2-3.2,8.9C39.9,209.8,40.8,212.6,40.5,214.3C40.4,214.3,40.5,214.3,40.5,214.3z M89.7,244.8c0-5.1-2.7-11-7.9-12.7
	c-3.6-0.9-7.4,0.4-9.6,3.5c-5.4,6.6-2.4,23.1-3.2,31.9c0,1,0.3,1.3,1.3,1.3c2,0,4,0,6,0c2.4,0.1,0.9-3.7,1.2-5.1
	c0.3-4.8,0.1-9.6,0.2-14.4c0.1-2,0.2-4,0.4-6.1c0.1-0.7,0.6-0.9,1.3-0.9c0.7,0,1.4,0.1,1.5,0.9c0.1,1.5,1.8,5.2-0.8,5.2
	c-1,0-1.3,0.3-1.3,1.2c0,2.3,0,4.7,0,7c0,0.6,0.3,0.9,0.9,0.9c1.3,0,1.6,0.4,1.6,1.7c-0.1,2.7-0.2,5.4-0.2,8.2c0,1.4,0,1.4,1.4,1.4
	c2.2,0,4.3,0.1,6.5,0c1.3-0.4,0.3-7,0.6-8.5C89.8,255.1,89.8,249.9,89.7,244.8z M139.6,198.4c0.9-8.3-5.9-19.5-15.1-13.6
	c-3.3,2.2-4.8,6.4-5.3,10.2c-0.3,7.8-0.1,15.7-0.4,23.5c-0.4,2.6,5.4,1.2,7.1,1.5c1.2,0,1.5-0.3,1.5-1.5c0-4.3,0-8.7,0-13
	c0-1.7,0.1-3.5,0.2-5.2c0.4-1.9-1-6,1.4-6.5c2.3-0.2,2.1,3,2.2,4.6c0,1.1-0.3,1.3-1.4,1.3c-0.8,0-1.1,0.4-1.1,1.1c0,1.8,0,3.6,0,5.4
	c-0.2,1.3-0.5,2.6,1.3,2.6c2.6-0.4,0.7,8.4,1,10.2c0,0.5,0.2,1,0.9,1c1.6-0.2,6.9,0.8,7.5-0.5C139.9,212.6,139.3,205.4,139.6,198.4z
	 M30.4,251c0,5.5,0,11,0,16.4c0,0.8,0.3,1,1.1,1c2.1,0,4.2,0,6.3,0c0.8,0,1.1-0.3,1.1-1.1c0-8-0.1-16.1,0.4-24.1
	c2.1-3.7,5.7,2.5,1.4,4.2c-1.3,0.8-0.6,7.2-0.8,9c0,0.6,0.3,1.1,1.1,1c7.1,0.1,9.7-7.5,9.7-13.4c0-9.3-9.6-17.7-16.9-9
	c-3.3,4.6-3.1,10.5-3.1,15.9C30.5,251,30.5,251,30.4,251z M73.9,198c0-1.2-0.1-1.3-1.3-1.3c-2-0.4-9.8,1.4-5.6-2.5
	c2.2-2.3,6.7-0.1,6.8-1.6c0.2-2.5,0.1-5.1,0.2-7.6c0.1-1-0.3-1.5-1.3-1.4c-4.1-0.3-8.1,0.2-11.2,3.1c-8,6.6-7.6,25,1.2,30.8
	c2.8,2.3,6.5,2.3,9.9,2.2c0.5,0,1-0.2,1.1-0.8c0.1-2.7,0.1-5.3,0.2-8c0.1-2.6-6.2,0.6-7.9-3.5c-0.4-0.8-0.1-1.3,0.8-1.3
	C76.5,206.1,73.4,207,73.9,198z M113.6,199.6c0.3-1.4-0.9-5.7,1.1-5.6c1.2-0.2,3.7,0.7,3.5-1.1c0-2.6,0-5.3,0.2-7.9
	c0-1-0.2-1.3-1.3-1.3c-5,0.3-10,0-15.1-0.1c-1.4,0.3-0.9,2-1,3.1c0,2.1,0,4.1,0,6.2c0,0.7,0.2,1.1,1,1c1.2,0.1,3.4-0.5,3.3,1.3
	c0,2.9-0.1,5.7-0.2,8.6c0,4.9,0,9.9-0.2,14.8c0,0.9,0.3,1.2,1.1,1.2c2.2,0,4.4,0.1,6.6,0c0.9-0.2,0.7-1.3,0.7-2
	c0.3-6.1-0.1-12.1,0-18.1C113.5,199.6,113.6,199.6,113.6,199.6z M52.3,241.3c0,3.7,0,7.3,0,11c0.1,4-0.5,8.2,1.2,11.8
	c2.1,5.5,8.5,4.6,13.3,4.6c0.5,0,1-0.4,1-1c0-2.8,0-5.6,0-8.4c-0.5-1.6-2.8-0.9-4.1-1.1c-3.5,0.2-2.8-3.8-2.7-6.2c0-4.5,0-9,0-13.5
	c0.1-8.5,0.6-5.9-7.2-6.3c-1.1,0-1.2,0.2-1.2,1.3c0,2.6,0,5.2,0,7.8C52.4,241.3,52.3,241.3,52.3,241.3z M158.3,210.5
	c0.1-2.5-6,0.3-6.7-2.4c-0.6-3.9,0.1-8-0.2-12c0-3.5-0.1-7.1,0.2-10.6c0.3-2.3-2.4-1.4-3.8-1.5c-1.2,0-2.5-0.1-3.7-0.2
	c-1.7-0.1-0.9,2-1.1,3c0,4.9-0.3,9.8,0,14.7c-0.2,6.5-1.4,17.6,7.5,18.5C161.4,220.5,157.7,221.2,158.3,210.5z M115.4,316
	c-0.3-1.1-0.4-2.2-0.9-3.3c-0.8-1.4-1.8,0.5-1.3,1.4c0.8,2.3-0.9,4.5-1.3,6.8c-0.2,0.7-0.3,1.6,0,2.1c0.7,0.8,2.3,2.9,3.5,2.4
	c0.6-0.7,0.3-1.6,0.1-2.3c-0.1-2.4-0.3-4.7-0.4-7.1C115.2,316,115.3,316,115.4,316z M123.8,316.2c-1.5-0.1-0.9,2-1.3,2.9
	c-1,2-2,4-3,6c-0.4,1.1-1.9,2.4-0.9,3.6c0.1,0.1,0.7,0,0.8-0.2C120.6,327.3,127.3,316.2,123.8,316.2z M82.7,316.8
	c-0.9-0.4-2.7-1.4-2.5,0.4c0.3,1.3,1.6,3.3-0.7,3.3c-0.9,0.1-1.8,0.8-2,1.7c0,1.5-1.3,5.4-0.2,6.3c2.5,0.1,4.1-5.2,6.1-6.6
	c1.8-1.4,2.9-3.4,2.9-5.7c1.3-7-5.5-10.3-1.8-14.9c1.9-3.3,0.3-6.7-1.1-9.8c-0.7-1.9-2.8-1-4.2-0.5c-0.7,0.4-0.4,1.2,0.3,1.4
	c0.9,0.1,1.9,0.9,1.9,1.8c-0.3,0.2-1.4,0.4-1.5,0.8c-0.1,1.1,1,1.8,1.5,2.6c0.3,0.8,0.1,1.2-0.9,1.2c-1.1,0.3-1.7,0.2-1,1.5
	c3.2,4-4.7-0.1,1.6,5.9c0.4,0.5,0.1,1-0.4,1c-3.4,0.9,2.1,3,2,4.4c-0.3,0-0.5,0.1-0.8,0.1c-0.3-0.2-1.1-0.2-1.3,0
	c-0.3,1.5,2.2,3.1,2.5,5C82.9,316.7,82.8,316.7,82.7,316.8z M65.8,319c-0.2,0.9-0.2,1.9-0.9,2.6c-1.2-0.5-1.3-2.8-2.7-2.8
	c-0.3,0.2-0.5,0.6-0.6,0.9c0.2,0.9,0.6,3-1,2.5c-1.2-0.2-0.9,1.2-0.4,1.8c1.6,2.5-1.1,1.8-1.8,3.2c-0.2,0.9,0.2,1.8,0.9,2.3
	c0.9,0.5,2.2-0.2,2.8-1c1.6-2.1,4.7-2,6.9-3.2c0.8-0.5,1.6,0.6,2.3,0.5c1.3-1.2,0.9-3.3,1.4-5c0.2-1.4,0.5-2.8,0.7-4.2
	c0.2-1.4,0.5-1.7,1.8-1.7c1.4-0.1,0.7-1.8-0.1-2.2c-0.6-0.3-0.9-0.7-1-1.5c0-3.4-4.2-2-3.1-0.3c1.1,0.7,1,7.5-0.9,5.9
	c-2-1.5-1.3,2.3-2.3,3.1c-0.6-0.6-0.8-1.1-1.3-1.9C66.1,318.4,65.9,318.7,65.8,319z"/>
</svg>
