<?xml version="1.0" encoding="utf-8"?>
<!-- Generator: Adobe Illustrator 24.2.0, SVG Export Plug-In . SVG Version: 6.00 Build 0)  -->
<svg version="1.1" id="Layer_1" xmlns="http://www.w3.org/2000/svg" xmlns:xlink="http://www.w3.org/1999/xlink" x="0px" y="0px"
	 viewBox="0 0 361.9 107.1" style="enable-background:new 0 0 361.9 107.1;" xml:space="preserve">
<style type="text/css">
	.st0{fill:#044B91;}
	.st1{fill:#ED3026;}
	.st2{fill:#084F93;}
	.st3{fill:#FDC52C;}
	.st4{fill:#FEFEFE;}
	.st5{fill:#E1E8F0;}
	.st6{fill:#0F417A;}
	.st7{fill:#F0261C;}
	.st8{fill:#FDFDFD;}
</style>
<g>
	<path class="st0" d="M68,24.9c-0.8-1.1-1.6-2.2-2.5-3.4c5.7,0,11.2,0,16.9,0c-0.4,0.9-1,1.7-1.7,2.4c-1.9,1.9-2.5,4-2.4,6.7
		c0.2,4,0.1,8.1,0.1,12.1c0,2.2,0.2,4.3,1.4,6.2c3.6,5.8,10.7,4.5,13.2,0.3c1.1-1.9,1.4-4,1.4-6.1c0-6.1,0-12.1,0-18.2
		c0-2.4,1-3.4,3.3-3.5c0.9,0,1.8,0,2.7,0c1.5,0.1,2.7,1.3,2.7,2.8c0,7.3,0.3,14.5-0.2,21.8c-0.1,1.8-0.6,3.6-1.4,5.2
		c-1.3,2.7-3.4,4.6-6.2,5.6c-0.3,0.1-0.6,0.2-0.9,0.4c0,0,0,0.1-0.1,0.2c0.3,0,0.5,0.1,0.8,0.1c2,0,4,0,6,0c0.6,0,1-0.1,1.3-0.6
		c0,0,0-0.1,0.1-0.1c1.2-1.5,2.8-2.9,3.4-4.6c0.6-1.6,0.2-3.7,0.2-5.5c0-7,0-13.9,0-20.9c0-3.1,1.4-4.5,4.5-4.5c5.6,0,11.2,0,16.7,0
		c0.7,0,1.5,0,2.2,0.3c1,0.3,1.4,1,1.4,2c0,1-0.6,1.4-1.4,1.7c-1.1,0.4-2.3,0.3-3.5,0.4c-2,0.2-4,0.1-6,0.4
		c-2.5,0.4-3.9,1.6-4.4,3.6c-0.6,2.5,0.2,4.9,2.1,6.3c1.3,0.9,2.7,1.3,4.3,1.4c2,0.1,4.1,0.2,6.1,0.4c0.7,0.1,0.8-0.3,0.8-0.8
		c0.8-7.9,5.4-12.8,12.5-15.4c3-1.1,6.2-1,9.4-1c2.4,0.1,4.8,0.3,7.1,1.2c0.3,0.1,0.6,0.2,0.8,0.4c0.7,0.5,1.2,0.8,1.7-0.3
		c0.2-0.5,0.9-0.6,1.4-0.6c0.7,0,1.5,0,2.2,0c2.9,0.1,4.1,1,4.6,3.9c0.5,2.4,0.7,4.9,1.2,7.3c0.5,2.9,1,5.8,1.8,8.7
		c0.2,0.6,0.4,1.2,0.7,1.7c0.7,1.4,1.6,1.4,2.4,0.1c0.9-1.4,1.3-3,1.7-4.6c1-4.2,1.7-8.4,2.5-12.6c0.1-0.5,0.2-0.9,0.3-1.4
		c0.8-2.8,1.7-3.5,4.6-3.5c1.8,0,3.6,0,5.4,0c1.9,0.1,2.8,0.7,3.3,2.6c0.8,2.9,1.1,5.9,1.7,8.9c0.7,3.2,1.2,6.5,2.4,9.6
		c0.3,0.8,0.6,1.9,1.7,1.9c1.1,0,1.3-1.1,1.6-2c1.1-3.5,1.8-7.2,2.5-10.8c0.4-1.9,0.7-3.8,1.1-5.7c0.1-0.7,0.3-1.4,0.6-2.1
		c0.5-1.2,1.3-2,2.7-2c1.2,0,2.3-0.1,3.5-0.1c1.2,0,1.8,0.6,1.9,1.8c0.2,1.4-0.1,2.7-0.4,4c-1.8,7.7-3.7,15.4-5.6,23.1
		c-0.3,1.1-0.5,2.2-0.8,3.3c-0.4,1.7-1.1,3.3-2.9,4.1c2.9,0,5.7,0,8.6,0c1,0,1.2,0.3,1.2,1.2c0,4.8-0.1,9.6,0,14.4
		c0,1.1-0.3,1.3-1.4,1.3c-44.5,0-89,0-133.4,0c-19.5,0-39.1,0-58.6,0c-1.5,0-1.5,0-1.5-1.4c0-4.8,0-9.6,0-14.3
		c0-0.9,0.2-1.2,1.2-1.2c5.8,0,11.7,0,17.5,0c0.4,0,0.8,0,1.2-0.1c0.5,0.2,0.9,0.2,1.4,0c1.2,0,2.3,0,3.5,0c0.1,0.5,0.3,1,0.4,1.6
		c0.1,0.8,0,2,0.4,2.3c0.6,0.4,1.6,0,2.4,0c0.6,0,0.8-0.2,0.6-0.8c-0.3-1-0.6-1.9-0.9-2.9c0.2,0,0.4-0.1,0.7-0.1
		c1.5,0.1,3.1,0.1,4.6,0c0.8,0.1,1.6,0.2,2.4,0c1.4,0.2,2.8,0.2,4.1,0c1,0.1,2,0.2,2.9,0c1.2,0.2,2.4,0.2,3.5,0
		c1.2,0.2,2.3,0.2,3.5,0c1,0.2,2,0.2,3.1,0c1.3,0.2,2.7,0.1,4,0c1.8,0.2,3.6,0.1,5.3,0c-1.6-0.6-3.2-1.3-4.6-2.2
		c-1.1-0.8-1.9-1.8-2.7-2.9c-0.5-1-0.9-1.9-1.4-2.9c-0.3-1.3-0.5-2.5-0.8-3.8c-0.1-1.4-0.1-2.7-0.2-4.1c0.1-1.1,0.1-2.2,0-3.3
		c0.1-1.5,0.1-2.9,0-4.4c0-0.9,0-1.7,0-2.6c0-1,0.1-2,0-2.9c0-0.6,0.3-1.3-0.3-1.9C69,25.9,68.6,25.4,68,24.9z M85.5,68.2
		c0.4-0.4,0.2-0.8,0.2-1.2c-0.1-0.6,0.2-0.9,0.7-1.2c1-0.3,1.5,0.4,2.2,1.2c0-1.2,0-2.2,0-3.2c0.1-0.1,0.3-0.2,0.4-0.3
		c0.6-1.8,0.5-2.1-0.8-2.3C88.1,61.1,88,61,87.9,61c-1.7,0-3.5,0-5.2,0c-0.3,0-0.4,0.2-0.4,0.5c1.3,0.4,1.6,1.3,1.5,2.5
		c-0.1,0.8,0,1.7,0,2.5c0,1.2,0.3,2.5-1.4,3.1c2.3,0.1,4.5,0.1,6.8,0.1c0.2,0,0.5,0,0.5-0.3c0.2-0.8,0.5-1.6,0.2-2.7
		c-0.3,0.6-0.5,1.1-0.9,1.5c-0.6,0.8-1.5,1-2.5,0.8C86,69.1,85.5,68.9,85.5,68.2z M169.8,57.5c-1.8-0.8-2.6-2.1-3.1-3.6
		c-0.4-1.4-0.9-2.8-1.2-4.2c-1.8-7.6-3.5-15.3-5.4-22.9c-0.2-0.7-0.4-1-1.1-1.1c-2.4-0.3-4.8-0.5-7.2-0.5c-8-0.1-13.3,6.5-13.7,12
		c-0.6,8,4.1,14.3,12,15.6c3.1,0.5,6.1,0.3,9.2,0.2c1.6-0.1,2.1,0.5,1.7,2.1c-0.2,0.8-0.7,1.4-1.5,1.7c-0.5,0.1-1,0.2-1.5,0.6
		C161.8,57.5,165.6,57.5,169.8,57.5z M143.4,57.5c0-0.1,0-0.1,0-0.2c-0.4-0.1-0.7-0.3-1.1-0.4c-6.8-2.6-11.8-6.8-13.3-14.4
		c-0.1-0.4-0.2-0.6-0.7-0.6c-1.3,0.1-2.6,0.1-3.9,0.2c-1.8,0.1-3.7,0-5.5,0.6c-2.4,0.8-3.5,2.2-3.5,4.7c0,1.7,0,3.5,0,5.2
		c0,1.8,0.3,3.6-1.9,4.8C123.7,57.5,133.6,57.5,143.4,57.5z M194.5,57.5c-1.8-1-2.4-2.5-2.7-4.1c-0.2-0.9-0.4-1.7-0.6-2.6
		c-0.8-4.1-1.7-8.1-2.5-12.2c-0.2-0.9-0.5-1.8-1-2.6c-0.9-1.4-2-1.4-2.9,0c-0.4,0.6-0.7,1.3-0.9,2.1c-1.2,4.5-2.3,9-3.1,13.6
		c-0.4,2.2-0.8,4.4-3.2,5.8C183.3,57.5,188.7,57.5,194.5,57.5z M62.1,69.9c2.8,0,4.8-1.8,4.8-4.4c0-2.6-1.9-4.3-4.7-4.4
		c-2.9,0-4.8,1.7-4.8,4.4C57.4,68.1,59.3,69.9,62.1,69.9z M157.4,63.5c0.1,0,0.2,0.1,0.3,0.1c0.1,1.2,0.1,2.4,0.2,3.6
		c0.1,1,0.2,2.1-1.2,2.5c1.2,0,2.3,0,3.6,0c-1.7-1.1-2-7.1-0.4-8.3c-0.7,0-1.4,0-2,0c-0.3,0-0.5,0-0.5,0.4c0,1.1-0.7,1.9-1,2.8
		c-0.4,1-0.8,2.1-1.5,3.1c-0.7-1.7-1.7-3.2-2-4.8c-0.3-1.7-1.3-1.7-2.5-1.6c-0.1,0-0.2,0.1-0.5,0.2c1.4,0.3,1.4,1.2,1.3,2.2
		c-0.1,0.9-0.2,1.9-0.4,2.8c-0.2,1.2-0.1,2.5-1.5,3.2c1.1,0,2.1,0,3.1,0c-0.4-0.4-1.1-0.4-1.1-1c-0.2-1.7,0-3.3,0.5-5
		c0.9,2,1.8,4.1,2.8,6.2C155.5,67.6,156.4,65.6,157.4,63.5z M81.1,64.2c0-0.5,0-0.9,0-1.3c0.2-1-0.3-1.5-1.3-1.6
		c-1.2-0.2-2.3-0.2-3.5,0.1c-1.9,0.5-3.2,2.2-3.3,4.2c-0.1,2,1.1,3.5,3.1,4.1c1.1,0.3,2.2,0.3,3.4,0.2c1.4-0.2,2.2-1.5,1.8-3.1
		c-0.4,0.6-0.6,1.1-1,1.6c-1,1.2-2.4,1.4-3.7,0.5c-1.8-1.3-2.1-4.5-0.6-6.2c1.4-1.5,3.6-1.1,4.4,0.8C80.6,63.6,80.6,63.9,81.1,64.2z
		 M172.4,69.7c-0.7-0.4-0.7-1-0.7-1.6c0-0.8,0-1.7,0-2.5c-0.1-1.3-0.8-1.8-2.1-1.4c-0.3,0.1-0.6,0.2-0.9,0.4
		c-0.3,0.1-0.4,0.3-0.6-0.2c-0.3-0.7-0.7,0.1-1,0.1c-0.2,0-0.6,0.1-0.4,0.6c0.8,1.1,0.3,2.4,0.3,3.6c0,0.7-0.5,0.9-1.2,0.7
		c-0.6-0.2-1-0.6-0.9-1.3c0-0.8,0.1-1.7,0-2.5c-0.1-1.3-1.1-1.8-2.3-1.2c-0.4,0.2-0.8,0.5-1.1,0.8c-0.2,0.1-0.4,0.3-0.2,0.5
		c0,0.1,0.2,0.2,0.4,0.2c0.2,0,0.4-0.1,0.4-0.4c0.1-0.6,0.5-0.8,1-0.7c0.4,0.1,0.8,0.3,0.8,0.8c0,0.5,0.2,1.1-0.5,1.4
		c-0.4,0.2-0.8,0.4-1.3,0.6c-0.7,0.2-1,0.7-0.8,1.4c0.3,0.8,0.9,1,1.7,0.8c0.3-0.1,0.7-0.3,1.1-0.2c1.6,0.3,3.2,0.1,4.8,0.1
		c-0.6-0.3-0.8-0.8-0.8-1.4c0-0.8,0-1.5,0-2.3c-0.1-0.8,0.5-1,1.1-1.1c0.6-0.1,1.2,0,1.5,0.6c0.5,0.9,0.2,3.5-0.5,4.3
		C170.9,69.7,171.6,69.7,172.4,69.7z M47.6,61.4c1.3,0.7,1.7,1.7,2.1,2.6c0.7,1.6,1.3,3.2,2,4.7c0.2,0.4,0.2,1.2,0.8,1.2
		c0.6,0,0.6-0.8,0.8-1.2c1.3-2.4,1.6-5.4,3.9-7.3c-1.2,0-2.4,0-3.7,0c0.6,0.5,1.7,0.3,1.4,1.3c-0.5,1.6-1,3.2-1.8,5
		c-0.6-1.5-1.1-2.8-1.6-4c-0.2-0.4-0.4-0.9-0.4-1.3c-0.1-0.7,0.8-0.5,1-1C50.6,61.4,49.3,61.4,47.6,61.4z M143.4,69.6
		c0.2,0,0.4,0.1,0.6,0.1c0.6,0,1.3,0,1.9,0c-0.8-0.4-0.7-1.1-0.7-1.7c0-0.8,0-1.5,0-2.3c-0.1-1.4-0.9-1.9-2.2-1.5
		c-0.3,0.1-0.6,0.2-0.8,0.3c-0.3,0.2-0.5,0.3-0.7-0.2c-0.2-0.6-0.6,0-1,0.1c-0.2,0.1-0.7,0.2-0.4,0.6c0.7,1,0.3,2.1,0.4,3.2
		c0.1,0.8-0.3,1.3-1.1,1.3c-0.7,0-1.1-0.5-1.1-1.3c0.1-1.2,0-2.3,0-3.5c0-0.2,0-0.6-0.2-0.5c-0.5,0.1-0.9,0.2-1.3,0.4
		c-0.3,0.2,0,0.4,0.1,0.5c0.7,0.7,0.4,1.6,0.4,2.4c0,0.8,0.1,1.6-0.8,2.1c2,0,3.8,0,5.7,0c-0.9-0.3-0.8-1-0.8-1.7c0-0.7,0-1.3,0-2
		c0-0.6,0.2-0.9,0.8-1.1c0.6-0.2,1.2-0.2,1.6,0.3C144.5,66,144.2,68.9,143.4,69.6z M67.8,61.4c-0.1,0.1-0.2,0.2-0.3,0.2
		c1.8,0.1,1.7,1.3,1.7,2.4c0,1,0,2,0,2.9c0,1.1,0,2.3-1.4,2.6c1.5,0,3,0,4.5,0c-1.3-0.4-1.4-1.4-1.4-2.4c0-1,0-2,0-2.9
		c0-1.2-0.2-2.4,1.4-2.8C70.8,61.4,69.3,61.4,67.8,61.4z M106.6,64.2c1.1,0.7,1.2,1.7,1.6,2.6c0.4,1,0.7,2,1.3,2.9
		c0.8-1,0.9-2.3,1.7-3.3c0.7,1.1,0.8,2.3,1.5,3.3c1.2-1.8,1.4-4,3-5.6c-0.6,0-1.2-0.1-1.9,0.1c0.2,0.2,0.6,0.3,0.5,0.7
		c-0.2,1-0.6,1.9-1.1,2.7c-0.3,0.5-0.5,0-0.6-0.2c-0.3-0.7-0.5-1.4-0.8-2.1c-0.2-0.5,0-0.8,0.5-1.1c-0.6-0.1-1.2-0.1-1.7-0.1
		c-0.2,0-0.4,0.1-0.7,0.1c1.2,1.1,1.1,2.1-0.4,3.9c-0.2-1.4-1.6-2.4-0.7-3.9C108.2,64.2,107.5,64.2,106.6,64.2z M188.5,64.4
		c0-0.9,0-1.7,0-2.6c0-0.3,0.2-0.8-0.2-0.9c-0.4-0.2-0.9,0.1-1.2,0.4c-0.4,0.3,0.2,0.5,0.2,0.7c0.1,0.3,0.1,0.6,0.1,1
		c0,1.8,0,3.6,0,5.5c0,0.7,0.3,1.1,0.9,1.2c1.5,0.3,2.7,0.1,3.7-1.1c0.8-0.9,1-2.2,0.3-3.3c-0.6-1-1.6-1.3-2.8-1
		C189.3,64.3,189,64.5,188.5,64.4z M128.8,66.8c1.3,1.3,2,3.2,4.3,2.8c-1.2-0.8-2-1.7-2.8-2.6c-0.6-0.6-0.5-1.1,0.1-1.6
		c0.6-0.5,1.3-0.8,2.1-1.2c-1,0-1.9,0-2.7,0c0.4,0.9,0,1.6-1,2c0-1.6,0-3.1,0-4.7c0-0.3,0.2-0.8-0.3-0.7c-0.3,0-0.7,0.2-1,0.4
		c-0.4,0.3,0.2,0.5,0.2,0.7c0,0.3,0.1,0.6,0.1,0.9c0,1.7,0,3.4,0,5.1c0,0.6-0.1,1.2-0.8,1.6c1,0,1.7,0,2.8,0
		C128.4,69,128.9,68,128.8,66.8z M37.4,64.3c0.9,1.1,0.5,2.3,0.6,3.5c0.1,0.9-0.5,1.2-1.2,1.3c-0.8,0.1-1.2-0.4-1.3-1.2
		c-0.1-0.8-0.1-1.5-0.1-2.3c0-1.5,0-1.5-1.6-1.4c-0.1,0-0.1,0.1-0.3,0.2c0.8,0.3,0.8,1,0.8,1.6c0,0.5,0,1.1,0,1.6
		c0.1,1.9,0.9,2.5,2.7,1.8c0.3-0.1,0.6-0.4,0.8-0.2c0.7,1.1,1.3-0.1,2,0c-0.7-0.1-0.8-0.5-0.8-1c0-1.1,0-2.1,0.1-3.2
		c0.1-0.8-0.1-1.2-1-0.9C37.9,64.3,37.6,64.2,37.4,64.3z M183.2,69.8c1.8,0,3-1.2,3.1-2.9c0-1.7-1.1-2.7-3-2.8
		c-1.8-0.1-3.1,1.2-3.1,2.8C180.2,68.6,181.4,69.8,183.2,69.8z M119,69.8c1.8,0,3.1-1.2,3.1-2.8c0-1.7-1.1-2.9-3-2.9
		c-1.8,0-3,1.1-3.1,2.8C116,68.6,117.2,69.7,119,69.8z M33.1,66.9c0-1.7-1.2-2.8-3-2.8c-1.8,0-3,1.2-3,2.9c0,1.8,1.2,2.9,3.1,2.9
		C31.8,69.8,33.1,68.5,33.1,66.9z M23.5,64.2c-0.9,0-1.6-0.1-2.5,0.1c0.5,0.3,0.7,0.7,0.9,1.2c0.4,1.1,0.8,2.3,1.3,3.3
		c0.6,1.1,0.2,2-0.2,3c-0.1,0.3-0.3,0.5-0.7,0.3c-0.3-0.1-0.6-0.2-0.7,0.2c-0.1,0.3,0,0.5,0.2,0.7c0.3,0.2,0.5,0.2,0.8,0
		c0.3-0.2,0.4-0.5,0.6-0.8c0.6-1.6,1.2-3.2,1.8-4.7c0.5-1.1,0.7-2.4,1.9-3.2c-0.8,0-1.4,0-2,0c0.7,0.8,0.4,2.5-0.7,3.9
		C23.1,66.6,22.7,64.9,23.5,64.2z M198.4,69.3c-1.1-0.3-1.1-1.1-1-1.9c0-0.7,0-1.5-0.1-2.2c-0.2-1.1-1.1-1.5-2-1
		c-0.5,0.2-0.9,0.6-1.3,0.9c-0.2,0.1-0.4,0.3-0.2,0.5c0,0.1,0.2,0.1,0.4,0.2c0.2,0,0.4-0.1,0.4-0.4c0-0.6,0.4-0.8,0.9-0.7
		c0.6,0.1,1,0.4,1.1,1c0.1,0.6-0.1,0.9-0.6,1.1c-0.5,0.2-0.9,0.4-1.4,0.6c-0.5,0.2-0.8,0.4-0.7,1c0.1,0.6,0.5,1.3,1,1.1
		c1.2-0.4,2.3,0.1,3.4-0.1C198.1,69.6,198.2,69.5,198.4,69.3z M99.3,69.4c-1.1-0.3-1-1.1-1-1.9c0-0.7,0-1.5-0.1-2.2
		c-0.1-0.9-0.9-1.4-1.7-1.1c-0.6,0.2-1.2,0.6-1.6,1c-0.1,0.1-0.3,0.3-0.2,0.5c0,0.1,0.2,0.1,0.3,0.1c0.3,0,0.5,0,0.5-0.4
		c0-0.6,0.4-0.8,0.9-0.7c0.6,0.1,0.9,0.4,1.1,1.1c0.1,0.6-0.1,0.9-0.7,1.1c-0.5,0.2-0.9,0.4-1.4,0.6c-0.5,0.2-0.8,0.4-0.7,1
		c0.1,0.6,0.5,1.3,1,1.1c1.2-0.4,2.3,0.1,3.4-0.1C99,69.6,99.1,69.5,99.3,69.4z M101.4,63.2c-1.4,0.9-1.4,0.9-1,2.1
		c0.1,0.2,0,0.4,0,0.5c0,0.8,0,1.5,0,2.3c0,1.3,0.4,1.7,1.7,1.5c0.4,0,0.8-0.1,1.2-0.4c-1.9-0.3-1.9-0.3-1.9-2.3c0-0.3,0-0.5,0-0.8
		c-0.1-0.9,0.1-1.4,1.2-1.3c0.3,0,0.8,0.2,0.7-0.4c0-0.5-0.5-0.3-0.8-0.3C101.7,64.4,101.2,64.2,101.4,63.2z M177.8,63.2
		c-0.3,0.8-2.2,0.8-0.9,2.2c0.1,0.1,0,0.4,0,0.5c0,0.7,0,1.5,0,2.2c0,1.4,0.4,1.8,1.8,1.6c0.4-0.1,0.8-0.2,1.2-0.3
		c-1.8-0.3-1.9-0.5-1.9-2.3c0-0.3,0-0.5,0-0.8c-0.1-1,0.1-1.6,1.3-1.4c0.3,0,0.8,0.1,0.7-0.4c0-0.4-0.4-0.3-0.7-0.3
		C178.5,64.2,177.7,64.5,177.8,63.2z M42.2,65c-0.3-0.3,0-1.2-0.9-0.7c-0.4,0.3-0.9,0.2-0.6,1.1c0.5,1.3,0.5,2.8-0.3,4.2
		c0.9,0,1.7,0.1,2.6-0.2c-1-0.1-1.1-0.8-1.1-1.5c0-0.5,0-1,0-1.5c0.1-0.9,0.2-1.8,1.5-1.2c0.5,0.2,0.8-0.2,0.8-0.7
		c0-0.4-0.4-0.5-0.7-0.5C43.1,64.1,42.7,64.6,42.2,65z M125.5,69.7c-0.4-0.4-1-0.4-1-1.1c0-0.9-0.1-1.7,0.1-2.6
		c0.2-0.7,0.5-1.2,1.3-0.7c0.3,0.2,0.5,0.1,0.7-0.2c0.2-0.2,0.3-0.4,0.1-0.7c-0.2-0.3-0.5-0.3-0.8-0.2c-0.6,0.1-0.9,0.6-1.4,0.9
		c-0.3-0.3,0.1-0.8-0.4-0.8c-0.4,0-0.8,0.2-1.1,0.4c-0.4,0.3,0.1,0.4,0.2,0.7c0.2,1.5,0.6,2.9-0.4,4.4
		C123.8,69.7,124.6,69.7,125.5,69.7z M175.5,69.7c-0.7-0.4-0.7-1-0.7-1.6c0-1.2,0-2.3,0-3.5c0-0.2,0.1-0.5-0.2-0.5
		c-0.4,0.1-0.8,0.2-1.2,0.4c-0.3,0.2-0.1,0.4,0.1,0.5c0.7,0.7,0.4,1.6,0.4,2.4c0,0.8,0.2,1.7-1.1,2.2
		C173.9,69.7,174.7,69.7,175.5,69.7z M137.8,60.9c-0.4,0-0.6,0.2-0.6,0.6c0,0.4,0.2,0.6,0.6,0.6c0.4,0,0.6-0.2,0.6-0.6
		C138.4,61.2,138.2,61,137.8,60.9z M174.3,62.1c0.4,0,0.6-0.2,0.6-0.6c0-0.4-0.2-0.6-0.6-0.6c-0.4,0-0.6,0.3-0.6,0.6
		C173.7,62,173.9,62.1,174.3,62.1z"/>
	<path class="st1" d="M45.2,57.7c0.3,1,0.6,2,0.9,2.9c0.2,0.6,0.1,0.8-0.6,0.8c-0.8,0-1.9,0.4-2.4,0c-0.4-0.3-0.3-1.5-0.4-2.3
		c-0.1-0.5-0.3-1-0.4-1.6c-0.4-1.7-0.8-3.4-1.1-5.1c-0.2-1.4-0.2-1.4-1.5-0.9c-0.2,0.1-0.3,0.2-0.5,0.2c-0.5,0.1-1,0.4-1.5,0.7
		c-1.5,0.6-2.7,1.7-4.2,2.2c-0.8,0.3-1.6,0.4-2.2,1.2C31,55.4,31,55,31.1,54.6c0.4-2.1-0.7-3.4-2.4-4.3c-3.2-1.7-6.4-3.4-9.9-4.6
		c1.6-1.3,1.3-2.9,0.6-4.5c-0.6-1.3-1.2-2.5-1.9-3.9c0.5-0.1,0.9,0.1,1.4,0.2c1.3,0.3,2.6,0.2,3.7-0.4c1.1-0.6,1.8-1.5,1.7-2.7
		c-0.1-1.1,0.4-1.1,1.2-0.7c1.7,0.8,3.4,1.5,5,2.6c0.2-0.6-0.1-0.9-0.3-1.2c-1.7-2.8-2.5-6-4.1-8.8c-0.3-0.5,0.1-0.6,0.5-0.7
		c1-0.1,2,0.1,3,0.5c0.7,0.3,1,0.2,1.1-0.6c0.1-0.6,0.3-1.2,0.7-1.7c0.9-1.4,1.4-2.9,1.5-4.5c0-0.2-0.1-0.5,0.2-0.5
		c0.2-0.1,0.4,0.2,0.5,0.3c1.6,1.5,3.2,3.1,4.8,4.6c0.4,0.4,0.7,0.5,1.1,0c0.7-0.8,1.5-1.6,2.5-2.1c0.5-0.3,0.7-0.2,0.8,0.4
		c0.1,1.3,0.2,2.6,0.4,3.9c0,0.4,0,0.8,0.2,1.1c0.1,1.9,0.4,3.8,0.2,5.9c0.6-0.4,0.8-0.9,1.1-1.3c0.8-1.3,1.7-2.5,2.8-3.6
		c0.5-0.5,0.9-0.9,1.4,0.1c0.2,0.4,0.5,0.6,0.9,0.6c0.8,0.6,1.5,0.3,2.3,0.1c1.3-0.5,2.6-1,4.1-1.6c-0.3,1.7-0.6,3.2-0.5,4.8
		c0,0.7,0.1,1.4,0.7,1.9c0.4,1,1.4,1.1,2.5,1.1c-0.3,0.5-0.6,0.8-0.8,1.2c-2.1,2.9-4.6,5.6-6.5,8.7c-1,1.6-0.9,2.4,0.5,3.8
		c0.1,0.4,0.7,0.6,0.7,1.1c-0.4,0.3-0.8,0.1-1.2,0.2c-1.6,0-3.2-0.2-4.8,0.2c-0.7,0-1.4-0.1-2,0.2c-1.7,0.2-1.7,0.2-1.3,1.7
		c0.2,0.8,0.3,1.6,0.7,2.3C44.3,55.5,44.5,56.7,45.2,57.7z"/>
	<path class="st2" d="M104.4,84.8c0-4.7,3.5-8,8.4-7.9c4.4,0,8,3.6,8,8.1c0,4.5-3.4,7.8-8.2,7.8C107.6,92.8,104.4,89.7,104.4,84.8z
		 M108.5,85c0,1.7,0.5,3.2,1.7,4.5c1.4,1.4,3.4,1.4,4.7-0.1c2.1-2.3,2-6.6-0.2-8.8c-1.4-1.5-3.5-1.4-4.8,0.1
		C108.9,81.9,108.5,83.4,108.5,85z"/>
	<path class="st2" d="M152,92.5c-1.1,0-2-0.6-2.5-1.5c-0.7-1.3-1.7-1.9-3.1-1.7c-0.5,0.1-1,0.1-1.4,0c-1.7-0.2-3,0.3-3.8,2
		c-0.5,1.1-2,1.5-3.2,1.1c-0.8-0.3-0.9-0.8-0.6-1.5c1.2-3,2.4-6,3.5-9.1c0.4-1.1,0.8-2.1,1.2-3.2c0.4-1,1.1-1.5,2.2-1.5
		c0.1,0,0.2,0,0.3,0c3-0.1,3.2,0,4.3,2.7c1.5,3.5,2.9,7.1,4.3,10.6C153.9,92,153.5,92.5,152,92.5z M143.6,85
		c-0.1,0.8,0.2,1.3,0.8,1.6c0.8,0.4,1.6,0.4,2.4-0.1c0.6-0.4,0.8-0.9,0.7-1.6c-0.2-1-0.6-2-1.1-2.9c-0.6-1-1.3-1-1.8,0.1
		C144,83.1,143.7,84.1,143.6,85z"/>
	<path class="st2" d="M179.5,76.9c1,0,2,0.1,3,0.4c2.2,0.7,3.2,2.7,2.1,4.6c-1.1,1.8-1,3.1,0.3,4.7c1.1,1.3,0.4,3.7-1,4.8
		c-2.3,1.7-6.3,1.8-8.7,0.2c-2-1.3-2.3-3.7-0.9-5.6c1.2-1.6,1.2-1.6,0.3-3.2c-1.5-2.8-0.5-4.9,2.5-5.7C178,77,178.7,76.9,179.5,76.9
		z M179.4,85.7c-1.5,0-2.2,0.9-2.2,2.4c0,1.4,1.1,2.6,2.3,2.6c1.3,0,2.3-1.3,2.3-2.7C181.7,86.5,180.9,85.7,179.4,85.7z M181.6,81
		c0-1.3-1-2.4-2.2-2.4c-1.1,0-2.1,1.1-2.2,2.3c0,1.3,0.9,2.5,2,2.5C180.5,83.5,181.6,82.4,181.6,81z"/>
	<path class="st2" d="M131.5,92.7c-4.4,0-7.7-2.1-8.9-5.6c-1.5-4.6,1.4-9.3,6.1-10c1.7-0.3,3.4-0.2,5.1,0.2c0.4,0.1,0.7,0.2,1,0.4
		c0.5,0.2,0.9,0.6,0.8,1.2c-0.2,0.7-0.8,0.3-1.2,0.3c-1.1-0.1-2.2-0.3-3.3-0.1c-2.8,0.4-4.8,2.4-5,5.1c-0.2,3.1,1.5,5.5,4.3,6.3
		c1.4,0.4,2.8,0.3,4.2,0.2c0.4,0,0.9-0.2,1.1,0.4c0.1,0.6-0.2,1-0.8,1.2C133.8,92.7,132.6,92.7,131.5,92.7z"/>
	<path class="st2" d="M191.5,92.8c-0.9-0.1-2,0-3.1-0.5c-0.4-0.2-0.9-0.5-0.7-1.1c0.1-0.5,0.7-0.5,1.1-0.5c1.4,0.1,2.8,0,4.1-0.5
		c1-0.4,1.8-0.9,1.9-2.1c0.1-1.2-0.6-2-1.7-2.4c-0.5-0.2-1.1-0.4-1.6-0.7c-0.6-0.3-0.6-0.7,0-1c0.6-0.3,1.2-0.5,1.8-0.8
		c0.7-0.3,1.2-0.9,1.2-1.7c0-0.9-0.4-1.5-1.2-2c-1.1-0.6-2.4-0.5-3.6-0.8c-0.5-0.1-1.3,0.1-1.3-0.6c0-0.6,0.7-0.8,1.2-0.9
		c2.4-0.5,4.8-0.7,7,0.5c2.1,1.1,2.5,3.5,0.9,5.3c-1,1.2-1,1.2,0,2.3c2.2,2.4,1.5,5.5-1.5,6.7C194.7,92.7,193.2,92.8,191.5,92.8z"/>
	<path class="st2" d="M207.1,92.5c-1.2,0-2.3,0-3.5,0c-0.7,0-1.5-0.1-1.8-0.8c-0.3-0.8,0-1.5,0.5-2.1c1.2-1.2,2.5-2.5,3.7-3.7
		c0.6-0.7,1.3-1.3,1.8-2.1c1.5-2.2,0.6-4.2-2-4.7c-0.7-0.1-1.5-0.1-2.2,0c-0.5,0-1,0-1.1-0.6c-0.1-0.5,0.3-0.8,0.7-1
		c2.3-0.7,4.6-0.9,6.8,0.1c2.2,1,2.8,3,1.7,5.4c-0.8,1.7-2,3-3.2,4.4c-0.5,0.6-1.4,1.2-1,2.1c0.4,1,1.5,0.8,2.3,0.9
		c0.5,0.1,0.9,0,1.4,0.1c0.5,0.1,1,0.2,1,0.8c0.1,0.6-0.4,1-0.9,1.1c-0.5,0.1-1.1,0.1-1.6,0.1C209,92.6,208,92.5,207.1,92.5z"/>
	<path class="st2" d="M154.7,77.3c1.6,0,2.9,0,4.3,0c1.1,0,1.2,0.8,1.2,1.7c0,2.9,0,5.9,0,8.8c0,2,0.7,2.7,2.7,2.7
		c0.8,0,1.5,0,2.3,0c0.7,0,1.6,0.1,1.5,1c0,0.8-0.8,0.9-1.5,0.9c-2.4,0-4.9,0-7.3,0c-1.1,0-1.5-0.4-1.5-1.5c0-3.2-0.1-6.3,0-9.5
		c0-1.3-0.2-2.4-1.1-3.3C155.2,78,155.1,77.7,154.7,77.3z"/>
	<path class="st2" d="M91.7,77.3c1.4,0,2.8-0.1,4.2,0c1,0.1,1.2,0.8,1.1,1.7c0,3,0,6,0,9c0,1.8,0.7,2.6,2.6,2.6c0.9,0,1.8,0,2.7,0
		c0.6,0,1.3,0.3,1.3,1c0,0.7-0.7,0.9-1.3,0.9c-2.6,0-5.2,0-7.8,0c-0.9,0-1.3-0.6-1.3-1.5c0-3.2,0-6.4,0-9.6c0-1.2-0.2-2.3-1.1-3.2
		C91.9,78,91.7,77.8,91.7,77.3z"/>
	<path class="st3" d="M56.2,33.9c-0.6-0.5-0.7-1.2-0.7-1.9c3.7-3.2,7.9-5.6,12.6-7.1c0.5,0.5,1,1,1.3,1.7c-0.7,0.2-1.3,0.4-2,0.6
		C63.1,28.7,59.5,31,56.2,33.9z"/>
	<path class="st3" d="M51.9,28.8c-0.8,0.2-1.5,0.5-2.3-0.1c2.4-2.7,5.4-4.6,8.4-6.5c1.3-0.9,2.7-0.8,4.2-0.6
		c-0.6,0.3-1.2,0.6-1.8,0.9c-3,1.4-5.6,3.4-8.1,5.5C52.1,28.2,51.8,28.4,51.9,28.8z"/>
	<path class="st3" d="M37.6,52.4c0.5-0.3,0.9-0.6,1.5-0.7c-0.1,1.9-0.3,3.9-0.4,5.8c-0.5,0.2-0.9,0.2-1.4,0
		C37.5,55.8,37.6,54.1,37.6,52.4z"/>
	<path class="st3" d="M43.2,27.1c-0.2-0.3-0.1-0.7-0.2-1.1c1.4-1.3,2.9-2.7,4.3-4c0.5-0.4,0.9-0.7,1.7-0.3
		C46.9,23.3,45.1,25.2,43.2,27.1z"/>
	<path class="st4" d="M169.8,57.5c-4.1,0-7.9,0-11.9,0c0.5-0.4,1.1-0.5,1.5-0.6c0.9-0.3,1.3-0.9,1.5-1.7c0.4-1.6,0-2.2-1.7-2.1
		c-3.1,0.1-6.1,0.3-9.2-0.2c-7.9-1.3-12.6-7.6-12-15.6c0.4-5.5,5.7-12.1,13.7-12c2.4,0,4.8,0.3,7.2,0.5c0.7,0.1,0.9,0.4,1.1,1.1
		c1.9,7.6,3.6,15.2,5.4,22.9c0.3,1.4,0.8,2.8,1.2,4.2C167.1,55.4,168,56.7,169.8,57.5z"/>
	<path class="st4" d="M143.4,57.5c-9.8,0-19.7,0-29.9,0c2.2-1.2,1.9-3.1,1.9-4.8c0-1.7,0-3.5,0-5.2c0-2.5,1.1-3.9,3.5-4.7
		c1.8-0.6,3.7-0.4,5.5-0.6c1.3-0.1,2.6-0.1,3.9-0.2c0.5,0,0.6,0.2,0.7,0.6c1.4,7.5,6.5,11.8,13.3,14.4c0.4,0.1,0.7,0.3,1.1,0.4
		C143.4,57.4,143.4,57.5,143.4,57.5z"/>
	<path class="st4" d="M194.5,57.5c-5.8,0-11.2,0-16.9,0c2.4-1.4,2.8-3.6,3.2-5.8c0.8-4.6,1.9-9.1,3.1-13.6c0.2-0.7,0.5-1.5,0.9-2.1
		c0.9-1.4,2-1.3,2.9,0c0.5,0.8,0.8,1.7,1,2.6c0.9,4.1,1.7,8.1,2.5,12.2c0.2,0.9,0.4,1.7,0.6,2.6C192.1,55,192.6,56.6,194.5,57.5z"/>
	<path class="st4" d="M57,57.5c-1.4,0.2-2.7,0.2-4.1,0c0-2.3,0.3-4.6,1-6.8c2.5-8.1,7.7-13.8,15.7-16.8c0.1,1.5,0.1,2.9,0,4.4
		c-0.3,0.1-0.7,0.3-1,0.4C61.2,42.8,57.2,49,57,57.5z"/>
	<path class="st4" d="M56.2,33.9c3.3-2.9,7-5.2,11.2-6.7c0.7-0.2,1.3-0.4,2-0.6c0.5,0.6,0.3,1.2,0.3,1.9c0,1,0,1.9,0,2.9
		c-3.7,1.2-7,3.1-9.9,5.7c-3.6,3.2-6.1,7.2-7.8,11.7c-1.4-1.4-1.5-2.2-0.5-3.8c1.9-3.1,4.4-5.8,6.5-8.7c0.2-0.3,0.5-0.7,0.8-1.2
		C57.6,35,56.6,34.9,56.2,33.9z"/>
	<path class="st3" d="M51.8,48.7c1.7-4.5,4.2-8.5,7.8-11.7c2.9-2.6,6.2-4.6,9.9-5.7c0,0.9,0,1.7,0,2.6c-8,3-13.2,8.7-15.7,16.8
		c-0.7,2.2-1,4.5-1,6.8c-0.8,0.2-1.6,0.1-2.4,0c-0.1-2.5,0.4-5,1-7.5c0.4-0.1,0.8,0.1,1.2-0.2C52.6,49.3,52,49.2,51.8,48.7z"/>
	<path class="st3" d="M57,57.5c0.3-8.5,4.2-14.6,11.6-18.7c0.3-0.2,0.7-0.3,1-0.4c0.1,1.1,0.1,2.2,0,3.3c-0.3,0.2-0.7,0.3-1,0.5
		c-5.6,3.6-8.5,8.7-8.7,15.4C58.9,57.7,57.9,57.6,57,57.5z"/>
	<path class="st4" d="M59.9,57.5c0.2-6.6,3.1-11.7,8.7-15.4c0.3-0.2,0.6-0.3,1-0.5c0.1,1.4,0.1,2.7,0.2,4.1
		c-0.5,0.2-0.8,0.5-1.2,0.8c-3.3,2.9-5,6.6-5.1,11C62.3,57.6,61.1,57.6,59.9,57.5z"/>
	<path class="st3" d="M63.4,57.5c0.2-4.4,1.8-8.1,5.1-11c0.4-0.3,0.7-0.6,1.2-0.8c0.3,1.3,0.5,2.5,0.8,3.8c-2.4,2.1-3.5,4.8-3.7,8
		C65.7,57.6,64.6,57.6,63.4,57.5z"/>
	<path class="st3" d="M62.1,69.9c-2.8,0-4.7-1.8-4.7-4.4c0-2.7,1.9-4.4,4.8-4.4c2.8,0,4.7,1.8,4.7,4.4
		C66.8,68.1,64.9,69.9,62.1,69.9z M59.4,65.4c-0.1,1,0.2,2,0.9,2.9c1.2,1.5,3.2,1.4,4.1-0.4c0.5-1,0.6-2.1,0.4-3.2
		c-0.3-2-1.5-3.2-2.9-3.1C60.3,61.8,59.4,63.1,59.4,65.4z"/>
	<path class="st4" d="M51.4,50c-0.5,2.5-1,4.9-1,7.5c-1.5,0.2-3.1,0.1-4.6,0c-0.1-2.5,0.4-4.9,0.8-7.3C48.2,49.9,49.8,50,51.4,50z"
		/>
	<path class="st5" d="M157.4,63.5c-0.9,2.1-1.9,4.1-2.9,6.4c-1-2.1-1.9-4.2-2.8-6.2c-0.4,1.7-0.6,3.3-0.5,5c0.1,0.6,0.7,0.6,1.1,1
		c-1,0-2,0-3.1,0c1.4-0.7,1.3-2,1.5-3.2c0.1-0.9,0.2-1.9,0.4-2.8c0.1-1,0.2-1.8-1.3-2.2c0.3-0.1,0.4-0.2,0.5-0.2
		c1.2-0.1,2.1-0.1,2.5,1.6c0.3,1.6,1.3,3.1,2,4.8c0.7-1,1.1-2.1,1.5-3.1c0.4-0.9,1-1.8,1-2.8c0-0.4,0.3-0.4,0.5-0.4c0.6,0,1.3,0,2,0
		c-1.5,1.2-1.3,7.2,0.4,8.3c-1.3,0-2.4,0-3.6,0c1.3-0.4,1.2-1.4,1.2-2.5c-0.1-1.2-0.1-2.4-0.2-3.6C157.6,63.6,157.5,63.5,157.4,63.5
		z"/>
	<path class="st3" d="M81.1,64.2c-0.5-0.2-0.5-0.6-0.6-0.8c-0.8-1.9-3-2.2-4.4-0.8c-1.5,1.6-1.3,4.8,0.6,6.2
		c1.2,0.9,2.7,0.7,3.7-0.5c0.4-0.5,0.7-1,1-1.6c0.4,1.6-0.3,2.9-1.8,3.1c-1.1,0.2-2.3,0.2-3.4-0.2c-2-0.6-3.1-2.2-3.1-4.1
		c0.1-2,1.4-3.6,3.3-4.2c1.1-0.3,2.3-0.3,3.5-0.1c1,0.2,1.4,0.6,1.3,1.6C81.1,63.3,81.1,63.7,81.1,64.2z"/>
	<path class="st3" d="M88.1,61.2c1.3,0.1,1.4,0.5,0.8,2.3c-0.1-0.1-0.2-0.1-0.2-0.2c-0.6-1.2-1.4-1.7-2.9-1.4
		c-1.1,0.3-0.3,1.3-0.5,1.9c-0.1,0.2,0,0.4,0,0.5c0,0.5,0.2,0.6,0.6,0.7c1.1,0.2,1.9-0.3,2.6-1.1c0,1,0,2,0,3.2
		c-0.6-0.9-1.2-1.5-2.2-1.2c-0.8-0.3-1.1,0-1,0.8c0.1,0.5-0.1,1.1,0.1,1.6c0,0.7,0.5,0.9,1,0.9c0.9,0.1,1.8,0,2.5-0.8
		c0.3-0.4,0.5-0.9,0.9-1.5c0.3,1,0,1.8-0.2,2.7c-0.1,0.3-0.3,0.3-0.5,0.3c-2.2,0-4.4,0-6.8-0.1c1.7-0.5,1.4-1.9,1.4-3.1
		c0-0.8,0-1.7,0-2.5c0.1-1.2-0.2-2.2-1.5-2.5c0.6-0.3,1.2-0.1,1.8-0.2C85.4,61.3,86.8,61.4,88.1,61.2z"/>
	<path class="st5" d="M172.4,69.7c-0.8,0-1.5,0-2.3,0c0.7-0.8,1-3.3,0.5-4.3c-0.3-0.6-0.9-0.7-1.5-0.6c-0.6,0.1-1.1,0.3-1.1,1.1
		c0.1,0.8,0,1.5,0,2.3c0,0.6,0.2,1.1,0.8,1.4c-1.7,0-3.3,0.2-4.8-0.1c-0.4-0.1-0.7,0.1-1.1,0.2c-0.8,0.3-1.4,0-1.7-0.8
		c-0.3-0.7,0.1-1.2,0.8-1.4c0.4-0.2,0.8-0.4,1.3-0.6c0.7-0.3,0.6-0.8,0.5-1.4c0-0.5-0.4-0.7-0.8-0.8c-0.5-0.1-0.9,0-1,0.7
		c0,0.3-0.2,0.4-0.4,0.4c-0.1,0-0.3-0.1-0.4-0.2c-0.1-0.2,0.1-0.4,0.2-0.5c0.4-0.3,0.7-0.6,1.1-0.8c1.2-0.6,2.1-0.2,2.3,1.2
		c0.1,0.8,0.1,1.7,0,2.5c0,0.7,0.3,1.1,0.9,1.3c0.6,0.2,1.2,0,1.2-0.7c0-1.2,0.4-2.5-0.3-3.6c-0.3-0.4,0.1-0.5,0.4-0.6
		c0.4,0,0.7-0.8,1-0.1c0.2,0.5,0.4,0.3,0.6,0.2c0.3-0.1,0.6-0.3,0.9-0.4c1.3-0.4,2,0.1,2.1,1.4c0.1,0.8,0,1.7,0,2.5
		C171.7,68.7,171.7,69.3,172.4,69.7z M164,67.8c-0.2-0.1,0.3-0.9-0.3-0.7c-0.5,0.1-1.4,0.3-1.4,1.1c0,0.5,0.3,0.9,0.9,0.9
		C163.8,69.1,164,68.5,164,67.8z"/>
	<path class="st3" d="M47.6,61.4c1.7,0,3,0,4.4,0c-0.2,0.5-1.1,0.3-1,1c0,0.5,0.3,0.9,0.4,1.3c0.5,1.3,1,2.5,1.6,4
		c0.8-1.8,1.4-3.4,1.8-5c0.3-1-0.7-0.8-1.4-1.3c1.4,0,2.5,0,3.7,0c-2.3,1.9-2.6,4.9-3.9,7.3c-0.2,0.4-0.2,1.2-0.8,1.2
		c-0.6,0-0.6-0.8-0.8-1.2c-0.7-1.6-1.4-3.1-2-4.7C49.3,63,48.9,62,47.6,61.4z"/>
	<path class="st5" d="M143.4,69.6c0.8-0.7,1.1-3.7,0.5-4.4c-0.4-0.5-1-0.5-1.6-0.3c-0.6,0.2-0.8,0.5-0.8,1.1c0,0.7,0,1.3,0,2
		c0,0.7-0.1,1.4,0.8,1.7c-1.8,0-3.7,0-5.7,0c0.9-0.5,0.8-1.3,0.8-2.1c0-0.8,0.2-1.7-0.4-2.4c-0.1-0.1-0.4-0.3-0.1-0.5
		c0.4-0.2,0.9-0.4,1.3-0.4c0.2,0,0.2,0.3,0.2,0.5c0,1.2,0,2.3,0,3.5c0,0.8,0.4,1.3,1.1,1.3c0.7,0,1.2-0.5,1.1-1.3
		c-0.1-1.1,0.3-2.2-0.4-3.2c-0.3-0.4,0.2-0.5,0.4-0.6c0.3-0.1,0.7-0.7,1-0.1c0.2,0.5,0.3,0.4,0.7,0.2c0.3-0.1,0.5-0.2,0.8-0.3
		c1.4-0.4,2.2,0.1,2.2,1.5c0,0.8,0,1.5,0,2.3c0,0.6-0.1,1.3,0.7,1.7c-0.6,0-1.3,0-1.9,0C143.8,69.7,143.6,69.7,143.4,69.6z"/>
	<path class="st4" d="M66.9,57.5c0.2-3.1,1.2-5.9,3.7-8c0.5,1,0.9,1.9,1.4,2.9c-1.2,1.5-1.9,3.1-1.9,5.1
		C68.9,57.6,67.9,57.6,66.9,57.5z"/>
	<path class="st3" d="M67.8,61.4c1.5,0,3,0,4.5,0c-1.6,0.4-1.4,1.7-1.4,2.8c0,1,0,2,0,2.9c0,1.1,0.1,2.1,1.4,2.4c-1.5,0-3,0-4.5,0
		c1.5-0.3,1.4-1.5,1.4-2.6c0-1,0-2,0-2.9c0-1.1,0.1-2.3-1.7-2.4C67.6,61.5,67.7,61.4,67.8,61.4z"/>
	<path class="st5" d="M106.6,64.2c0.9,0,1.7,0,2.4,0c-0.8,1.5,0.5,2.5,0.7,3.9c1.5-1.8,1.6-2.7,0.4-3.9c0.3,0,0.5-0.1,0.7-0.1
		c0.5,0,1.1,0,1.7,0.1c-0.5,0.3-0.7,0.6-0.5,1.1c0.3,0.7,0.5,1.4,0.8,2.1c0.1,0.2,0.3,0.7,0.6,0.2c0.5-0.9,0.9-1.8,1.1-2.7
		c0.1-0.4-0.3-0.5-0.5-0.7c0.6-0.2,1.2-0.1,1.9-0.1c-1.6,1.6-1.8,3.8-3,5.6c-0.7-1-0.8-2.3-1.5-3.3c-0.8,1-0.9,2.3-1.7,3.3
		c-0.6-0.9-0.9-2-1.3-2.9C107.7,66,107.6,64.9,106.6,64.2z"/>
	<path class="st5" d="M188.5,64.4c0.4,0.1,0.7-0.1,1.1-0.2c1.2-0.3,2.3,0,2.8,1c0.6,1.1,0.4,2.4-0.3,3.3c-1,1.2-2.3,1.4-3.7,1.1
		c-0.7-0.1-1-0.5-0.9-1.2c0.1-1.8,0-3.6,0-5.5c0-0.3,0-0.6-0.1-1c0-0.2-0.6-0.4-0.2-0.7c0.3-0.2,0.8-0.5,1.2-0.4
		c0.3,0.1,0.1,0.6,0.2,0.9C188.5,62.7,188.5,63.6,188.5,64.4z M188.4,66.6c0,0.5,0,1.1,0.1,1.6c0.3,1.1,1.7,1.5,2.5,0.7
		c0.7-0.7,0.9-1.6,0.6-2.6c-0.3-1.1-1.3-1.7-2.3-1.6C188,64.9,188.6,65.9,188.4,66.6z"/>
	<path class="st5" d="M128.8,66.8c0.1,1.1-0.4,2.1,1,2.8c-1.1,0-1.9,0-2.8,0c0.8-0.4,0.8-1,0.8-1.6c0-1.7,0-3.4,0-5.1
		c0-0.3-0.1-0.6-0.1-0.9c0-0.3-0.6-0.4-0.2-0.7c0.3-0.2,0.7-0.4,1-0.4c0.6-0.1,0.3,0.4,0.3,0.7c0,1.6,0,3.1,0,4.7c1-0.4,1.4-1.1,1-2
		c0.9,0,1.7,0,2.7,0c-0.8,0.4-1.5,0.7-2.1,1.2c-0.6,0.5-0.7,0.9-0.1,1.6c0.8,0.9,1.6,1.8,2.8,2.6C130.8,70.1,130.2,68.1,128.8,66.8z
		"/>
	<path class="st4" d="M38.7,57.5c0.1-1.9,0.3-3.9,0.4-5.8c0.2-0.1,0.3-0.2,0.5-0.2c1.4-0.4,1.3-0.4,1.5,0.9c0.3,1.7,0.7,3.4,1.1,5.1
		C41.1,57.5,39.9,57.5,38.7,57.5z"/>
	<path class="st3" d="M70,57.5c0-1.9,0.7-3.6,1.9-5.1c0.8,1.1,1.7,2.1,2.7,2.9c-0.4,0.7-0.6,1.4-0.7,2.2
		C72.6,57.6,71.3,57.7,70,57.5z"/>
	<path class="st5" d="M37.4,64.3c0.3,0,0.5,0,0.7-0.1c0.9-0.2,1.1,0.1,1,0.9c-0.1,1.1,0,2.1-0.1,3.2c0,0.5,0.1,0.9,0.8,1
		c-0.7-0.1-1.3,1-2,0c-0.2-0.3-0.5,0.1-0.8,0.2c-1.8,0.7-2.6,0.2-2.7-1.8c0-0.5,0-1.1,0-1.6c0-0.7,0-1.3-0.8-1.6
		c0.2-0.1,0.2-0.2,0.3-0.2c1.5-0.2,1.5-0.2,1.6,1.4c0,0.8,0,1.5,0.1,2.3c0.1,0.8,0.5,1.2,1.3,1.2c0.8-0.1,1.3-0.4,1.2-1.3
		C37.9,66.6,38.3,65.4,37.4,64.3z"/>
	<path class="st5" d="M183.2,69.8c-1.8,0-3-1.2-3-2.9c0-1.7,1.3-2.9,3.1-2.8c1.9,0.1,3,1.1,3,2.8C186.2,68.6,185,69.8,183.2,69.8z
		 M185,66.9c0-0.5,0-1-0.3-1.5c-0.3-0.6-0.8-1.1-1.5-1.1c-0.7,0-1.2,0.3-1.5,0.9c-0.5,1.1-0.6,2.3,0.1,3.3c0.7,1.2,2.1,1.1,2.9-0.1
		C185,68,185.1,67.5,185,66.9z"/>
	<path class="st5" d="M119,69.8c-1.8,0-3-1.2-3-2.9c0-1.7,1.3-2.8,3.1-2.8c1.8,0,3,1.2,3,2.9C122.1,68.6,120.8,69.8,119,69.8z
		 M117.3,67.2c0,0.1,0,0.4,0.1,0.8c0.3,0.8,0.8,1.4,1.7,1.4c0.9,0,1.4-0.6,1.6-1.3c0.3-1.1,0.3-2.1-0.4-3c-0.4-0.5-0.9-0.8-1.5-0.7
		c-0.6,0.1-1.2,0.3-1.4,1C117.3,65.9,117.2,66.4,117.3,67.2z"/>
	<path class="st5" d="M33.1,66.9c0,1.7-1.2,2.9-3,2.9c-1.9,0-3.1-1.1-3.1-2.9c0-1.7,1.2-2.8,3-2.9C31.9,64,33.1,65.1,33.1,66.9z
		 M31.9,67c-0.1-0.4-0.1-0.8-0.2-1.2C31.5,65,31,64.4,30,64.4c-1,0-1.4,0.6-1.6,1.4c-0.3,1-0.2,1.9,0.3,2.8c0.6,1.1,2,1.2,2.8,0.2
		C31.8,68.2,31.9,67.6,31.9,67z"/>
	<path class="st5" d="M23.5,64.2c-0.8,0.7-0.4,2.4,0.7,3.9c1-1.3,1.4-3.1,0.7-3.9c0.6,0,1.2,0,2,0c-1.2,0.9-1.4,2.1-1.9,3.2
		c-0.6,1.6-1.2,3.2-1.8,4.7c-0.1,0.3-0.3,0.6-0.6,0.8c-0.3,0.2-0.6,0.2-0.8,0c-0.2-0.2-0.3-0.4-0.2-0.7c0.1-0.4,0.4-0.3,0.7-0.2
		c0.3,0.2,0.5,0,0.7-0.3c0.4-1,0.9-1.9,0.2-3c-0.6-1-0.9-2.2-1.3-3.3c-0.2-0.5-0.4-0.8-0.9-1.2C21.8,64,22.6,64.2,23.5,64.2z"/>
	<path class="st5" d="M198.4,69.3c-0.2,0.1-0.3,0.2-0.4,0.3c-1.1,0.2-2.3-0.3-3.4,0.1c-0.5,0.2-0.9-0.5-1-1.1
		c-0.1-0.6,0.3-0.8,0.7-1c0.5-0.2,0.9-0.5,1.4-0.6c0.5-0.2,0.7-0.5,0.6-1.1c-0.1-0.7-0.5-1-1.1-1c-0.5-0.1-0.9,0.1-0.9,0.7
		c0,0.3-0.2,0.4-0.4,0.4c-0.1,0-0.3-0.1-0.4-0.2c-0.1-0.2,0.1-0.4,0.2-0.5c0.4-0.3,0.9-0.7,1.3-0.9c1-0.5,1.9-0.1,2,1
		c0.1,0.7,0.1,1.4,0.1,2.2C197.4,68.3,197.3,69.1,198.4,69.3z M196.4,67.8c-0.1-0.2,0.2-0.8-0.3-0.7c-0.5,0.2-1.4,0.2-1.4,1.1
		c0,0.5,0.3,0.9,0.8,0.9C196.4,69.1,196.4,68.5,196.4,67.8z"/>
	<path class="st3" d="M46.6,50.2c-0.4,2.4-0.9,4.8-0.8,7.3c-0.2,0-0.4,0.1-0.7,0.1c-0.6-1-0.9-2.1-1.2-3.3c0.2-1.3,0.4-2.6,0.7-4
		C45.3,50.1,45.9,50.2,46.6,50.2z"/>
	<path class="st5" d="M99.3,69.4c-0.2,0.1-0.3,0.2-0.4,0.2c-1.1,0.1-2.3-0.3-3.4,0.1c-0.5,0.2-0.9-0.5-1-1.1c-0.1-0.6,0.3-0.8,0.7-1
		c0.5-0.2,0.9-0.5,1.4-0.6c0.5-0.2,0.7-0.5,0.7-1.1c-0.1-0.6-0.5-1-1.1-1.1c-0.5-0.1-0.9,0.1-0.9,0.7c0,0.3-0.3,0.4-0.5,0.4
		c-0.1,0-0.2-0.1-0.3-0.1c-0.1-0.2,0.1-0.4,0.2-0.5c0.5-0.5,1-0.8,1.6-1c0.8-0.3,1.6,0.2,1.7,1.1c0.1,0.7,0.1,1.4,0.1,2.2
		C98.2,68.2,98.2,69,99.3,69.4z M97.3,67.8c-0.2-0.1,0.2-0.8-0.3-0.6c-0.5,0.2-1.4,0.2-1.4,1.1c0,0.5,0.3,0.9,0.8,0.9
		C97.2,69.1,97.3,68.5,97.3,67.8z"/>
	<path class="st5" d="M101.4,63.2c-0.2,1,0.3,1.2,1.1,1.1c0.3,0,0.8-0.2,0.8,0.3c0,0.5-0.5,0.4-0.7,0.4c-1-0.2-1.3,0.4-1.2,1.3
		c0,0.3,0,0.5,0,0.8c0,2,0,2,1.9,2.3c-0.4,0.3-0.8,0.4-1.2,0.4c-1.3,0.1-1.7-0.2-1.7-1.5c0-0.8,0-1.5,0-2.3c0-0.2,0-0.4,0-0.5
		C100,64.1,100,64.1,101.4,63.2z"/>
	<path class="st5" d="M177.8,63.2c-0.1,1.3,0.7,1,1.4,1.1c0.3,0,0.7-0.1,0.7,0.3c0,0.5-0.4,0.4-0.7,0.4c-1.1-0.2-1.4,0.4-1.3,1.4
		c0,0.3,0,0.5,0,0.8c0,1.8,0.1,2,1.9,2.3c-0.4,0.1-0.8,0.2-1.2,0.3c-1.4,0.2-1.8-0.2-1.8-1.6c0-0.7,0-1.5,0-2.2c0-0.2,0.1-0.4,0-0.5
		C175.6,64,177.5,64,177.8,63.2z"/>
	<path class="st5" d="M42.2,65c0.5-0.4,0.9-0.8,1.5-0.8c0.3,0,0.7,0.1,0.7,0.5c0,0.4-0.3,0.9-0.8,0.7c-1.3-0.6-1.4,0.3-1.5,1.2
		c-0.1,0.5,0,1,0,1.5c0,0.7,0.1,1.4,1.1,1.5c-0.9,0.3-1.7,0.2-2.6,0.2c0.8-1.4,0.7-2.9,0.3-4.2c-0.4-1,0.1-0.9,0.6-1.1
		C42.2,63.8,41.9,64.7,42.2,65z"/>
	<path class="st5" d="M125.5,69.7c-0.9,0-1.7,0-2.6,0c0.9-1.4,0.6-2.9,0.4-4.4c0-0.2-0.6-0.4-0.2-0.7c0.3-0.2,0.7-0.4,1.1-0.4
		c0.5,0,0.1,0.6,0.4,0.8c0.4-0.3,0.7-0.8,1.4-0.9c0.3,0,0.6,0,0.8,0.2c0.2,0.3,0,0.5-0.1,0.7c-0.2,0.3-0.4,0.4-0.7,0.2
		c-0.8-0.5-1.1,0-1.3,0.7c-0.2,0.9-0.1,1.7-0.1,2.6C124.5,69.3,125.1,69.3,125.5,69.7z"/>
	<path class="st2" d="M88.6,63.8c-0.6,0.9-1.5,1.3-2.6,1.1c-0.4-0.1-0.7-0.2-0.6-0.7c0-0.2,0-0.4,0-0.5c0.2-0.6-0.6-1.6,0.5-1.9
		c1.4-0.3,2.3,0.2,2.9,1.4c0,0.1,0.1,0.2,0.2,0.2C88.8,63.6,88.7,63.7,88.6,63.8z"/>
	<path class="st5" d="M73.9,57.5c0.1-0.8,0.3-1.5,0.7-2.2c1.5,0.9,3,1.6,4.6,2.2C77.5,57.6,75.7,57.7,73.9,57.5z"/>
	<path class="st5" d="M175.5,69.7c-0.8,0-1.6,0-2.7,0c1.3-0.5,1.1-1.4,1.1-2.2c0-0.8,0.3-1.7-0.4-2.4c-0.2-0.1-0.4-0.4-0.1-0.5
		c0.4-0.2,0.8-0.4,1.2-0.4c0.3,0,0.2,0.3,0.2,0.5c0,1.2,0,2.3,0,3.5C174.8,68.7,174.8,69.3,175.5,69.7z"/>
	<path class="st2" d="M88.1,61.2c-1.4,0.2-2.7,0.1-4.1,0.1c-0.6,0-1.2-0.1-1.8,0.2c0-0.3,0.1-0.5,0.4-0.5c1.7,0,3.5,0,5.2,0
		C88,61,88.1,61.1,88.1,61.2z"/>
	<path class="st5" d="M137.8,60.9c0.4,0,0.6,0.3,0.6,0.6c0,0.4-0.2,0.6-0.6,0.6c-0.4,0-0.6-0.2-0.6-0.6
		C137.2,61.2,137.4,61,137.8,60.9z"/>
	<path class="st5" d="M174.3,62.1c-0.4,0-0.6-0.2-0.6-0.6c0-0.4,0.2-0.6,0.6-0.6c0.4,0,0.6,0.2,0.6,0.6
		C174.9,61.9,174.7,62.1,174.3,62.1z"/>
	<path class="st2" d="M85.5,68.2c-0.2-0.5-0.1-1.1-0.1-1.6c-0.1-0.8,0.3-1.1,1-0.8c-0.5,0.3-0.7,0.6-0.7,1.2
		C85.7,67.3,85.9,67.8,85.5,68.2z"/>
	<path class="st4" d="M44.6,50.5c-0.2,1.3-0.4,2.6-0.7,4c-0.4-0.7-0.5-1.5-0.7-2.3C43,50.6,43,50.6,44.6,50.5z"/>
	<path class="st4" d="M108.5,85c0-1.6,0.4-3.1,1.5-4.4c1.3-1.5,3.4-1.6,4.8-0.1c2.2,2.2,2.3,6.5,0.2,8.8c-1.3,1.5-3.3,1.6-4.7,0.1
		C109,88.2,108.5,86.7,108.5,85z"/>
	<path class="st4" d="M143.6,85c0-0.9,0.4-1.9,0.9-2.9c0.5-1.1,1.2-1.1,1.8-0.1c0.6,0.9,0.9,1.9,1.1,2.9c0.1,0.7-0.1,1.2-0.7,1.6
		c-0.8,0.5-1.6,0.5-2.4,0.1C143.8,86.3,143.5,85.9,143.6,85z"/>
	<path class="st4" d="M179.4,85.7c1.5,0,2.3,0.8,2.3,2.3c0,1.5-1,2.7-2.3,2.7c-1.2,0-2.2-1.2-2.3-2.6
		C177.2,86.6,178,85.7,179.4,85.7z"/>
	<path class="st4" d="M181.6,81c0,1.3-1.1,2.5-2.3,2.4c-1.1,0-2.1-1.2-2-2.5c0-1.2,1.1-2.3,2.2-2.3C180.6,78.6,181.6,79.8,181.6,81z
		"/>
	<path class="st0" d="M59.4,65.4c0-2.2,0.9-3.6,2.5-3.7c1.4-0.1,2.6,1.1,2.9,3.1c0.2,1.1,0.1,2.2-0.4,3.2c-0.9,1.7-2.9,1.9-4.1,0.4
		C59.6,67.4,59.3,66.3,59.4,65.4z"/>
	<path class="st2" d="M164,67.8c0,0.7-0.1,1.3-0.9,1.3c-0.6,0-0.9-0.4-0.9-0.9c0-0.9,0.8-1,1.4-1.1C164.3,67,163.7,67.7,164,67.8z"
		/>
	<path class="st2" d="M188.4,66.6c0.2-0.7-0.4-1.7,0.9-1.9c1-0.1,2,0.5,2.3,1.6c0.3,1,0.1,1.9-0.6,2.6c-0.8,0.9-2.2,0.5-2.5-0.7
		C188.5,67.7,188.5,67.1,188.4,66.6z"/>
	<path class="st2" d="M185,66.9c0,0.6-0.1,1.1-0.4,1.6c-0.7,1.2-2.1,1.2-2.9,0.1c-0.7-1.1-0.6-2.2-0.1-3.3c0.3-0.6,0.8-0.9,1.5-0.9
		c0.7,0,1.2,0.5,1.5,1.1C185,65.9,185.1,66.4,185,66.9z"/>
	<path class="st2" d="M117.3,67.2c0-0.8,0.1-1.3,0.2-1.8c0.2-0.7,0.7-0.9,1.4-1c0.6-0.1,1.1,0.1,1.5,0.7c0.7,0.9,0.7,2,0.4,3
		c-0.3,0.8-0.7,1.3-1.6,1.3c-0.9,0-1.4-0.6-1.7-1.4C117.3,67.6,117.3,67.3,117.3,67.2z"/>
	<path class="st2" d="M31.9,67c0,0.6-0.1,1.2-0.5,1.8c-0.7,1-2.2,0.9-2.8-0.2c-0.5-0.9-0.5-1.8-0.3-2.8c0.2-0.8,0.6-1.5,1.6-1.4
		c1,0,1.4,0.6,1.7,1.4C31.8,66.2,31.9,66.6,31.9,67z"/>
	<path class="st2" d="M196.4,67.8c0,0.7,0,1.3-0.8,1.3c-0.6,0-0.9-0.4-0.8-0.9c0-0.9,0.9-0.9,1.4-1.1
		C196.6,67,196.3,67.6,196.4,67.8z"/>
	<path class="st2" d="M97.3,67.8c0.1,0.8,0,1.4-0.9,1.4c-0.5,0-0.8-0.4-0.8-0.9c0-0.9,0.8-1,1.4-1.1C97.5,67,97.1,67.6,97.3,67.8z"
		/>
</g>
<g>
	<path class="st6" d="M242.2,46.7c2.4,1,4.8,1.8,7.2,2.3c4.7,1,9.5,1.1,14.2,0.7c7-0.7,13.8-2.5,20.5-4.2c5.3-1.3,10.6-2.6,16-3.3
		c7.6-0.9,15-0.5,22.1,2.4c0.4,0.2,0.6,0.3,0.6,0.8c0,14.5,0,29,0,43.5c0,0.1,0,0.3,0,0.5c-1.1-0.4-2.2-0.8-3.3-1.2
		c-5.5-1.8-11.2-2.2-16.9-1.7c-7,0.6-13.7,2.3-20.5,4c-5.1,1.3-10.2,2.5-15.4,3.3c-7.2,1-14.3,0.9-21.2-1.4c-0.9-0.3-1.9-0.7-2.8-1
		c-0.5-0.2-0.6-0.4-0.6-0.9c0-14.2,0-28.4,0-42.6C242.2,47.6,242.2,47.2,242.2,46.7z M251.3,63.6c1.2,2.2,2.6,4.2,4,6.1
		c0.4,0.5,0.7,0.5,1.1,0c1.3-1.6,2.6-3.3,3.6-5.1c0.1-0.2,0.2-0.5,0.5-0.6c0.1,1.7,0.5,3.4,0.7,5c0,0.4,0,0.8,0,1.2
		c0.5,0,1-0.1,1.4-0.1c1-0.1,2-0.2,3.1-0.3c-0.4-0.5-0.4-1-0.5-1.5c-0.7-3.9-1.4-7.9-2.1-11.8c0-0.3,0.1-0.6-0.3-0.7
		c-0.4-0.1-0.6,0.3-0.8,0.5c-0.8,1.1-1.6,2.2-2.4,3.3c-1.2,1.7-2.4,3.3-3.6,5c-0.9-1.4-1.8-2.7-2.6-4c-1.2-1.8-2.3-3.5-3.4-5.3
		c-0.1-0.2-0.3-0.4-0.6-0.4c-0.2,0-0.2,0.3-0.2,0.4c-0.6,3.3-1.2,6.6-1.8,9.9c-0.2,1.1-0.3,2.2-0.9,3.2c1.4,0.5,2.9,0.8,4.3,1.1
		C250.5,67.6,251.2,65.6,251.3,63.6z M307.7,47.9c0.3,0.5,0.3,1,0.3,1.5c0,3.5,0,7,0,10.4c0,0.8,0.1,1.5-0.3,2.3
		c1.3,0,2.5,0.1,3.7,0.2c2,0.2,4.1,0.5,6.1,1.1c0.4,0.1,0.6,0,0.6-0.4c0-0.5,0-1,0-1.5c0-0.3,0.1-0.7-0.1-1c-0.1-0.1-0.6,0-0.9-0.1
		c-1.4-0.2-2.7-0.5-4.1-0.7c-0.5-0.1-0.6-0.3-0.6-0.7c0-0.6,0.1-1.2,0-1.8c-0.1-0.6,0.2-0.7,0.7-0.6c1.3,0.3,2.7,0.4,4,0.9
		c0-1,0-1.9,0-2.8c0-0.2-0.1-0.3-0.4-0.3c-0.7-0.1-1.4-0.2-2.1-0.3c-0.8-0.2-1.8,0-2.2-0.5c-0.4-0.5-0.1-1.4-0.1-2.2
		c0,0,0-0.1,0-0.1c-0.1-0.4,0.1-0.5,0.5-0.4c1.7,0.3,3.4,0.4,5,1.3c0-1,0-1.8,0-2.7c0-0.3-0.1-0.4-0.4-0.5
		C314.3,48.3,311,47.9,307.7,47.9z M287.5,65.1c-0.4-0.3-0.4-0.7-0.4-1.1c0-0.9,0-1.8-0.1-2.7c0-0.5,0.2-0.7,0.6-0.8
		c1.6-0.4,3-1,4.3-1.9c1.3-1,2.3-2.2,2.6-3.8c0.5-2.4-1-4.2-3.6-4.4c-2.9-0.2-5.5,0.8-8.2,1.5c-0.1,0-0.3,0.1-0.2,0.3
		c0.3,0.5,0.3,1.1,0.3,1.7c0,3.1,0,6.2,0,9.3c0,1,0.1,2-0.3,3C284.3,65.9,285.8,65.5,287.5,65.1z M279.3,75.7
		c-1,0.5-2.1,0.6-3.1,0.9c-1.6,0.4-1.6,0.4-1.6-1.2c0-1.3,0-1.3,1.3-1.6c0.4-0.1,0.7-0.2,1.1-0.3c0.9-0.2,1.9-0.6,2.9-0.4
		c0.4,0.1,0.3-0.2,0.3-0.4c0-0.7,0-1.4,0-2.1c0.1-0.6-0.1-0.7-0.7-0.5c-2.8,0.8-5.7,1.4-8.6,2c-0.5,0.1-1,0.1-0.6,0.8
		c0.1,0.3,0.1,0.6,0.1,0.9c0,3.6,0,7.2,0,10.8c0,0.6,0,1.3-0.3,1.9c0.1,0,0.1,0,0.1,0c3.3-0.6,6.6-1.4,9.8-2.2
		c0.2,0,0.3-0.1,0.3-0.3c0-1,0-1.9,0-2.9c-1.7,0.8-3.5,1-5.3,1.5c-0.3,0.1-0.4-0.1-0.4-0.3c0-0.8,0-1.5,0-2.3c0-0.2,0.1-0.3,0.3-0.4
		c1.4-0.2,2.7-0.7,4.1-0.9c0.3,0,0.4-0.1,0.4-0.4C279.2,77.6,279.3,76.6,279.3,75.7z M297,80.3c-0.6-0.5-0.9-1.1-1.2-1.7
		c-2-3.6-4-7.1-6.1-10.7c-0.1-0.2-0.1-0.5-0.5-0.5c-0.4,0-0.5,0.3-0.6,0.6c-0.5,1.2-1.1,2.4-1.6,3.6c-1.9,4.1-3.6,8.3-5.7,12.4
		c1.5-0.4,2.9-0.7,4.4-1.1c0.1,0,0.2-0.1,0.1-0.2c-0.1-0.6,0.3-1.2,0.5-1.7c0.1-0.2,0.2-0.4,0.4-0.4c1.4-0.3,2.8-0.7,4.2-1
		c0.2-0.1,0.4-0.1,0.6,0.2c0.2,0.5,0.6,1,0.5,1.7C293.6,81,295.2,80.7,297,80.3z M277,67.7c1.7-0.4,3.3-0.8,5.1-1.3
		c-0.6-0.5-0.9-1.1-1.2-1.6c-2-3.5-4-7-6.1-10.5c-0.1-0.2-0.1-0.6-0.6-0.6c-0.4,0-0.5,0.3-0.6,0.6c-1,2.3-2,4.5-3.1,6.8
		c-1.4,2.9-2.6,5.8-4.2,8.6c1.4-0.2,2.9-0.5,4.3-0.7c0.1,0,0.4,0,0.3-0.2c-0.1-0.7,0.3-1.2,0.5-1.7c0.1-0.2,0.2-0.3,0.5-0.4
		c1.4-0.3,2.8-0.6,4.2-0.9c0.2-0.1,0.4,0,0.5,0.2C276.8,66.5,277.1,67,277,67.7z M302.9,79.6c-0.2-0.3-0.3-0.6-0.3-0.9
		c0-1.4,0-2.7-0.1-4.1c0-0.3,0.1-0.3,0.4-0.3c1.3,0,2.7-0.3,4,0c0.3,0.1,0.4,0,0.4-0.3c0-0.8,0-1.7,0-2.5c0-0.2,0-0.4-0.3-0.3
		c-1.3,0.3-2.6,0.1-4,0.3c-0.4,0.1-0.5,0-0.5-0.4c0-0.5,0-1,0-1.4c0-1.5,0-1.5,1.5-1.6c1.2-0.1,2.4-0.3,3.6,0.2
		c0.3,0.1,0.3-0.1,0.3-0.3c0-0.7,0-1.5,0-2.2c0-0.5-0.1-0.6-0.6-0.6c-2.8,0-5.6,0.2-8.3,0.6c-0.4,0.1-0.8,0.1-1.3,0.3
		c0.4,0.3,0.4,0.7,0.4,1.1c0.1,3,0.1,5.9,0,8.9c0,1.4,0.1,2.8-0.3,4.2C299.5,79.9,301.1,79.8,302.9,79.6z M295.9,63.2
		c1-0.2,1.9-0.3,2.8-0.4c2.3-0.3,4.6-0.5,6.9-0.6c0.2,0,0.6,0.1,0.6-0.3c0-0.9,0-1.9,0-2.9c-0.4,0.1-0.7,0.2-1.1,0.3
		c-1.3,0.1-2.6,0.2-3.9,0.4c-0.5,0.1-0.6-0.1-0.6-0.5c0-2.7,0-5.3,0-8c0-0.9-0.1-1.9,0.4-2.9c-1.7,0.2-3.4,0.4-5.1,0.8
		c0.4,0.4,0.4,0.8,0.4,1.2c0,3.9,0,7.8,0,11.7C296.3,62.4,296.2,62.8,295.9,63.2z M258.2,87.7c1,0,2.1-0.1,3.1-0.1
		c2.2-0.1,4.4-0.4,6.5-0.7c0.2,0,0.5,0,0.5-0.4c0-0.8,0-1.7,0-2.5c0-0.2-0.1-0.3-0.3-0.2c-1.5,0.7-3.1,0.6-4.7,0.9
		c-0.5,0.1-0.6-0.1-0.6-0.5c0-3,0-6,0-9c0-0.6,0-1.3,0.4-2c-1.8,0.2-3.4,0.3-5.2,0.3c0.2,0.4,0.3,0.7,0.4,1c0.1,4,0.1,8.1,0,12.1
		C258.5,86.9,258.4,87.3,258.2,87.7z"/>
	<path class="st7" d="M273.9,43.5c0.3-1,0.5-1.8,0.8-2.6c0.3-1,0.3-1.2-0.8-1.7c-1.8-0.8-3.7-1.6-5.5-2.3c-0.2-0.1-0.4-0.2-0.7-0.3
		c0.4-0.5,0.8-0.9,1.3-1.2c0.6-0.4,0.6-0.8,0.4-1.3c-0.5-1-0.9-2-1.4-3c-0.1-0.1-0.2-0.3-0.1-0.5c1.1,0.1,2.3,0.1,3.5,0.2
		c0.4,0,0.6-0.1,0.8-0.4c0.2-0.5,0.5-0.9,0.7-1.3c0.2-0.5,0.4-0.4,0.8-0.2c0.9,0.6,1.8,1.2,2.7,1.9c0.2,0.2,0.4,0.4,0.7,0.2
		c0.3-0.1,0.2-0.4,0.1-0.7c-0.5-2.1-1-4.2-1.5-6.4c0-0.1-0.1-0.2,0-0.4c0.8,0.2,1.5,0.5,2.2,0.9c0.7,0.4,1,0.4,1.3-0.5
		c0.8-1.9,1.8-3.7,2.8-5.5c0.2-0.3,0.3-0.6,0.5-0.9c1.1,1.4,2.1,2.7,3,4.2c0.1,0.2,0.2,0.4,0.3,0.5c0.3,0.5,0.6,0.6,1,0.1
		c0.7-0.7,1.4-1.3,2.1-2c0.1-0.1,0.2-0.2,0.5-0.4c-0.2,1.1-0.5,2.1-0.7,3c-0.3,1.3-0.6,2.6-0.8,3.8c0,0.2-0.1,0.4-0.1,0.6
		c0,0.3-0.2,0.7,0.2,0.8c0.3,0.1,0.5-0.3,0.7-0.5c0.4-0.5,0.8-1,1.2-1.5c0.5-0.7,1.1-1.3,1.6-2c0.3-0.4,0.4-0.3,0.7,0
		c0.3,0.4,0.5,1.1,1,1.2c0.4,0.1,0.9-0.4,1.4-0.6c0.8-0.3,1.7-0.7,2.7-1.1c-0.4,1.2-0.8,2.3-1.2,3.3c-0.1,0.2-0.1,0.4-0.2,0.6
		c-0.4,1.2-0.4,1.2,0.7,1.8c1.2,0.6,0.9,0.5,0.1,1.1c-1.8,1.5-3.7,3-5.5,4.5c-0.8,0.6-1.2,1.3-0.7,2.3c0.2,0.4,0.3,0.8,0.4,1.2
		c0.2,0.5,0,0.5-0.4,0.6c-2.1,0.2-4.2,0.4-6.4,0.5c-0.7,0-0.8,0.3-0.8,0.9c0.2,1,0.2,2,0.4,3c0.1,0.4-0.1,0.6-0.5,0.7
		c-0.2,0-0.4,0.1-0.7,0.2c-1.2,0.3-1.2,0.3-1.1-0.9c0.1-0.9,0.2-1.8,0.3-2.7c0.1-0.6-0.1-0.6-0.6-0.4c-2,0.8-4.1,1.6-6.1,2.5
		C274.6,43.3,274.4,43.4,273.9,43.5z"/>
	<path class="st7" d="M322.9,41.1c-7.5-3.3-15.2-3.6-23.2-2.5c0.1-0.5,0.4-0.4,0.6-0.5c1.5-0.3,3-0.6,4.5-0.8
		c2.9-0.3,5.8-0.6,8.7-0.3c2.2,0.2,4.4,0.5,6.6,1.1c0.2,0,0.5,0.3,0.6-0.1c0.1-0.3-0.2-0.3-0.4-0.4c-4.2-1.8-8.7-2.9-13.3-3.2
		c-2.3-0.1-4.6-0.1-6.8-0.1c-0.1,0-0.4,0.1-0.4-0.1c-0.1-0.3,0.2-0.2,0.4-0.3c5-1,10.1-1.6,15.3-1c1.6,0.2,3.3,0.5,4.9,0.9
		c0.1,0,0.4,0.3,0.5-0.1c0.1-0.3-0.1-0.3-0.3-0.4c-0.8-0.4-1.8-0.6-2.7-1c-5.5-2.2-11.3-2.5-17.2-2.3c-0.1,0-0.2,0-0.3,0
		c-0.2,0-0.5,0.2-0.6-0.2c0-0.2,0.3-0.2,0.5-0.2c2-0.4,4-0.8,6.1-1c4.3-0.4,8.6-0.3,12.9,0.7c0.3,0.1,0.6,0.2,0.9,0.3
		c0.2,0,0.5,0.1,0.6-0.1c0.1-0.3-0.2-0.3-0.4-0.3c-3.1-1.5-6.5-2.4-9.9-2.9c-3.3-0.5-6.6-0.6-9.9-0.4c-0.2,0-0.7,0.2-0.7-0.1
		c-0.1-0.3,0.4-0.3,0.6-0.3c6.1-1.3,12.2-1.7,18.3-0.3c0.5,0.1,0.9,0.2,1.4,0.3c0.2,0,0.5,0.3,0.6,0c0.2-0.3-0.2-0.4-0.4-0.5
		c-2.4-1.1-4.9-1.9-7.5-2.4c-4.1-0.9-8.2-1-12.3-0.8c-0.2,0-0.7,0.2-0.7-0.1c-0.1-0.4,0.4-0.3,0.7-0.3c4.2-0.9,8.4-1.4,12.7-1.1
		c2.3,0.1,4.5,0.5,6.8,1c0.2,0.1,0.7,0.4,0.8,0c0.1-0.4-0.4-0.4-0.6-0.5c-4.4-1.9-9.1-2.9-13.9-3.2c-1.9-0.1-3.8-0.1-5.8,0
		c-0.1,0-0.3,0-0.4,0c-0.1,0-0.3,0-0.3-0.1c0-0.2,0.1-0.2,0.3-0.2c0.5-0.1,1-0.1,1.5-0.2c7-0.8,13.9-0.4,20.5,2.2
		c0.7,0.3,1,0.6,1,1.4c0,6.5,0,12.9,0,19.4C322.9,40.4,322.9,40.7,322.9,41.1z"/>
	<path class="st7" d="M242.2,32.2c0-3.3,0-6.6,0-10c0-0.6,0.2-0.7,0.7-0.4c6.8,2.9,13.9,3.7,21.2,2.8c0.3,0,0.7-0.2,0.8,0.1
		c0.1,0.3-0.5,0.3-0.7,0.3c-6.4,1.3-12.8,1.4-19.1-0.3c-0.2-0.1-0.5-0.3-0.6,0c-0.1,0.3,0.3,0.4,0.5,0.5c5.8,2.6,12,3.7,18.4,3.6
		c0.4,0,0.8,0,1.2,0c0.1,0,0.4-0.1,0.4,0.2c0,0.2-0.2,0.2-0.3,0.2c-1.3,0.3-2.6,0.5-3.9,0.7c-5.3,0.7-10.6,0.5-15.8-0.9
		c-0.2,0-0.4-0.2-0.5,0.1c-0.1,0.3,0.2,0.4,0.4,0.4c3.5,1.6,7.2,2.6,11,3.2c2.7,0.4,5.3,0.5,8,0.4c0.2,0,0.4,0,0.5,0
		c0.2,0,0.5-0.1,0.5,0.1c0,0.3-0.3,0.2-0.5,0.3c-1.2,0.2-2.4,0.4-3.6,0.6c-5.4,0.8-10.8,0.5-16-0.9c-0.1,0-0.4-0.2-0.5,0.1
		c-0.1,0.3,0.1,0.3,0.3,0.4c1.8,0.8,3.6,1.5,5.5,2c4.5,1.3,9.1,1.7,13.7,1.6c0.3,0,0.9-0.2,0.9,0.1c0,0.4-0.5,0.3-0.9,0.4
		c-5.8,1.2-11.6,1.3-17.5,0c-0.6-0.1-1.2-0.1-1.7-0.4c-0.1-0.1-0.4-0.2-0.5,0c-0.1,0.2,0.1,0.4,0.3,0.4c0.8,0.3,1.6,0.7,2.4,1
		c5.4,2.1,11,2.8,16.7,2.7c0.4,0,1.1-0.2,1.1,0.1c0.1,0.4-0.6,0.3-1,0.4c-5.6,1.1-11.2,1.3-16.9,0.1c-0.7-0.1-1.4-0.2-2-0.4
		c-0.1,0-0.3-0.1-0.4,0.1c-0.1,0.2,0.1,0.2,0.2,0.3c0.2,0.1,0.4,0.3,0.6,0.3c5.3,2.2,10.9,3.3,16.7,3.3c0.8,0,1.6,0,2.5,0
		c0.1,0,0.4-0.1,0.4,0.2c0,0.2-0.2,0.2-0.3,0.2c-1.2,0.1-2.4,0.3-3.5,0.3c-6.2,0.3-12.3-0.5-18-2.9c-0.6-0.3-0.8-0.6-0.8-1.2
		C242.2,38.8,242.2,35.5,242.2,32.2C242.2,32.2,242.2,32.2,242.2,32.2z"/>
	<path class="st6" d="M330.9,85.1c1.3,0,2.3,0.9,2.3,2.2c0,1.3-1,2.2-2.4,2.2c-1.3,0-2.3-1-2.3-2.2C328.6,86,329.6,85.1,330.9,85.1z
		 M330.9,89c1,0,1.8-0.8,1.8-1.8c0-0.9-0.9-1.7-1.8-1.7c-1,0-1.9,0.8-1.8,1.8C329.1,88.2,329.9,89,330.9,89z"/>
	<path class="st8" d="M251.3,63.6c-0.1,2-0.8,4-0.6,6.1c-1.4-0.3-2.9-0.6-4.3-1.1c0.6-1,0.7-2.1,0.9-3.2c0.6-3.3,1.2-6.6,1.8-9.9
		c0-0.2,0-0.4,0.2-0.4c0.3,0,0.4,0.1,0.6,0.4c1.1,1.8,2.3,3.6,3.4,5.3c0.9,1.3,1.8,2.6,2.6,4c1.2-1.7,2.4-3.4,3.6-5
		c0.8-1.1,1.6-2.2,2.4-3.3c0.2-0.3,0.3-0.6,0.8-0.5c0.3,0.1,0.2,0.5,0.3,0.7c0.7,3.9,1.4,7.9,2.1,11.8c0.1,0.5,0.2,1,0.5,1.5
		c-1.1,0.1-2.1,0.2-3.1,0.3c-0.5,0-1,0.1-1.4,0.1c0-0.4,0-0.8,0-1.2c-0.2-1.7-0.6-3.3-0.7-5c-0.3,0.1-0.4,0.4-0.5,0.6
		c-1,1.8-2.3,3.5-3.6,5.1c-0.4,0.5-0.7,0.5-1.1,0C253.9,67.8,252.5,65.8,251.3,63.6z"/>
	<path class="st8" d="M307.7,47.9c3.4,0,6.6,0.4,9.8,1.2c0.3,0.1,0.4,0.2,0.4,0.5c0,0.9,0,1.8,0,2.7c-1.6-0.9-3.3-1-5-1.3
		c-0.4-0.1-0.6,0-0.5,0.4c0,0,0,0.1,0,0.1c0,0.7-0.3,1.7,0.1,2.2c0.4,0.5,1.4,0.3,2.2,0.5c0.7,0.1,1.4,0.2,2.1,0.3
		c0.3,0,0.4,0.1,0.4,0.3c0,0.9,0,1.8,0,2.8c-1.3-0.6-2.7-0.7-4-0.9c-0.5-0.1-0.8,0-0.7,0.6c0.1,0.6,0,1.2,0,1.8
		c0,0.4,0.1,0.6,0.6,0.7c1.4,0.2,2.7,0.5,4.1,0.7c0.3,0.1,0.8-0.1,0.9,0.1c0.1,0.3,0.1,0.7,0.1,1c0,0.5,0,1,0,1.5
		c0,0.5-0.1,0.5-0.6,0.4c-2-0.5-4-0.9-6.1-1.1c-1.2-0.1-2.4-0.2-3.7-0.2c0.4-0.7,0.3-1.5,0.3-2.3c0-3.5,0-7,0-10.4
		C308,48.9,308,48.4,307.7,47.9z"/>
	<path class="st8" d="M287.5,65.1c-1.6,0.4-3.2,0.8-4.8,1.2c0.4-1,0.3-2,0.3-3c0-3.1,0-6.2,0-9.3c0-0.6,0.1-1.2-0.3-1.7
		c-0.1-0.2,0-0.3,0.2-0.3c2.7-0.7,5.3-1.7,8.2-1.5c2.5,0.1,4.1,2,3.6,4.4c-0.3,1.6-1.3,2.8-2.6,3.8c-1.3,0.9-2.8,1.5-4.3,1.9
		c-0.5,0.1-0.7,0.3-0.6,0.8c0.1,0.9,0,1.8,0.1,2.7C287.1,64.4,287.1,64.8,287.5,65.1z M287,55.8c0,0.6,0,1.2,0,1.8
		c0,0.2,0,0.4,0.4,0.3c1-0.3,2-0.6,2.6-1.5c0.5-0.7,0.8-1.5,0.3-2.2c-0.5-0.8-1.3-0.8-2.1-0.6c-0.1,0-0.3,0.1-0.4,0.1
		c-0.6,0-0.8,0.3-0.7,0.9C287.1,54.9,287,55.4,287,55.8z"/>
	<path class="st8" d="M279.3,75.7c0,1,0,1.9,0,2.8c0,0.3-0.1,0.3-0.4,0.4c-1.4,0.1-2.7,0.6-4.1,0.9c-0.2,0-0.3,0.1-0.3,0.4
		c0,0.8,0,1.5,0,2.3c0,0.2,0.1,0.4,0.4,0.3c1.8-0.5,3.6-0.7,5.3-1.5c0,0.9,0,1.9,0,2.9c0,0.2-0.2,0.2-0.3,0.3
		c-3.2,0.8-6.5,1.6-9.8,2.2c0,0-0.1,0-0.1,0c0.4-0.6,0.3-1.3,0.3-1.9c0-3.6,0-7.2,0-10.8c0-0.3,0-0.6-0.1-0.9
		c-0.4-0.7,0.1-0.7,0.6-0.8c2.9-0.5,5.8-1.2,8.6-2c0.6-0.2,0.8-0.1,0.7,0.5c-0.1,0.7,0,1.4,0,2.1c0,0.2,0.1,0.4-0.3,0.4
		c-1-0.1-1.9,0.2-2.9,0.4c-0.4,0.1-0.7,0.2-1.1,0.3c-1.3,0.3-1.3,0.3-1.3,1.6c0,1.6,0,1.6,1.6,1.2C277.2,76.3,278.2,76.1,279.3,75.7
		z"/>
	<path class="st8" d="M297,80.3c-1.8,0.3-3.4,0.7-5,1c0.1-0.6-0.2-1.1-0.5-1.7c-0.1-0.3-0.3-0.2-0.6-0.2c-1.4,0.3-2.8,0.7-4.2,1
		c-0.3,0.1-0.4,0.2-0.4,0.4c-0.2,0.6-0.6,1.1-0.5,1.7c0,0.1-0.1,0.2-0.1,0.2c-1.5,0.4-2.9,0.7-4.4,1.1c2.1-4.1,3.8-8.3,5.7-12.4
		c0.5-1.2,1.1-2.4,1.6-3.6c0.1-0.3,0.2-0.5,0.6-0.6c0.4,0,0.4,0.3,0.5,0.5c2,3.6,4,7.1,6.1,10.7C296.1,79.2,296.4,79.8,297,80.3z
		 M287.6,77.6c0.9-0.2,1.8-0.4,2.6-0.6c-0.5-0.9-0.7-2-1.3-2.9C288.5,75.3,288.1,76.4,287.6,77.6z"/>
	<path class="st8" d="M277,67.7c0.2-0.7-0.2-1.2-0.4-1.7c-0.1-0.2-0.3-0.2-0.5-0.2c-1.4,0.3-2.8,0.6-4.2,0.9
		c-0.3,0.1-0.4,0.2-0.5,0.4c-0.2,0.6-0.6,1.1-0.5,1.7c0.1,0.2-0.2,0.2-0.3,0.2c-1.4,0.2-2.8,0.5-4.3,0.7c1.6-2.8,2.8-5.8,4.2-8.6
		c1.1-2.2,2.1-4.5,3.1-6.8c0.1-0.3,0.2-0.6,0.6-0.6c0.4,0,0.4,0.3,0.6,0.6c2,3.5,4,7,6.1,10.5c0.3,0.5,0.6,1.1,1.2,1.6
		C280.3,66.9,278.6,67.3,277,67.7z M274,60.1c-0.4,1.3-0.9,2.5-1.4,3.8c0.8-0.2,1.6-0.4,2.3-0.5c0.3-0.1,0.3-0.2,0.2-0.4
		C274.8,62.1,274.4,61.1,274,60.1z"/>
	<path class="st8" d="M302.9,79.6c-1.8,0.2-3.4,0.4-5,0.7c0.5-1.4,0.3-2.8,0.3-4.2c0-3,0.1-5.9,0-8.9c0-0.4,0-0.8-0.4-1.1
		c0.5-0.2,0.9-0.3,1.3-0.3c2.8-0.4,5.5-0.6,8.3-0.6c0.5,0,0.6,0.1,0.6,0.6c-0.1,0.7,0,1.5,0,2.2c0,0.2,0,0.4-0.3,0.3
		c-1.2-0.4-2.4-0.2-3.6-0.2c-1.6,0.1-1.5,0.1-1.5,1.6c0,0.5,0,1,0,1.4c0,0.4,0.1,0.5,0.5,0.4c1.3-0.2,2.7,0,4-0.3
		c0.3-0.1,0.3,0.1,0.3,0.3c0,0.8,0,1.7,0,2.5c0,0.3-0.1,0.3-0.4,0.3c-1.3-0.3-2.7,0-4,0c-0.2,0-0.4,0.1-0.4,0.3c0,1.4,0,2.7,0.1,4.1
		C302.5,79,302.6,79.3,302.9,79.6z"/>
	<path class="st8" d="M295.9,63.2c0.3-0.5,0.4-0.9,0.4-1.3c0-3.9,0-7.8,0-11.7c0-0.4-0.1-0.8-0.4-1.2c1.7-0.4,3.4-0.5,5.1-0.8
		c-0.5,1-0.4,1.9-0.4,2.9c0,2.7,0,5.3,0,8c0,0.5,0.1,0.6,0.6,0.5c1.3-0.1,2.6-0.2,3.9-0.4c0.4,0,0.7-0.2,1.1-0.3c0,1,0,1.9,0,2.9
		c0,0.4-0.4,0.3-0.6,0.3c-2.3,0.1-4.6,0.3-6.9,0.6C297.8,62.9,296.9,63.1,295.9,63.2z"/>
	<path class="st8" d="M258.2,87.7c0.2-0.4,0.3-0.8,0.3-1.2c0.1-4,0.1-8.1,0-12.1c0-0.3-0.1-0.6-0.4-1c1.7,0,3.4-0.1,5.2-0.3
		c-0.5,0.7-0.4,1.3-0.4,2c0,3,0,6,0,9c0,0.4,0,0.6,0.6,0.5c1.6-0.2,3.3-0.1,4.7-0.9c0.2-0.1,0.3,0,0.3,0.2c0,0.8,0,1.7,0,2.5
		c0,0.4-0.3,0.4-0.5,0.4c-2.2,0.3-4.3,0.6-6.5,0.7C260.3,87.6,259.3,87.6,258.2,87.7z"/>
	<path class="st8" d="M330.9,89c-1,0-1.8-0.8-1.9-1.7c0-1,0.8-1.8,1.8-1.8c1,0,1.9,0.8,1.8,1.7C332.7,88.2,331.9,89,330.9,89z
		 M329.9,87.2c0,0.3,0,0.6,0,0.9c0,0.2,0,0.4,0.3,0.4c0.4,0,0.3-0.2,0.3-0.4c0-0.2-0.2-0.6,0.2-0.6c0.4,0,0.4,0.4,0.4,0.6
		c0,0.1,0,0.1,0,0.2c0,0.3,0.3,0.3,0.5,0.3c0.3-0.1,0.1-0.3,0.1-0.4c0-0.4-0.3-0.8,0.1-1.3c0.2-0.3-0.1-0.7-0.5-0.8
		c-1.1-0.3-1.5-0.1-1.5,1.1C329.9,87.1,329.9,87.1,329.9,87.2z"/>
	<path class="st6" d="M287,55.8c0-0.5,0-0.9,0-1.4c-0.1-0.6,0.1-0.9,0.7-0.9c0.1,0,0.3,0,0.4-0.1c0.8-0.2,1.6-0.1,2.1,0.6
		c0.5,0.8,0.2,1.6-0.3,2.2c-0.6,0.8-1.6,1.2-2.6,1.5c-0.3,0.1-0.4,0-0.4-0.3C287,57,287,56.4,287,55.8z"/>
	<path class="st6" d="M287.6,77.6c0.5-1.2,0.9-2.3,1.3-3.5c0.6,1,0.8,2,1.3,2.9C289.4,77.2,288.5,77.4,287.6,77.6z"/>
	<path class="st6" d="M274,60.1c0.4,1,0.8,2,1.1,2.9c0.1,0.2,0.1,0.3-0.2,0.4c-0.7,0.1-1.5,0.3-2.3,0.5
		C273.1,62.6,273.7,61.4,274,60.1z"/>
	<path class="st6" d="M329.9,87.2c0,0,0-0.1,0-0.1c0-1.1,0.3-1.4,1.5-1.1c0.4,0.1,0.7,0.5,0.5,0.8c-0.4,0.5-0.1,0.9-0.1,1.3
		c0,0.1,0.3,0.3-0.1,0.4c-0.2,0-0.5,0.1-0.5-0.3c0-0.1,0-0.1,0-0.2c-0.1-0.3,0-0.6-0.4-0.6c-0.4,0-0.2,0.4-0.2,0.6
		c0,0.2,0,0.4-0.3,0.4c-0.3,0-0.3-0.2-0.3-0.4C329.9,87.8,329.9,87.5,329.9,87.2z M330.8,87c0.2,0,0.5,0,0.5-0.3
		c0-0.2-0.2-0.3-0.4-0.3c-0.2,0-0.4,0-0.4,0.3C330.5,86.9,330.6,87,330.8,87z"/>
	<path class="st8" d="M330.8,87c-0.2,0-0.3-0.1-0.3-0.3c0-0.3,0.2-0.3,0.4-0.3c0.2,0,0.4,0,0.4,0.3C331.3,87,331.1,86.9,330.8,87z"
		/>
</g>
</svg>
