<?xml version="1.0" encoding="utf-8"?>
<!-- Generator: Adobe Illustrator 24.2.0, SVG Export Plug-In . SVG Version: 6.00 Build 0)  -->
<svg version="1.1" id="Layer_1" xmlns="http://www.w3.org/2000/svg" xmlns:xlink="http://www.w3.org/1999/xlink" x="0px" y="0px"
	 viewBox="0 0 511.9 107.1" style="enable-background:new 0 0 511.9 107.1;" xml:space="preserve">
<style type="text/css">
	.st0{fill:#FFFFFF;}
</style>
<g>
	<path class="st0" d="M68,24.9c-0.8-1.1-1.6-2.2-2.5-3.4c5.7,0,11.2,0,16.9,0c-0.4,0.9-1,1.7-1.7,2.4c-1.9,1.9-2.5,4-2.4,6.7
		c0.2,4,0.1,8.1,0.1,12.1c0,2.2,0.2,4.3,1.4,6.2c3.6,5.8,10.7,4.5,13.2,0.3c1.1-1.9,1.4-4,1.4-6.1c0-6.1,0-12.1,0-18.2
		c0-2.4,1-3.4,3.3-3.5c0.9,0,1.8,0,2.7,0c1.5,0.1,2.7,1.3,2.7,2.8c0,7.3,0.3,14.5-0.2,21.8c-0.1,1.8-0.6,3.6-1.4,5.2
		c-1.3,2.7-3.4,4.6-6.2,5.6c-0.3,0.1-0.6,0.2-0.9,0.4c0,0,0,0.1-0.1,0.2c0.3,0,0.5,0.1,0.8,0.1c2,0,4,0,6,0c0.6,0,1-0.1,1.3-0.6
		c0,0,0-0.1,0.1-0.1c1.2-1.5,2.8-2.9,3.4-4.6c0.6-1.6,0.2-3.7,0.2-5.5c0-7,0-13.9,0-20.9c0-3.1,1.4-4.5,4.5-4.5c5.6,0,11.2,0,16.7,0
		c0.7,0,1.5,0,2.2,0.3c1,0.3,1.4,1,1.4,2s-0.6,1.4-1.4,1.7c-1.1,0.4-2.3,0.3-3.5,0.4c-2,0.2-4,0.1-6,0.4c-2.5,0.4-3.9,1.6-4.4,3.6
		c-0.6,2.5,0.2,4.9,2.1,6.3c1.3,0.9,2.7,1.3,4.3,1.4c2,0.1,4.1,0.2,6.1,0.4c0.7,0.1,0.8-0.3,0.8-0.8c0.8-7.9,5.4-12.8,12.5-15.4
		c3-1.1,6.2-1,9.4-1c2.4,0.1,4.8,0.3,7.1,1.2c0.3,0.1,0.6,0.2,0.8,0.4c0.7,0.5,1.2,0.8,1.7-0.3c0.2-0.5,0.9-0.6,1.4-0.6
		c0.7,0,1.5,0,2.2,0c2.9,0.1,4.1,1,4.6,3.9c0.5,2.4,0.7,4.9,1.2,7.3c0.5,2.9,1,5.8,1.8,8.7c0.2,0.6,0.4,1.2,0.7,1.7
		c0.7,1.4,1.6,1.4,2.4,0.1c0.9-1.4,1.3-3,1.7-4.6c1-4.2,1.7-8.4,2.5-12.6c0.1-0.5,0.2-0.9,0.3-1.4c0.8-2.8,1.7-3.5,4.6-3.5
		c1.8,0,3.6,0,5.4,0c1.9,0.1,2.8,0.7,3.3,2.6c0.8,2.9,1.1,5.9,1.7,8.9c0.7,3.2,1.2,6.5,2.4,9.6c0.3,0.8,0.6,1.9,1.7,1.9
		c1.1,0,1.3-1.1,1.6-2c1.1-3.5,1.8-7.2,2.5-10.8c0.4-1.9,0.7-3.8,1.1-5.7c0.1-0.7,0.3-1.4,0.6-2.1c0.5-1.2,1.3-2,2.7-2
		c1.2,0,2.3-0.1,3.5-0.1s1.8,0.6,1.9,1.8c0.2,1.4-0.1,2.7-0.4,4c-1.8,7.7-3.7,15.4-5.6,23.1c-0.3,1.1-0.5,2.2-0.8,3.3
		c-0.4,1.7-1.1,3.3-2.9,4.1c2.9,0,5.7,0,8.6,0c1,0,1.2,0.3,1.2,1.2c0,4.8-0.1,9.6,0,14.4c0,1.1-0.3,1.3-1.4,1.3
		c-44.5,0-89,0-133.4,0c-19.5,0-39.1,0-58.6,0c-1.5,0-1.5,0-1.5-1.4c0-4.8,0-9.6,0-14.3c0-0.9,0.2-1.2,1.2-1.2c5.8,0,11.7,0,17.5,0
		c0.4,0,0.8,0,1.2-0.1c0.5,0.2,0.9,0.2,1.4,0c1.2,0,2.3,0,3.5,0c0.1,0.5,0.3,1,0.4,1.6c0.1,0.8,0,2,0.4,2.3c0.6,0.4,1.6,0,2.4,0
		c0.6,0,0.8-0.2,0.6-0.8c-0.3-1-0.6-1.9-0.9-2.9c0.2,0,0.4-0.1,0.7-0.1c1.5,0.1,3.1,0.1,4.6,0c0.8,0.1,1.6,0.2,2.4,0
		c1.4,0.2,2.8,0.2,4.1,0c1,0.1,2,0.2,2.9,0c1.2,0.2,2.4,0.2,3.5,0c1.2,0.2,2.3,0.2,3.5,0c1,0.2,2,0.2,3.1,0c1.3,0.2,2.7,0.1,4,0
		c1.8,0.2,3.6,0.1,5.3,0c-1.6-0.6-3.2-1.3-4.6-2.2c-1.1-0.8-1.9-1.8-2.7-2.9c-0.5-1-0.9-1.9-1.4-2.9c-0.3-1.3-0.5-2.5-0.8-3.8
		c-0.1-1.4-0.1-2.7-0.2-4.1c0.1-1.1,0.1-2.2,0-3.3c0.1-1.5,0.1-2.9,0-4.4c0-0.9,0-1.7,0-2.6c0-1,0.1-2,0-2.9c0-0.6,0.3-1.3-0.3-1.9
		C69,25.9,68.6,25.4,68,24.9z M85.5,68.2c0.4-0.4,0.2-0.8,0.2-1.2c-0.1-0.6,0.2-0.9,0.7-1.2c1-0.3,1.5,0.4,2.2,1.2
		c0-1.2,0-2.2,0-3.2c0.1-0.1,0.3-0.2,0.4-0.3c0.6-1.8,0.5-2.1-0.8-2.3C88.1,61.1,88,61,87.9,61c-1.7,0-3.5,0-5.2,0
		c-0.3,0-0.4,0.2-0.4,0.5c1.3,0.4,1.6,1.3,1.5,2.5c-0.1,0.8,0,1.7,0,2.5c0,1.2,0.3,2.5-1.4,3.1c2.3,0.1,4.5,0.1,6.8,0.1
		c0.2,0,0.5,0,0.5-0.3c0.2-0.8,0.5-1.6,0.2-2.7c-0.3,0.6-0.5,1.1-0.9,1.5c-0.6,0.8-1.5,1-2.5,0.8C86,69.1,85.5,68.9,85.5,68.2z
		 M169.8,57.5c-1.8-0.8-2.6-2.1-3.1-3.6c-0.4-1.4-0.9-2.8-1.2-4.2c-1.8-7.6-3.5-15.3-5.4-22.9c-0.2-0.7-0.4-1-1.1-1.1
		c-2.4-0.3-4.8-0.5-7.2-0.5c-8-0.1-13.3,6.5-13.7,12c-0.6,8,4.1,14.3,12,15.6c3.1,0.5,6.1,0.3,9.2,0.2c1.6-0.1,2.1,0.5,1.7,2.1
		c-0.2,0.8-0.7,1.4-1.5,1.7c-0.5,0.1-1,0.2-1.5,0.6C161.8,57.5,165.6,57.5,169.8,57.5z M143.4,57.5c0-0.1,0-0.1,0-0.2
		c-0.4-0.1-0.7-0.3-1.1-0.4c-6.8-2.6-11.8-6.8-13.3-14.4c-0.1-0.4-0.2-0.6-0.7-0.6c-1.3,0.1-2.6,0.1-3.9,0.2c-1.8,0.1-3.7,0-5.5,0.6
		c-2.4,0.8-3.5,2.2-3.5,4.7c0,1.7,0,3.5,0,5.2c0,1.8,0.3,3.6-1.9,4.8C123.7,57.5,133.6,57.5,143.4,57.5z M194.5,57.5
		c-1.8-1-2.4-2.5-2.7-4.1c-0.2-0.9-0.4-1.7-0.6-2.6c-0.8-4.1-1.7-8.1-2.5-12.2c-0.2-0.9-0.5-1.8-1-2.6c-0.9-1.4-2-1.4-2.9,0
		c-0.4,0.6-0.7,1.3-0.9,2.1c-1.2,4.5-2.3,9-3.1,13.6c-0.4,2.2-0.8,4.4-3.2,5.8C183.3,57.5,188.7,57.5,194.5,57.5z M62.1,69.9
		c2.8,0,4.8-1.8,4.8-4.4s-1.9-4.3-4.7-4.4c-2.9,0-4.8,1.7-4.8,4.4C57.4,68.1,59.3,69.9,62.1,69.9z M157.4,63.5
		c0.1,0,0.2,0.1,0.3,0.1c0.1,1.2,0.1,2.4,0.2,3.6c0.1,1,0.2,2.1-1.2,2.5c1.2,0,2.3,0,3.6,0c-1.7-1.1-2-7.1-0.4-8.3c-0.7,0-1.4,0-2,0
		c-0.3,0-0.5,0-0.5,0.4c0,1.1-0.7,1.9-1,2.8c-0.4,1-0.8,2.1-1.5,3.1c-0.7-1.7-1.7-3.2-2-4.8c-0.3-1.7-1.3-1.7-2.5-1.6
		c-0.1,0-0.2,0.1-0.5,0.2c1.4,0.3,1.4,1.2,1.3,2.2c-0.1,0.9-0.2,1.9-0.4,2.8c-0.2,1.2-0.1,2.5-1.5,3.2c1.1,0,2.1,0,3.1,0
		c-0.4-0.4-1.1-0.4-1.1-1c-0.2-1.7,0-3.3,0.5-5c0.9,2,1.8,4.1,2.8,6.2C155.5,67.6,156.4,65.6,157.4,63.5z M81.1,64.2
		c0-0.5,0-0.9,0-1.3c0.2-1-0.3-1.5-1.3-1.6c-1.2-0.2-2.3-0.2-3.5,0.1c-1.9,0.5-3.2,2.2-3.3,4.2c-0.1,2,1.1,3.5,3.1,4.1
		c1.1,0.3,2.2,0.3,3.4,0.2c1.4-0.2,2.2-1.5,1.8-3.1c-0.4,0.6-0.6,1.1-1,1.6c-1,1.2-2.4,1.4-3.7,0.5c-1.8-1.3-2.1-4.5-0.6-6.2
		c1.4-1.5,3.6-1.1,4.4,0.8C80.6,63.6,80.6,63.9,81.1,64.2z M172.4,69.7c-0.7-0.4-0.7-1-0.7-1.6c0-0.8,0-1.7,0-2.5
		c-0.1-1.3-0.8-1.8-2.1-1.4c-0.3,0.1-0.6,0.2-0.9,0.4c-0.3,0.1-0.4,0.3-0.6-0.2c-0.3-0.7-0.7,0.1-1,0.1c-0.2,0-0.6,0.1-0.4,0.6
		c0.8,1.1,0.3,2.4,0.3,3.6c0,0.7-0.5,0.9-1.2,0.7c-0.6-0.2-1-0.6-0.9-1.3c0-0.8,0.1-1.7,0-2.5c-0.1-1.3-1.1-1.8-2.3-1.2
		c-0.4,0.2-0.8,0.5-1.1,0.8c-0.2,0.1-0.4,0.3-0.2,0.5c0,0.1,0.2,0.2,0.4,0.2s0.4-0.1,0.4-0.4c0.1-0.6,0.5-0.8,1-0.7
		c0.4,0.1,0.8,0.3,0.8,0.8s0.2,1.1-0.5,1.4c-0.4,0.2-0.8,0.4-1.3,0.6c-0.7,0.2-1,0.7-0.8,1.4c0.3,0.8,0.9,1,1.7,0.8
		c0.3-0.1,0.7-0.3,1.1-0.2c1.6,0.3,3.2,0.1,4.8,0.1c-0.6-0.3-0.8-0.8-0.8-1.4c0-0.8,0-1.5,0-2.3c-0.1-0.8,0.5-1,1.1-1.1
		s1.2,0,1.5,0.6c0.5,0.9,0.2,3.5-0.5,4.3C170.9,69.7,171.6,69.7,172.4,69.7z M47.6,61.4c1.3,0.7,1.7,1.7,2.1,2.6
		c0.7,1.6,1.3,3.2,2,4.7c0.2,0.4,0.2,1.2,0.8,1.2s0.6-0.8,0.8-1.2c1.3-2.4,1.6-5.4,3.9-7.3c-1.2,0-2.4,0-3.7,0
		c0.6,0.5,1.7,0.3,1.4,1.3c-0.5,1.6-1,3.2-1.8,5c-0.6-1.5-1.1-2.8-1.6-4c-0.2-0.4-0.4-0.9-0.4-1.3c-0.1-0.7,0.8-0.5,1-1
		C50.6,61.4,49.3,61.4,47.6,61.4z M143.4,69.6c0.2,0,0.4,0.1,0.6,0.1c0.6,0,1.3,0,1.9,0c-0.8-0.4-0.7-1.1-0.7-1.7c0-0.8,0-1.5,0-2.3
		c-0.1-1.4-0.9-1.9-2.2-1.5c-0.3,0.1-0.6,0.2-0.8,0.3c-0.3,0.2-0.5,0.3-0.7-0.2c-0.2-0.6-0.6,0-1,0.1c-0.2,0.1-0.7,0.2-0.4,0.6
		c0.7,1,0.3,2.1,0.4,3.2c0.1,0.8-0.3,1.3-1.1,1.3c-0.7,0-1.1-0.5-1.1-1.3c0.1-1.2,0-2.3,0-3.5c0-0.2,0-0.6-0.2-0.5
		c-0.5,0.1-0.9,0.2-1.3,0.4c-0.3,0.2,0,0.4,0.1,0.5c0.7,0.7,0.4,1.6,0.4,2.4s0.1,1.6-0.8,2.1c2,0,3.8,0,5.7,0
		c-0.9-0.3-0.8-1-0.8-1.7s0-1.3,0-2c0-0.6,0.2-0.9,0.8-1.1s1.2-0.2,1.6,0.3C144.5,66,144.2,68.9,143.4,69.6z M67.8,61.4
		c-0.1,0.1-0.2,0.2-0.3,0.2c1.8,0.1,1.7,1.3,1.7,2.4c0,1,0,2,0,2.9c0,1.1,0,2.3-1.4,2.6c1.5,0,3,0,4.5,0c-1.3-0.4-1.4-1.4-1.4-2.4
		s0-2,0-2.9c0-1.2-0.2-2.4,1.4-2.8C70.8,61.4,69.3,61.4,67.8,61.4z M106.6,64.2c1.1,0.7,1.2,1.7,1.6,2.6c0.4,1,0.7,2,1.3,2.9
		c0.8-1,0.9-2.3,1.7-3.3c0.7,1.1,0.8,2.3,1.5,3.3c1.2-1.8,1.4-4,3-5.6c-0.6,0-1.2-0.1-1.9,0.1c0.2,0.2,0.6,0.3,0.5,0.7
		c-0.2,1-0.6,1.9-1.1,2.7c-0.3,0.5-0.5,0-0.6-0.2c-0.3-0.7-0.5-1.4-0.8-2.1c-0.2-0.5,0-0.8,0.5-1.1c-0.6-0.1-1.2-0.1-1.7-0.1
		c-0.2,0-0.4,0.1-0.7,0.1c1.2,1.1,1.1,2.1-0.4,3.9c-0.2-1.4-1.6-2.4-0.7-3.9C108.2,64.2,107.5,64.2,106.6,64.2z M188.5,64.4
		c0-0.9,0-1.7,0-2.6c0-0.3,0.2-0.8-0.2-0.9c-0.4-0.2-0.9,0.1-1.2,0.4c-0.4,0.3,0.2,0.5,0.2,0.7c0.1,0.3,0.1,0.6,0.1,1
		c0,1.8,0,3.6,0,5.5c0,0.7,0.3,1.1,0.9,1.2c1.5,0.3,2.7,0.1,3.7-1.1c0.8-0.9,1-2.2,0.3-3.3c-0.6-1-1.6-1.3-2.8-1
		C189.3,64.3,189,64.5,188.5,64.4z M128.8,66.8c1.3,1.3,2,3.2,4.3,2.8c-1.2-0.8-2-1.7-2.8-2.6c-0.6-0.6-0.5-1.1,0.1-1.6
		s1.3-0.8,2.1-1.2c-1,0-1.9,0-2.7,0c0.4,0.9,0,1.6-1,2c0-1.6,0-3.1,0-4.7c0-0.3,0.2-0.8-0.3-0.7c-0.3,0-0.7,0.2-1,0.4
		c-0.4,0.3,0.2,0.5,0.2,0.7c0,0.3,0.1,0.6,0.1,0.9c0,1.7,0,3.4,0,5.1c0,0.6-0.1,1.2-0.8,1.6c1,0,1.7,0,2.8,0
		C128.4,69,128.9,68,128.8,66.8z M37.4,64.3c0.9,1.1,0.5,2.3,0.6,3.5c0.1,0.9-0.5,1.2-1.2,1.3c-0.8,0.1-1.2-0.4-1.3-1.2
		c-0.1-0.8-0.1-1.5-0.1-2.3c0-1.5,0-1.5-1.6-1.4c-0.1,0-0.1,0.1-0.3,0.2c0.8,0.3,0.8,1,0.8,1.6c0,0.5,0,1.1,0,1.6
		c0.1,1.9,0.9,2.5,2.7,1.8c0.3-0.1,0.6-0.4,0.8-0.2c0.7,1.1,1.3-0.1,2,0c-0.7-0.1-0.8-0.5-0.8-1c0-1.1,0-2.1,0.1-3.2
		c0.1-0.8-0.1-1.2-1-0.9C37.9,64.3,37.6,64.2,37.4,64.3z M183.2,69.8c1.8,0,3-1.2,3.1-2.9c0-1.7-1.1-2.7-3-2.8
		c-1.8-0.1-3.1,1.2-3.1,2.8C180.2,68.6,181.4,69.8,183.2,69.8z M119,69.8c1.8,0,3.1-1.2,3.1-2.8c0-1.7-1.1-2.9-3-2.9
		c-1.8,0-3,1.1-3.1,2.8C116,68.6,117.2,69.7,119,69.8z M33.1,66.9c0-1.7-1.2-2.8-3-2.8s-3,1.2-3,2.9c0,1.8,1.2,2.9,3.1,2.9
		C31.8,69.8,33.1,68.5,33.1,66.9z M23.5,64.2c-0.9,0-1.6-0.1-2.5,0.1c0.5,0.3,0.7,0.7,0.9,1.2c0.4,1.1,0.8,2.3,1.3,3.3
		c0.6,1.1,0.2,2-0.2,3c-0.1,0.3-0.3,0.5-0.7,0.3c-0.3-0.1-0.6-0.2-0.7,0.2c-0.1,0.3,0,0.5,0.2,0.7c0.3,0.2,0.5,0.2,0.8,0
		s0.4-0.5,0.6-0.8c0.6-1.6,1.2-3.2,1.8-4.7c0.5-1.1,0.7-2.4,1.9-3.2c-0.8,0-1.4,0-2,0c0.7,0.8,0.4,2.5-0.7,3.9
		C23.1,66.6,22.7,64.9,23.5,64.2z M198.4,69.3c-1.1-0.3-1.1-1.1-1-1.9c0-0.7,0-1.5-0.1-2.2c-0.2-1.1-1.1-1.5-2-1
		c-0.5,0.2-0.9,0.6-1.3,0.9c-0.2,0.1-0.4,0.3-0.2,0.5c0,0.1,0.2,0.1,0.4,0.2c0.2,0,0.4-0.1,0.4-0.4c0-0.6,0.4-0.8,0.9-0.7
		c0.6,0.1,1,0.4,1.1,1s-0.1,0.9-0.6,1.1s-0.9,0.4-1.4,0.6s-0.8,0.4-0.7,1s0.5,1.3,1,1.1c1.2-0.4,2.3,0.1,3.4-0.1
		C198.1,69.6,198.2,69.5,198.4,69.3z M99.3,69.4c-1.1-0.3-1-1.1-1-1.9c0-0.7,0-1.5-0.1-2.2c-0.1-0.9-0.9-1.4-1.7-1.1
		c-0.6,0.2-1.2,0.6-1.6,1c-0.1,0.1-0.3,0.3-0.2,0.5c0,0.1,0.2,0.1,0.3,0.1c0.3,0,0.5,0,0.5-0.4c0-0.6,0.4-0.8,0.9-0.7
		c0.6,0.1,0.9,0.4,1.1,1.1c0.1,0.6-0.1,0.9-0.7,1.1c-0.5,0.2-0.9,0.4-1.4,0.6s-0.8,0.4-0.7,1c0.1,0.6,0.5,1.3,1,1.1
		c1.2-0.4,2.3,0.1,3.4-0.1C99,69.6,99.1,69.5,99.3,69.4z M101.4,63.2c-1.4,0.9-1.4,0.9-1,2.1c0.1,0.2,0,0.4,0,0.5c0,0.8,0,1.5,0,2.3
		c0,1.3,0.4,1.7,1.7,1.5c0.4,0,0.8-0.1,1.2-0.4c-1.9-0.3-1.9-0.3-1.9-2.3c0-0.3,0-0.5,0-0.8c-0.1-0.9,0.1-1.4,1.2-1.3
		c0.3,0,0.8,0.2,0.7-0.4c0-0.5-0.5-0.3-0.8-0.3C101.7,64.4,101.2,64.2,101.4,63.2z M177.8,63.2c-0.3,0.8-2.2,0.8-0.9,2.2
		c0.1,0.1,0,0.4,0,0.5c0,0.7,0,1.5,0,2.2c0,1.4,0.4,1.8,1.8,1.6c0.4-0.1,0.8-0.2,1.2-0.3c-1.8-0.3-1.9-0.5-1.9-2.3
		c0-0.3,0-0.5,0-0.8c-0.1-1,0.1-1.6,1.3-1.4c0.3,0,0.8,0.1,0.7-0.4c0-0.4-0.4-0.3-0.7-0.3C178.5,64.2,177.7,64.5,177.8,63.2z
		 M42.2,65c-0.3-0.3,0-1.2-0.9-0.7c-0.4,0.3-0.9,0.2-0.6,1.1c0.5,1.3,0.5,2.8-0.3,4.2c0.9,0,1.7,0.1,2.6-0.2c-1-0.1-1.1-0.8-1.1-1.5
		c0-0.5,0-1,0-1.5c0.1-0.9,0.2-1.8,1.5-1.2c0.5,0.2,0.8-0.2,0.8-0.7c0-0.4-0.4-0.5-0.7-0.5C43.1,64.1,42.7,64.6,42.2,65z
		 M125.5,69.7c-0.4-0.4-1-0.4-1-1.1c0-0.9-0.1-1.7,0.1-2.6c0.2-0.7,0.5-1.2,1.3-0.7c0.3,0.2,0.5,0.1,0.7-0.2
		c0.2-0.2,0.3-0.4,0.1-0.7c-0.2-0.3-0.5-0.3-0.8-0.2c-0.6,0.1-0.9,0.6-1.4,0.9c-0.3-0.3,0.1-0.8-0.4-0.8c-0.4,0-0.8,0.2-1.1,0.4
		c-0.4,0.3,0.1,0.4,0.2,0.7c0.2,1.5,0.6,2.9-0.4,4.4C123.8,69.7,124.6,69.7,125.5,69.7z M175.5,69.7c-0.7-0.4-0.7-1-0.7-1.6
		c0-1.2,0-2.3,0-3.5c0-0.2,0.1-0.5-0.2-0.5c-0.4,0.1-0.8,0.2-1.2,0.4c-0.3,0.2-0.1,0.4,0.1,0.5c0.7,0.7,0.4,1.6,0.4,2.4
		s0.2,1.7-1.1,2.2C173.9,69.7,174.7,69.7,175.5,69.7z M137.8,60.9c-0.4,0-0.6,0.2-0.6,0.6c0,0.4,0.2,0.6,0.6,0.6
		c0.4,0,0.6-0.2,0.6-0.6C138.4,61.2,138.2,61,137.8,60.9z M174.3,62.1c0.4,0,0.6-0.2,0.6-0.6c0-0.4-0.2-0.6-0.6-0.6
		c-0.4,0-0.6,0.3-0.6,0.6C173.7,62,173.9,62.1,174.3,62.1z"/>
	<path class="st0" d="M45.2,57.7c0.3,1,0.6,2,0.9,2.9c0.2,0.6,0.1,0.8-0.6,0.8c-0.8,0-1.9,0.4-2.4,0c-0.4-0.3-0.3-1.5-0.4-2.3
		c-0.1-0.5-0.3-1-0.4-1.6c-0.4-1.7-0.8-3.4-1.1-5.1C41,51,41,51,39.7,51.5c-0.2,0.1-0.3,0.2-0.5,0.2c-0.5,0.1-1,0.4-1.5,0.7
		c-1.5,0.6-2.7,1.7-4.2,2.2c-0.8,0.3-1.6,0.4-2.2,1.2C31,55.4,31,55,31.1,54.6c0.4-2.1-0.7-3.4-2.4-4.3c-3.2-1.7-6.4-3.4-9.9-4.6
		c1.6-1.3,1.3-2.9,0.6-4.5c-0.6-1.3-1.2-2.5-1.9-3.9c0.5-0.1,0.9,0.1,1.4,0.2c1.3,0.3,2.6,0.2,3.7-0.4c1.1-0.6,1.8-1.5,1.7-2.7
		c-0.1-1.1,0.4-1.1,1.2-0.7c1.7,0.8,3.4,1.5,5,2.6c0.2-0.6-0.1-0.9-0.3-1.2c-1.7-2.8-2.5-6-4.1-8.8c-0.3-0.5,0.1-0.6,0.5-0.7
		c1-0.1,2,0.1,3,0.5c0.7,0.3,1,0.2,1.1-0.6c0.1-0.6,0.3-1.2,0.7-1.7c0.9-1.4,1.4-2.9,1.5-4.5c0-0.2-0.1-0.5,0.2-0.5
		c0.2-0.1,0.4,0.2,0.5,0.3c1.6,1.5,3.2,3.1,4.8,4.6c0.4,0.4,0.7,0.5,1.1,0c0.7-0.8,1.5-1.6,2.5-2.1c0.5-0.3,0.7-0.2,0.8,0.4
		c0.1,1.3,0.2,2.6,0.4,3.9c0,0.4,0,0.8,0.2,1.1c0.1,1.9,0.4,3.8,0.2,5.9c0.6-0.4,0.8-0.9,1.1-1.3c0.8-1.3,1.7-2.5,2.8-3.6
		c0.5-0.5,0.9-0.9,1.4,0.1c0.2,0.4,0.5,0.6,0.9,0.6c0.8,0.6,1.5,0.3,2.3,0.1c1.3-0.5,2.6-1,4.1-1.6c-0.3,1.7-0.6,3.2-0.5,4.8
		c0,0.7,0.1,1.4,0.7,1.9c0.4,1,1.4,1.1,2.5,1.1c-0.3,0.5-0.6,0.8-0.8,1.2c-2.1,2.9-4.6,5.6-6.5,8.7c-1,1.6-0.9,2.4,0.5,3.8
		c0.1,0.4,0.7,0.6,0.7,1.1c-0.4,0.3-0.8,0.1-1.2,0.2c-1.6,0-3.2-0.2-4.8,0.2c-0.7,0-1.4-0.1-2,0.2c-1.7,0.2-1.7,0.2-1.3,1.7
		c0.2,0.8,0.3,1.6,0.7,2.3C44.3,55.5,44.5,56.7,45.2,57.7z"/>
	<path class="st0" d="M104.4,84.8c0-4.7,3.5-8,8.4-7.9c4.4,0,8,3.6,8,8.1s-3.4,7.8-8.2,7.8C107.6,92.8,104.4,89.7,104.4,84.8z
		 M108.5,85c0,1.7,0.5,3.2,1.7,4.5c1.4,1.4,3.4,1.4,4.7-0.1c2.1-2.3,2-6.6-0.2-8.8c-1.4-1.5-3.5-1.4-4.8,0.1
		C108.9,81.9,108.5,83.4,108.5,85z"/>
	<path class="st0" d="M152,92.5c-1.1,0-2-0.6-2.5-1.5c-0.7-1.3-1.7-1.9-3.1-1.7c-0.5,0.1-1,0.1-1.4,0c-1.7-0.2-3,0.3-3.8,2
		c-0.5,1.1-2,1.5-3.2,1.1c-0.8-0.3-0.9-0.8-0.6-1.5c1.2-3,2.4-6,3.5-9.1c0.4-1.1,0.8-2.1,1.2-3.2c0.4-1,1.1-1.5,2.2-1.5
		c0.1,0,0.2,0,0.3,0c3-0.1,3.2,0,4.3,2.7c1.5,3.5,2.9,7.1,4.3,10.6C153.9,92,153.5,92.5,152,92.5z M143.6,85
		c-0.1,0.8,0.2,1.3,0.8,1.6c0.8,0.4,1.6,0.4,2.4-0.1c0.6-0.4,0.8-0.9,0.7-1.6c-0.2-1-0.6-2-1.1-2.9c-0.6-1-1.3-1-1.8,0.1
		C144,83.1,143.7,84.1,143.6,85z"/>
	<path class="st0" d="M179.5,76.9c1,0,2,0.1,3,0.4c2.2,0.7,3.2,2.7,2.1,4.6c-1.1,1.8-1,3.1,0.3,4.7c1.1,1.3,0.4,3.7-1,4.8
		c-2.3,1.7-6.3,1.8-8.7,0.2c-2-1.3-2.3-3.7-0.9-5.6c1.2-1.6,1.2-1.6,0.3-3.2c-1.5-2.8-0.5-4.9,2.5-5.7C178,77,178.7,76.9,179.5,76.9
		z M179.4,85.7c-1.5,0-2.2,0.9-2.2,2.4c0,1.4,1.1,2.6,2.3,2.6c1.3,0,2.3-1.3,2.3-2.7C181.7,86.5,180.9,85.7,179.4,85.7z M181.6,81
		c0-1.3-1-2.4-2.2-2.4c-1.1,0-2.1,1.1-2.2,2.3c0,1.3,0.9,2.5,2,2.5C180.5,83.5,181.6,82.4,181.6,81z"/>
	<path class="st0" d="M131.5,92.7c-4.4,0-7.7-2.1-8.9-5.6c-1.5-4.6,1.4-9.3,6.1-10c1.7-0.3,3.4-0.2,5.1,0.2c0.4,0.1,0.7,0.2,1,0.4
		c0.5,0.2,0.9,0.6,0.8,1.2c-0.2,0.7-0.8,0.3-1.2,0.3c-1.1-0.1-2.2-0.3-3.3-0.1c-2.8,0.4-4.8,2.4-5,5.1c-0.2,3.1,1.5,5.5,4.3,6.3
		c1.4,0.4,2.8,0.3,4.2,0.2c0.4,0,0.9-0.2,1.1,0.4c0.1,0.6-0.2,1-0.8,1.2C133.8,92.7,132.6,92.7,131.5,92.7z"/>
	<path class="st0" d="M191.5,92.8c-0.9-0.1-2,0-3.1-0.5c-0.4-0.2-0.9-0.5-0.7-1.1c0.1-0.5,0.7-0.5,1.1-0.5c1.4,0.1,2.8,0,4.1-0.5
		c1-0.4,1.8-0.9,1.9-2.1c0.1-1.2-0.6-2-1.7-2.4c-0.5-0.2-1.1-0.4-1.6-0.7c-0.6-0.3-0.6-0.7,0-1s1.2-0.5,1.8-0.8
		c0.7-0.3,1.2-0.9,1.2-1.7c0-0.9-0.4-1.5-1.2-2c-1.1-0.6-2.4-0.5-3.6-0.8c-0.5-0.1-1.3,0.1-1.3-0.6c0-0.6,0.7-0.8,1.2-0.9
		c2.4-0.5,4.8-0.7,7,0.5c2.1,1.1,2.5,3.5,0.9,5.3c-1,1.2-1,1.2,0,2.3c2.2,2.4,1.5,5.5-1.5,6.7C194.7,92.7,193.2,92.8,191.5,92.8z"/>
	<path class="st0" d="M207.1,92.5c-1.2,0-2.3,0-3.5,0c-0.7,0-1.5-0.1-1.8-0.8c-0.3-0.8,0-1.5,0.5-2.1c1.2-1.2,2.5-2.5,3.7-3.7
		c0.6-0.7,1.3-1.3,1.8-2.1c1.5-2.2,0.6-4.2-2-4.7c-0.7-0.1-1.5-0.1-2.2,0c-0.5,0-1,0-1.1-0.6c-0.1-0.5,0.3-0.8,0.7-1
		c2.3-0.7,4.6-0.9,6.8,0.1s2.8,3,1.7,5.4c-0.8,1.7-2,3-3.2,4.4c-0.5,0.6-1.4,1.2-1,2.1c0.4,1,1.5,0.8,2.3,0.9c0.5,0.1,0.9,0,1.4,0.1
		s1,0.2,1,0.8c0.1,0.6-0.4,1-0.9,1.1s-1.1,0.1-1.6,0.1C209,92.6,208,92.5,207.1,92.5z"/>
	<path class="st0" d="M154.7,77.3c1.6,0,2.9,0,4.3,0c1.1,0,1.2,0.8,1.2,1.7c0,2.9,0,5.9,0,8.8c0,2,0.7,2.7,2.7,2.7
		c0.8,0,1.5,0,2.3,0c0.7,0,1.6,0.1,1.5,1c0,0.8-0.8,0.9-1.5,0.9c-2.4,0-4.9,0-7.3,0c-1.1,0-1.5-0.4-1.5-1.5c0-3.2-0.1-6.3,0-9.5
		c0-1.3-0.2-2.4-1.1-3.3C155.2,78,155.1,77.7,154.7,77.3z"/>
	<path class="st0" d="M91.7,77.3c1.4,0,2.8-0.1,4.2,0c1,0.1,1.2,0.8,1.1,1.7c0,3,0,6,0,9c0,1.8,0.7,2.6,2.6,2.6c0.9,0,1.8,0,2.7,0
		c0.6,0,1.3,0.3,1.3,1s-0.7,0.9-1.3,0.9c-2.6,0-5.2,0-7.8,0c-0.9,0-1.3-0.6-1.3-1.5c0-3.2,0-6.4,0-9.6c0-1.2-0.2-2.3-1.1-3.2
		C91.9,78,91.7,77.8,91.7,77.3z"/>
	<path class="st0" d="M56.2,33.9c-0.6-0.5-0.7-1.2-0.7-1.9c3.7-3.2,7.9-5.6,12.6-7.1c0.5,0.5,1,1,1.3,1.7c-0.7,0.2-1.3,0.4-2,0.6
		C63.1,28.7,59.5,31,56.2,33.9z"/>
	<path class="st0" d="M51.9,28.8c-0.8,0.2-1.5,0.5-2.3-0.1C52,26,55,24.1,58,22.2c1.3-0.9,2.7-0.8,4.2-0.6c-0.6,0.3-1.2,0.6-1.8,0.9
		c-3,1.4-5.6,3.4-8.1,5.5C52.1,28.2,51.8,28.4,51.9,28.8z"/>
	<path class="st0" d="M37.6,52.4c0.5-0.3,0.9-0.6,1.5-0.7c-0.1,1.9-0.3,3.9-0.4,5.8c-0.5,0.2-0.9,0.2-1.4,0
		C37.5,55.8,37.6,54.1,37.6,52.4z"/>
	<path class="st0" d="M43.2,27.1C43,26.8,43.1,26.4,43,26c1.4-1.3,2.9-2.7,4.3-4c0.5-0.4,0.9-0.7,1.7-0.3
		C46.9,23.3,45.1,25.2,43.2,27.1z"/>
	<path class="st0" d="M51.8,48.7c1.7-4.5,4.2-8.5,7.8-11.7c2.9-2.6,6.2-4.6,9.9-5.7c0,0.9,0,1.7,0,2.6c-8,3-13.2,8.7-15.7,16.8
		c-0.7,2.2-1,4.5-1,6.8c-0.8,0.2-1.6,0.1-2.4,0c-0.1-2.5,0.4-5,1-7.5c0.4-0.1,0.8,0.1,1.2-0.2C52.6,49.3,52,49.2,51.8,48.7z"/>
	<path class="st0" d="M57,57.5c0.3-8.5,4.2-14.6,11.6-18.7c0.3-0.2,0.7-0.3,1-0.4c0.1,1.1,0.1,2.2,0,3.3c-0.3,0.2-0.7,0.3-1,0.5
		c-5.6,3.6-8.5,8.7-8.7,15.4C58.9,57.7,57.9,57.6,57,57.5z"/>
	<path class="st0" d="M63.4,57.5c0.2-4.4,1.8-8.1,5.1-11c0.4-0.3,0.7-0.6,1.2-0.8c0.3,1.3,0.5,2.5,0.8,3.8c-2.4,2.1-3.5,4.8-3.7,8
		C65.7,57.6,64.6,57.6,63.4,57.5z"/>
	<path class="st0" d="M62.1,69.9c-2.8,0-4.7-1.8-4.7-4.4c0-2.7,1.9-4.4,4.8-4.4c2.8,0,4.7,1.8,4.7,4.4
		C66.8,68.1,64.9,69.9,62.1,69.9z M59.4,65.4c-0.1,1,0.2,2,0.9,2.9c1.2,1.5,3.2,1.4,4.1-0.4c0.5-1,0.6-2.1,0.4-3.2
		c-0.3-2-1.5-3.2-2.9-3.1C60.3,61.8,59.4,63.1,59.4,65.4z"/>
	<path class="st0" d="M157.4,63.5c-0.9,2.1-1.9,4.1-2.9,6.4c-1-2.1-1.9-4.2-2.8-6.2c-0.4,1.7-0.6,3.3-0.5,5c0.1,0.6,0.7,0.6,1.1,1
		c-1,0-2,0-3.1,0c1.4-0.7,1.3-2,1.5-3.2c0.1-0.9,0.2-1.9,0.4-2.8c0.1-1,0.2-1.8-1.3-2.2c0.3-0.1,0.4-0.2,0.5-0.2
		c1.2-0.1,2.1-0.1,2.5,1.6c0.3,1.6,1.3,3.1,2,4.8c0.7-1,1.1-2.1,1.5-3.1c0.4-0.9,1-1.8,1-2.8c0-0.4,0.3-0.4,0.5-0.4c0.6,0,1.3,0,2,0
		c-1.5,1.2-1.3,7.2,0.4,8.3c-1.3,0-2.4,0-3.6,0c1.3-0.4,1.2-1.4,1.2-2.5c-0.1-1.2-0.1-2.4-0.2-3.6C157.6,63.6,157.5,63.5,157.4,63.5
		z"/>
	<path class="st0" d="M81.1,64.2c-0.5-0.2-0.5-0.6-0.6-0.8c-0.8-1.9-3-2.2-4.4-0.8c-1.5,1.6-1.3,4.8,0.6,6.2
		c1.2,0.9,2.7,0.7,3.7-0.5c0.4-0.5,0.7-1,1-1.6c0.4,1.6-0.3,2.9-1.8,3.1c-1.1,0.2-2.3,0.2-3.4-0.2c-2-0.6-3.1-2.2-3.1-4.1
		c0.1-2,1.4-3.6,3.3-4.2c1.1-0.3,2.3-0.3,3.5-0.1c1,0.2,1.4,0.6,1.3,1.6C81.1,63.3,81.1,63.7,81.1,64.2z"/>
	<path class="st0" d="M88.1,61.2c1.3,0.1,1.4,0.5,0.8,2.3c-0.1-0.1-0.2-0.1-0.2-0.2c-0.6-1.2-1.4-1.7-2.9-1.4
		c-1.1,0.3-0.3,1.3-0.5,1.9c-0.1,0.2,0,0.4,0,0.5c0,0.5,0.2,0.6,0.6,0.7c1.1,0.2,1.9-0.3,2.6-1.1c0,1,0,2,0,3.2
		c-0.6-0.9-1.2-1.5-2.2-1.2c-0.8-0.3-1.1,0-1,0.8c0.1,0.5-0.1,1.1,0.1,1.6c0,0.7,0.5,0.9,1,0.9c0.9,0.1,1.8,0,2.5-0.8
		c0.3-0.4,0.5-0.9,0.9-1.5c0.3,1,0,1.8-0.2,2.7c-0.1,0.3-0.3,0.3-0.5,0.3c-2.2,0-4.4,0-6.8-0.1c1.7-0.5,1.4-1.9,1.4-3.1
		c0-0.8,0-1.7,0-2.5c0.1-1.2-0.2-2.2-1.5-2.5c0.6-0.3,1.2-0.1,1.8-0.2C85.4,61.3,86.8,61.4,88.1,61.2z"/>
	<path class="st0" d="M172.4,69.7c-0.8,0-1.5,0-2.3,0c0.7-0.8,1-3.3,0.5-4.3c-0.3-0.6-0.9-0.7-1.5-0.6s-1.1,0.3-1.1,1.1
		c0.1,0.8,0,1.5,0,2.3c0,0.6,0.2,1.1,0.8,1.4c-1.7,0-3.3,0.2-4.8-0.1c-0.4-0.1-0.7,0.1-1.1,0.2c-0.8,0.3-1.4,0-1.7-0.8
		c-0.3-0.7,0.1-1.2,0.8-1.4c0.4-0.2,0.8-0.4,1.3-0.6c0.7-0.3,0.6-0.8,0.5-1.4c0-0.5-0.4-0.7-0.8-0.8c-0.5-0.1-0.9,0-1,0.7
		c0,0.3-0.2,0.4-0.4,0.4c-0.1,0-0.3-0.1-0.4-0.2c-0.1-0.2,0.1-0.4,0.2-0.5c0.4-0.3,0.7-0.6,1.1-0.8c1.2-0.6,2.1-0.2,2.3,1.2
		c0.1,0.8,0.1,1.7,0,2.5c0,0.7,0.3,1.1,0.9,1.3c0.6,0.2,1.2,0,1.2-0.7c0-1.2,0.4-2.5-0.3-3.6c-0.3-0.4,0.1-0.5,0.4-0.6
		c0.4,0,0.7-0.8,1-0.1c0.2,0.5,0.4,0.3,0.6,0.2c0.3-0.1,0.6-0.3,0.9-0.4c1.3-0.4,2,0.1,2.1,1.4c0.1,0.8,0,1.7,0,2.5
		C171.7,68.7,171.7,69.3,172.4,69.7z M164,67.8c-0.2-0.1,0.3-0.9-0.3-0.7c-0.5,0.1-1.4,0.3-1.4,1.1c0,0.5,0.3,0.9,0.9,0.9
		C163.8,69.1,164,68.5,164,67.8z"/>
	<path class="st0" d="M47.6,61.4c1.7,0,3,0,4.4,0c-0.2,0.5-1.1,0.3-1,1c0,0.5,0.3,0.9,0.4,1.3c0.5,1.3,1,2.5,1.6,4
		c0.8-1.8,1.4-3.4,1.8-5c0.3-1-0.7-0.8-1.4-1.3c1.4,0,2.5,0,3.7,0c-2.3,1.9-2.6,4.9-3.9,7.3c-0.2,0.4-0.2,1.2-0.8,1.2
		s-0.6-0.8-0.8-1.2c-0.7-1.6-1.4-3.1-2-4.7C49.3,63,48.9,62,47.6,61.4z"/>
	<path class="st0" d="M143.4,69.6c0.8-0.7,1.1-3.7,0.5-4.4c-0.4-0.5-1-0.5-1.6-0.3s-0.8,0.5-0.8,1.1c0,0.7,0,1.3,0,2
		s-0.1,1.4,0.8,1.7c-1.8,0-3.7,0-5.7,0c0.9-0.5,0.8-1.3,0.8-2.1c0-0.8,0.2-1.7-0.4-2.4c-0.1-0.1-0.4-0.3-0.1-0.5
		c0.4-0.2,0.9-0.4,1.3-0.4c0.2,0,0.2,0.3,0.2,0.5c0,1.2,0,2.3,0,3.5c0,0.8,0.4,1.3,1.1,1.3c0.7,0,1.2-0.5,1.1-1.3
		c-0.1-1.1,0.3-2.2-0.4-3.2c-0.3-0.4,0.2-0.5,0.4-0.6c0.3-0.1,0.7-0.7,1-0.1c0.2,0.5,0.3,0.4,0.7,0.2c0.3-0.1,0.5-0.2,0.8-0.3
		c1.4-0.4,2.2,0.1,2.2,1.5c0,0.8,0,1.5,0,2.3c0,0.6-0.1,1.3,0.7,1.7c-0.6,0-1.3,0-1.9,0C143.8,69.7,143.6,69.7,143.4,69.6z"/>
	<path class="st0" d="M67.8,61.4c1.5,0,3,0,4.5,0c-1.6,0.4-1.4,1.7-1.4,2.8c0,1,0,2,0,2.9c0,1.1,0.1,2.1,1.4,2.4c-1.5,0-3,0-4.5,0
		c1.5-0.3,1.4-1.5,1.4-2.6c0-1,0-2,0-2.9c0-1.1,0.1-2.3-1.7-2.4C67.6,61.5,67.7,61.4,67.8,61.4z"/>
	<path class="st0" d="M106.6,64.2c0.9,0,1.7,0,2.4,0c-0.8,1.5,0.5,2.5,0.7,3.9c1.5-1.8,1.6-2.7,0.4-3.9c0.3,0,0.5-0.1,0.7-0.1
		c0.5,0,1.1,0,1.7,0.1c-0.5,0.3-0.7,0.6-0.5,1.1c0.3,0.7,0.5,1.4,0.8,2.1c0.1,0.2,0.3,0.7,0.6,0.2c0.5-0.9,0.9-1.8,1.1-2.7
		c0.1-0.4-0.3-0.5-0.5-0.7c0.6-0.2,1.2-0.1,1.9-0.1c-1.6,1.6-1.8,3.8-3,5.6c-0.7-1-0.8-2.3-1.5-3.3c-0.8,1-0.9,2.3-1.7,3.3
		c-0.6-0.9-0.9-2-1.3-2.9C107.7,66,107.6,64.9,106.6,64.2z"/>
	<path class="st0" d="M188.5,64.4c0.4,0.1,0.7-0.1,1.1-0.2c1.2-0.3,2.3,0,2.8,1c0.6,1.1,0.4,2.4-0.3,3.3c-1,1.2-2.3,1.4-3.7,1.1
		c-0.7-0.1-1-0.5-0.9-1.2c0.1-1.8,0-3.6,0-5.5c0-0.3,0-0.6-0.1-1c0-0.2-0.6-0.4-0.2-0.7c0.3-0.2,0.8-0.5,1.2-0.4
		c0.3,0.1,0.1,0.6,0.2,0.9C188.5,62.7,188.5,63.6,188.5,64.4z M188.4,66.6c0,0.5,0,1.1,0.1,1.6c0.3,1.1,1.7,1.5,2.5,0.7
		c0.7-0.7,0.9-1.6,0.6-2.6c-0.3-1.1-1.3-1.7-2.3-1.6C188,64.9,188.6,65.9,188.4,66.6z"/>
	<path class="st0" d="M128.8,66.8c0.1,1.1-0.4,2.1,1,2.8c-1.1,0-1.9,0-2.8,0c0.8-0.4,0.8-1,0.8-1.6c0-1.7,0-3.4,0-5.1
		c0-0.3-0.1-0.6-0.1-0.9c0-0.3-0.6-0.4-0.2-0.7c0.3-0.2,0.7-0.4,1-0.4c0.6-0.1,0.3,0.4,0.3,0.7c0,1.6,0,3.1,0,4.7c1-0.4,1.4-1.1,1-2
		c0.9,0,1.7,0,2.7,0c-0.8,0.4-1.5,0.7-2.1,1.2s-0.7,0.9-0.1,1.6c0.8,0.9,1.6,1.8,2.8,2.6C130.8,70.1,130.2,68.1,128.8,66.8z"/>
	<path class="st0" d="M70,57.5c0-1.9,0.7-3.6,1.9-5.1c0.8,1.1,1.7,2.1,2.7,2.9c-0.4,0.7-0.6,1.4-0.7,2.2
		C72.6,57.6,71.3,57.7,70,57.5z"/>
	<path class="st0" d="M37.4,64.3c0.3,0,0.5,0,0.7-0.1c0.9-0.2,1.1,0.1,1,0.9c-0.1,1.1,0,2.1-0.1,3.2c0,0.5,0.1,0.9,0.8,1
		c-0.7-0.1-1.3,1-2,0c-0.2-0.3-0.5,0.1-0.8,0.2c-1.8,0.7-2.6,0.2-2.7-1.8c0-0.5,0-1.1,0-1.6c0-0.7,0-1.3-0.8-1.6
		c0.2-0.1,0.2-0.2,0.3-0.2c1.5-0.2,1.5-0.2,1.6,1.4c0,0.8,0,1.5,0.1,2.3s0.5,1.2,1.3,1.2c0.8-0.1,1.3-0.4,1.2-1.3
		C37.9,66.6,38.3,65.4,37.4,64.3z"/>
	<path class="st0" d="M183.2,69.8c-1.8,0-3-1.2-3-2.9c0-1.7,1.3-2.9,3.1-2.8c1.9,0.1,3,1.1,3,2.8C186.2,68.6,185,69.8,183.2,69.8z
		 M185,66.9c0-0.5,0-1-0.3-1.5c-0.3-0.6-0.8-1.1-1.5-1.1s-1.2,0.3-1.5,0.9c-0.5,1.1-0.6,2.3,0.1,3.3c0.7,1.2,2.1,1.1,2.9-0.1
		C185,68,185.1,67.5,185,66.9z"/>
	<path class="st0" d="M119,69.8c-1.8,0-3-1.2-3-2.9c0-1.7,1.3-2.8,3.1-2.8c1.8,0,3,1.2,3,2.9C122.1,68.6,120.8,69.8,119,69.8z
		 M117.3,67.2c0,0.1,0,0.4,0.1,0.8c0.3,0.8,0.8,1.4,1.7,1.4c0.9,0,1.4-0.6,1.6-1.3c0.3-1.1,0.3-2.1-0.4-3c-0.4-0.5-0.9-0.8-1.5-0.7
		c-0.6,0.1-1.2,0.3-1.4,1C117.3,65.9,117.2,66.4,117.3,67.2z"/>
	<path class="st0" d="M33.1,66.9c0,1.7-1.2,2.9-3,2.9c-1.9,0-3.1-1.1-3.1-2.9c0-1.7,1.2-2.8,3-2.9C31.9,64,33.1,65.1,33.1,66.9z
		 M31.9,67c-0.1-0.4-0.1-0.8-0.2-1.2C31.5,65,31,64.4,30,64.4s-1.4,0.6-1.6,1.4c-0.3,1-0.2,1.9,0.3,2.8c0.6,1.1,2,1.2,2.8,0.2
		C31.8,68.2,31.9,67.6,31.9,67z"/>
	<path class="st0" d="M23.5,64.2c-0.8,0.7-0.4,2.4,0.7,3.9c1-1.3,1.4-3.1,0.7-3.9c0.6,0,1.2,0,2,0c-1.2,0.9-1.4,2.1-1.9,3.2
		c-0.6,1.6-1.2,3.2-1.8,4.7c-0.1,0.3-0.3,0.6-0.6,0.8c-0.3,0.2-0.6,0.2-0.8,0c-0.2-0.2-0.3-0.4-0.2-0.7c0.1-0.4,0.4-0.3,0.7-0.2
		c0.3,0.2,0.5,0,0.7-0.3c0.4-1,0.9-1.9,0.2-3c-0.6-1-0.9-2.2-1.3-3.3c-0.2-0.5-0.4-0.8-0.9-1.2C21.8,64,22.6,64.2,23.5,64.2z"/>
	<path class="st0" d="M198.4,69.3c-0.2,0.1-0.3,0.2-0.4,0.3c-1.1,0.2-2.3-0.3-3.4,0.1c-0.5,0.2-0.9-0.5-1-1.1s0.3-0.8,0.7-1
		c0.5-0.2,0.9-0.5,1.4-0.6c0.5-0.2,0.7-0.5,0.6-1.1c-0.1-0.7-0.5-1-1.1-1c-0.5-0.1-0.9,0.1-0.9,0.7c0,0.3-0.2,0.4-0.4,0.4
		c-0.1,0-0.3-0.1-0.4-0.2c-0.1-0.2,0.1-0.4,0.2-0.5c0.4-0.3,0.9-0.7,1.3-0.9c1-0.5,1.9-0.1,2,1c0.1,0.7,0.1,1.4,0.1,2.2
		C197.4,68.3,197.3,69.1,198.4,69.3z M196.4,67.8c-0.1-0.2,0.2-0.8-0.3-0.7c-0.5,0.2-1.4,0.2-1.4,1.1c0,0.5,0.3,0.9,0.8,0.9
		C196.4,69.1,196.4,68.5,196.4,67.8z"/>
	<path class="st0" d="M46.6,50.2c-0.4,2.4-0.9,4.8-0.8,7.3c-0.2,0-0.4,0.1-0.7,0.1c-0.6-1-0.9-2.1-1.2-3.3c0.2-1.3,0.4-2.6,0.7-4
		C45.3,50.1,45.9,50.2,46.6,50.2z"/>
	<path class="st0" d="M99.3,69.4c-0.2,0.1-0.3,0.2-0.4,0.2c-1.1,0.1-2.3-0.3-3.4,0.1c-0.5,0.2-0.9-0.5-1-1.1s0.3-0.8,0.7-1
		c0.5-0.2,0.9-0.5,1.4-0.6c0.5-0.2,0.7-0.5,0.7-1.1c-0.1-0.6-0.5-1-1.1-1.1c-0.5-0.1-0.9,0.1-0.9,0.7c0,0.3-0.3,0.4-0.5,0.4
		c-0.1,0-0.2-0.1-0.3-0.1c-0.1-0.2,0.1-0.4,0.2-0.5c0.5-0.5,1-0.8,1.6-1c0.8-0.3,1.6,0.2,1.7,1.1c0.1,0.7,0.1,1.4,0.1,2.2
		C98.2,68.2,98.2,69,99.3,69.4z M97.3,67.8c-0.2-0.1,0.2-0.8-0.3-0.6c-0.5,0.2-1.4,0.2-1.4,1.1c0,0.5,0.3,0.9,0.8,0.9
		C97.2,69.1,97.3,68.5,97.3,67.8z"/>
	<path class="st0" d="M101.4,63.2c-0.2,1,0.3,1.2,1.1,1.1c0.3,0,0.8-0.2,0.8,0.3s-0.5,0.4-0.7,0.4c-1-0.2-1.3,0.4-1.2,1.3
		c0,0.3,0,0.5,0,0.8c0,2,0,2,1.9,2.3c-0.4,0.3-0.8,0.4-1.2,0.4c-1.3,0.1-1.7-0.2-1.7-1.5c0-0.8,0-1.5,0-2.3c0-0.2,0-0.4,0-0.5
		C100,64.1,100,64.1,101.4,63.2z"/>
	<path class="st0" d="M177.8,63.2c-0.1,1.3,0.7,1,1.4,1.1c0.3,0,0.7-0.1,0.7,0.3c0,0.5-0.4,0.4-0.7,0.4c-1.1-0.2-1.4,0.4-1.3,1.4
		c0,0.3,0,0.5,0,0.8c0,1.8,0.1,2,1.9,2.3c-0.4,0.1-0.8,0.2-1.2,0.3c-1.4,0.2-1.8-0.2-1.8-1.6c0-0.7,0-1.5,0-2.2c0-0.2,0.1-0.4,0-0.5
		C175.6,64,177.5,64,177.8,63.2z"/>
	<path class="st0" d="M42.2,65c0.5-0.4,0.9-0.8,1.5-0.8c0.3,0,0.7,0.1,0.7,0.5s-0.3,0.9-0.8,0.7c-1.3-0.6-1.4,0.3-1.5,1.2
		c-0.1,0.5,0,1,0,1.5c0,0.7,0.1,1.4,1.1,1.5c-0.9,0.3-1.7,0.2-2.6,0.2c0.8-1.4,0.7-2.9,0.3-4.2c-0.4-1,0.1-0.9,0.6-1.1
		C42.2,63.8,41.9,64.7,42.2,65z"/>
	<path class="st0" d="M125.5,69.7c-0.9,0-1.7,0-2.6,0c0.9-1.4,0.6-2.9,0.4-4.4c0-0.2-0.6-0.4-0.2-0.7c0.3-0.2,0.7-0.4,1.1-0.4
		c0.5,0,0.1,0.6,0.4,0.8c0.4-0.3,0.7-0.8,1.4-0.9c0.3,0,0.6,0,0.8,0.2c0.2,0.3,0,0.5-0.1,0.7c-0.2,0.3-0.4,0.4-0.7,0.2
		c-0.8-0.5-1.1,0-1.3,0.7c-0.2,0.9-0.1,1.7-0.1,2.6C124.5,69.3,125.1,69.3,125.5,69.7z"/>
	<path class="st0" d="M88.6,63.8c-0.6,0.9-1.5,1.3-2.6,1.1c-0.4-0.1-0.7-0.2-0.6-0.7c0-0.2,0-0.4,0-0.5c0.2-0.6-0.6-1.6,0.5-1.9
		c1.4-0.3,2.3,0.2,2.9,1.4c0,0.1,0.1,0.2,0.2,0.2C88.8,63.6,88.7,63.7,88.6,63.8z"/>
	<path class="st0" d="M73.9,57.5c0.1-0.8,0.3-1.5,0.7-2.2c1.5,0.9,3,1.6,4.6,2.2C77.5,57.6,75.7,57.7,73.9,57.5z"/>
	<path class="st0" d="M175.5,69.7c-0.8,0-1.6,0-2.7,0c1.3-0.5,1.1-1.4,1.1-2.2c0-0.8,0.3-1.7-0.4-2.4c-0.2-0.1-0.4-0.4-0.1-0.5
		c0.4-0.2,0.8-0.4,1.2-0.4c0.3,0,0.2,0.3,0.2,0.5c0,1.2,0,2.3,0,3.5C174.8,68.7,174.8,69.3,175.5,69.7z"/>
	<path class="st0" d="M88.1,61.2c-1.4,0.2-2.7,0.1-4.1,0.1c-0.6,0-1.2-0.1-1.8,0.2c0-0.3,0.1-0.5,0.4-0.5c1.7,0,3.5,0,5.2,0
		C88,61,88.1,61.1,88.1,61.2z"/>
	<path class="st0" d="M137.8,60.9c0.4,0,0.6,0.3,0.6,0.6c0,0.4-0.2,0.6-0.6,0.6c-0.4,0-0.6-0.2-0.6-0.6
		C137.2,61.2,137.4,61,137.8,60.9z"/>
	<path class="st0" d="M174.3,62.1c-0.4,0-0.6-0.2-0.6-0.6c0-0.4,0.2-0.6,0.6-0.6c0.4,0,0.6,0.2,0.6,0.6
		C174.9,61.9,174.7,62.1,174.3,62.1z"/>
	<path class="st0" d="M85.5,68.2c-0.2-0.5-0.1-1.1-0.1-1.6c-0.1-0.8,0.3-1.1,1-0.8c-0.5,0.3-0.7,0.6-0.7,1.2
		C85.7,67.3,85.9,67.8,85.5,68.2z"/>
	<path class="st0" d="M59.4,65.4c0-2.2,0.9-3.6,2.5-3.7c1.4-0.1,2.6,1.1,2.9,3.1c0.2,1.1,0.1,2.2-0.4,3.2c-0.9,1.7-2.9,1.9-4.1,0.4
		C59.6,67.4,59.3,66.3,59.4,65.4z"/>
	<path class="st0" d="M164,67.8c0,0.7-0.1,1.3-0.9,1.3c-0.6,0-0.9-0.4-0.9-0.9c0-0.9,0.8-1,1.4-1.1C164.3,67,163.7,67.7,164,67.8z"
		/>
	<path class="st0" d="M188.4,66.6c0.2-0.7-0.4-1.7,0.9-1.9c1-0.1,2,0.5,2.3,1.6c0.3,1,0.1,1.9-0.6,2.6c-0.8,0.9-2.2,0.5-2.5-0.7
		C188.5,67.7,188.5,67.1,188.4,66.6z"/>
	<path class="st0" d="M185,66.9c0,0.6-0.1,1.1-0.4,1.6c-0.7,1.2-2.1,1.2-2.9,0.1c-0.7-1.1-0.6-2.2-0.1-3.3c0.3-0.6,0.8-0.9,1.5-0.9
		s1.2,0.5,1.5,1.1C185,65.9,185.1,66.4,185,66.9z"/>
	<path class="st0" d="M117.3,67.2c0-0.8,0.1-1.3,0.2-1.8c0.2-0.7,0.7-0.9,1.4-1c0.6-0.1,1.1,0.1,1.5,0.7c0.7,0.9,0.7,2,0.4,3
		c-0.3,0.8-0.7,1.3-1.6,1.3s-1.4-0.6-1.7-1.4C117.3,67.6,117.3,67.3,117.3,67.2z"/>
	<path class="st0" d="M31.9,67c0,0.6-0.1,1.2-0.5,1.8c-0.7,1-2.2,0.9-2.8-0.2c-0.5-0.9-0.5-1.8-0.3-2.8c0.2-0.8,0.6-1.5,1.6-1.4
		c1,0,1.4,0.6,1.7,1.4C31.8,66.2,31.9,66.6,31.9,67z"/>
	<path class="st0" d="M196.4,67.8c0,0.7,0,1.3-0.8,1.3c-0.6,0-0.9-0.4-0.8-0.9c0-0.9,0.9-0.9,1.4-1.1
		C196.6,67,196.3,67.6,196.4,67.8z"/>
	<path class="st0" d="M97.3,67.8c0.1,0.8,0,1.4-0.9,1.4c-0.5,0-0.8-0.4-0.8-0.9c0-0.9,0.8-1,1.4-1.1C97.5,67,97.1,67.6,97.3,67.8z"
		/>
</g>
<g>
	<polygon class="st0" points="273.8,7.3 279.8,7.3 279.8,29.8 293.2,29.8 293.2,34.8 273.8,34.8 	"/>
	<path class="st0" d="M304.7,31.3c3.7,0,4.9-3.2,4.9-6.4s-1.1-6.4-4.9-6.4c-3.7,0-4.8,3.2-4.8,6.4C299.9,28.1,301,31.3,304.7,31.3
		 M304.7,14.4c6.3,0,10.3,4.2,10.3,10.5s-4,10.5-10.3,10.5c-6.2,0-10.3-4.2-10.3-10.5C294.4,18.6,298.5,14.4,304.7,14.4"/>
	<path class="st0" d="M327.6,18.5c-3.2,0-4.7,3-4.7,6.4c0,3.3,1.4,6.4,4.7,6.4c3.2,0,4.7-3,4.7-6.4
		C332.2,21.6,330.8,18.5,327.6,18.5 M317.6,7.3h5.5v10h0.1c1.3-2,3.8-3,6.3-3c4,0,8.2,3.2,8.2,10.5s-4.3,10.5-8.2,10.5
		c-2.9,0-5.4-0.9-6.5-3.1h-0.1v2.5h-5.2L317.6,7.3L317.6,7.3z"/>
	<rect x="340.4" y="7.3" class="st0" width="5.5" height="27.5"/>
	<path class="st0" d="M361.6,25.1c-0.9,0.8-2.9,0.8-4.5,1.2c-1.7,0.3-3.2,0.9-3.2,2.9s1.6,2.5,3.4,2.5c4.3,0,4.4-3.4,4.4-4.6
		L361.6,25.1L361.6,25.1z M348.9,21.1c0.3-5.1,4.9-6.7,9.4-6.7c4,0,8.7,0.9,8.7,5.7v10.4c0,1.8,0.2,3.6,0.7,4.4h-5.5
		c-0.2-0.6-0.3-1.3-0.4-1.9c-1.7,1.8-4.3,2.5-6.7,2.5c-3.8,0-6.8-1.9-6.8-6c0-4.5,3.4-5.6,6.8-6c3.4-0.5,6.5-0.4,6.5-2.6
		c0-2.4-1.6-2.7-3.5-2.7c-2.1,0-3.4,0.8-3.6,3L348.9,21.1L348.9,21.1z"/>
	<polygon class="st0" points="393.1,34.8 387.5,34.8 383.9,21.5 383.9,21.5 380.5,34.8 374.8,34.8 368.5,14.9 374.3,14.9 
		377.9,28.5 378,28.5 381.3,14.9 386.6,14.9 390,28.4 390.1,28.4 393.8,14.9 399.4,14.9 	"/>
	<path class="st0" d="M292.1,48.7c-0.4-2.7-3-4.8-6-4.8c-5.4,0-7.5,4.6-7.5,9.4c0,4.6,2,9.2,7.5,9.2c3.7,0,5.8-2.5,6.2-6.2h5.9
		c-0.6,6.9-5.4,11.2-12.1,11.2c-8.5,0-13.5-6.4-13.5-14.3c0-8.2,5-14.5,13.5-14.5c6,0,11.1,3.5,11.9,9.9h-5.9V48.7z"/>
	<path class="st0" d="M310.4,63.3c3.7,0,4.9-3.2,4.9-6.4s-1.1-6.4-4.9-6.4c-3.7,0-4.8,3.2-4.8,6.4S306.7,63.3,310.4,63.3
		 M310.4,46.5c6.3,0,10.3,4.2,10.3,10.5s-4,10.5-10.3,10.5c-6.2,0-10.3-4.2-10.3-10.5C300.1,50.6,304.2,46.5,310.4,46.5"/>
	<path class="st0" d="M323.5,47h5.2v2.7h0.1c1.4-2,3.5-3.2,6.1-3.2c2.5,0,4.7,0.9,5.8,3.3c1.2-1.7,3.2-3.3,6-3.3
		c4.2,0,7.3,2,7.3,7.1v13.3h-5.5V55.6c0-2.7-0.2-4.9-3.4-4.9c-3.1,0-3.7,2.5-3.7,5v11.1H336V55.7c0-2.3,0.2-5-3.3-5
		c-1.1,0-3.7,0.7-3.7,4.6v11.6h-5.5V47z"/>
	<path class="st0" d="M372.1,57c0-3.2-1.3-6.4-4.8-6.4c-3.6,0-4.7,3.2-4.7,6.4s1.2,6.3,4.8,6.3C370.9,63.3,372.1,60.2,372.1,57
		 M357.3,47h5.2v2.5h0.1c1.3-2.1,3.5-3.1,5.9-3.1c6.2,0,9.1,5,9.1,10.7c0,5.3-2.9,10.3-8.7,10.3c-2.4,0-4.7-1-6-3h-0.1v9.5h-5.5V47z
		"/>
	<path class="st0" d="M392.3,57.2c-0.9,0.8-2.9,0.8-4.5,1.2c-1.7,0.3-3.2,0.9-3.2,2.9s1.6,2.5,3.4,2.5c4.3,0,4.4-3.4,4.4-4.6
		L392.3,57.2L392.3,57.2z M379.6,53.1c0.3-5.1,4.9-6.7,9.4-6.7c4,0,8.7,0.9,8.7,5.7v10.4c0,1.8,0.2,3.6,0.7,4.4h-5.5
		c-0.2-0.6-0.3-1.3-0.4-1.9c-1.7,1.8-4.3,2.5-6.7,2.5c-3.8,0-6.8-1.9-6.8-6c0-4.5,3.4-5.6,6.8-6c3.4-0.5,6.5-0.4,6.5-2.6
		c0-2.4-1.6-2.7-3.5-2.7c-2.1,0-3.4,0.8-3.6,3h-5.6V53.1z"/>
	<path class="st0" d="M401,47h5.2v2.8h0.1c1.4-2.2,3.8-3.3,6.1-3.3c5.8,0,7.3,3.3,7.3,8.2V67h-5.5V55.7c0-3.3-1-4.9-3.5-4.9
		c-3,0-4.2,1.7-4.2,5.7v10.4H401V47z"/>
	<path class="st0" d="M423,47h5.5v19.9H423V47z M428.5,43.9H423v-4.5h5.5V43.9z"/>
	<path class="st0" d="M445.3,54.8c-0.5-2.8-1.7-4.2-4.4-4.2c-3.5,0-4.5,2.7-4.5,4.2H445.3z M436.4,58.3c0.2,3.5,1.8,5,4.9,5
		c2.2,0,4-1.3,4.3-2.6h4.8c-1.5,4.7-4.8,6.7-9.3,6.7c-6.3,0-10.2-4.3-10.2-10.5c0-6,4.1-10.5,10.2-10.5c6.8,0,10.1,5.7,9.7,11.8
		L436.4,58.3L436.4,58.3z"/>
	<path class="st0" d="M457.2,60.4c0,2.4,2,3.4,4.2,3.4c1.6,0,3.6-0.6,3.6-2.5c0-1.7-2.3-2.2-6.2-3.1c-3.2-0.7-6.3-1.8-6.3-5.3
		c0-5.1,4.4-6.4,8.7-6.4c4.4,0,8.4,1.5,8.8,6.4h-5.2c-0.2-2.1-1.8-2.7-3.7-2.7c-1.2,0-3,0.2-3,1.8c0,2,3.1,2.2,6.2,3
		c3.2,0.7,6.3,1.9,6.3,5.6c0,5.2-4.5,6.9-9.1,6.9s-9.1-1.7-9.4-7L457.2,60.4L457.2,60.4z"/>
	<polygon class="st0" points="273.8,72.1 279.8,72.1 279.8,94.5 293.2,94.5 293.2,99.6 273.8,99.6 	"/>
	<path class="st0" d="M295.2,79.7h5.5v19.9h-5.5V79.7z M300.7,76.6h-5.5v-4.5h5.5V76.6z"/>
	<path class="st0" d="M304.2,79.7h5.2v2.7h0.1c1.4-2,3.5-3.2,6.1-3.2c2.5,0,4.7,0.9,5.8,3.3c1.2-1.7,3.2-3.3,6-3.3
		c4.2,0,7.3,2,7.3,7.1v13.3h-5.5V88.3c0-2.7-0.2-4.9-3.4-4.9c-3.1,0-3.7,2.5-3.7,5v11.1h-5.5V88.4c0-2.3,0.2-5-3.3-5
		c-1.1,0-3.7,0.7-3.7,4.6v11.6h-5.5V79.7H304.2z"/>
	<path class="st0" d="M338.1,79.7h5.5v19.9h-5.5V79.7z M343.6,76.6h-5.5v-4.5h5.5V76.6z"/>
	<path class="st0" d="M353.9,79.7h4v3.7h-4v9.9c0,1.8,0.5,2.3,2.3,2.3c0.6,0,1.1,0,1.7-0.2v4.3c-0.9,0.2-2.1,0.2-3.2,0.2
		c-3.4,0-6.3-0.8-6.3-4.7V83.3h-3.3v-3.7h3.3v-6h5.5V79.7z"/>
	<path class="st0" d="M372.9,87.5c-0.5-2.8-1.7-4.2-4.4-4.2c-3.5,0-4.5,2.7-4.5,4.2H372.9z M364.1,91c0.2,3.5,1.8,5,4.9,5
		c2.2,0,4-1.3,4.3-2.6h4.8c-1.5,4.7-4.8,6.7-9.3,6.7c-6.3,0-10.2-4.3-10.2-10.5c0-6,4.1-10.5,10.2-10.5c6.8,0,10.1,5.7,9.7,11.8
		L364.1,91L364.1,91z"/>
	<path class="st0" d="M390.1,83.3c-3.6,0-4.8,3.1-4.8,6.4c0,3.1,1.4,6.4,4.8,6.4c3.6,0,4.7-3.2,4.7-6.4
		C394.8,86.3,393.7,83.3,390.1,83.3 M394.9,97.1L394.9,97.1c-1.3,2.2-3.6,3.1-6.1,3.1c-6,0-8.9-5.2-8.9-10.7c0-5.4,3-10.3,8.8-10.3
		c2.4,0,4.7,1,5.9,3l0,0h0.1v-10h5.5v27.5H395L394.9,97.1L394.9,97.1z"/>
</g>
</svg>
